<?xml version="1.0" encoding="UTF-8" standalone="no"?>
<!DOCTYPE svg PUBLIC "-//W3C//DTD SVG 1.1//EN"
 "http://www.w3.org/Graphics/SVG/1.1/DTD/svg11.dtd">
<!-- Generated by graphviz version 2.40.1 (20161225.0304)
 -->
<!-- Title: dependencies Pages: 1 -->
<svg width="842pt" height="211pt"
 viewBox="0.00 0.00 842.00 211.00" xmlns="http://www.w3.org/2000/svg" xmlns:xlink="http://www.w3.org/1999/xlink">
<g id="graph0" class="graph" transform="scale(1 1) rotate(0) translate(4 207)">
<title>dependencies</title>
<polygon fill="#ffffff" stroke="transparent" points="-4,4 -4,-207 838,-207 838,4 -4,4"/>
<text text-anchor="start" x="396.0091" y="-42.4" font-family="sans-serif" font-weight="bold" font-size="14.00" fill="#000000">Legend</text>
<polygon fill="#ffffb3" stroke="transparent" points="183,-10 183,-30 203,-30 203,-10 183,-10"/>
<text text-anchor="start" x="206.629" y="-15.4" font-family="sans-serif" font-size="14.00" fill="#000000"> &#160;Declarations</text>
<polygon fill="#8dd3c7" stroke="transparent" points="296,-10 296,-30 316,-30 316,-10 296,-10"/>
<text text-anchor="start" x="319.7251" y="-15.4" font-family="sans-serif" font-size="14.00" fill="#000000"> &#160;Module</text>
<polygon fill="#80b1d3" stroke="transparent" points="382,-10 382,-30 402,-30 402,-10 382,-10"/>
<text text-anchor="start" x="405.7812" y="-15.4" font-family="sans-serif" font-size="14.00" fill="#000000"> &#160;Bootstrap</text>
<polygon fill="#fdb462" stroke="transparent" points="479,-10 479,-30 499,-30 499,-10 479,-10"/>
<text text-anchor="start" x="502.6732" y="-15.4" font-family="sans-serif" font-size="14.00" fill="#000000"> &#160;Providers</text>
<polygon fill="#fb8072" stroke="transparent" points="575,-10 575,-30 595,-30 595,-10 575,-10"/>
<text text-anchor="start" x="598.7258" y="-15.4" font-family="sans-serif" font-size="14.00" fill="#000000"> &#160;Exports</text>
<g id="clust1" class="cluster">
<title>cluster_UsersModule</title>
<polygon fill="none" stroke="#000000" stroke-dasharray="1,5" points="8,-70 8,-195 826,-195 826,-70 8,-70"/>
</g>
<g id="clust2" class="cluster">
<title>cluster_UsersModule_declarations</title>
<polygon fill="none" stroke="#000000" points="352,-78 352,-130 818,-130 818,-78 352,-78"/>
</g>
<g id="clust6" class="cluster">
<title>cluster_UsersModule_imports</title>
<polygon fill="none" stroke="#000000" points="186,-78 186,-130 344,-130 344,-78 186,-78"/>
</g>
<g id="clust9" class="cluster">
<title>cluster_UsersModule_providers</title>
<polygon fill="none" stroke="#000000" points="16,-78 16,-130 178,-130 178,-78 16,-78"/>
</g>
<!-- LoginComponent -->
<g id="node1" class="node">
<title>LoginComponent</title>
<polygon fill="#ffffb3" stroke="#000000" points="810.2758,-122 695.7242,-122 695.7242,-86 810.2758,-86 810.2758,-122"/>
<text text-anchor="middle" x="753" y="-99.8" font-family="Times,serif" font-size="14.00" fill="#000000">LoginComponent</text>
</g>
<!-- UsersModule -->
<g id="node4" class="node">
<title>UsersModule</title>
<polygon fill="#8dd3c7" stroke="#000000" points="481.9218,-187 478.9218,-191 457.9218,-191 454.9218,-187 390.0782,-187 390.0782,-151 481.9218,-151 481.9218,-187"/>
<text text-anchor="middle" x="436" y="-164.8" font-family="Times,serif" font-size="14.00" fill="#000000">UsersModule</text>
</g>
<!-- LoginComponent&#45;&gt;UsersModule -->
<g id="edge1" class="edge">
<title>LoginComponent&#45;&gt;UsersModule</title>
<path fill="none" stroke="#000000" d="M753,-122.2843C753,-143.3211 753,-175 753,-175 753,-175 491.756,-175 491.756,-175"/>
<polygon fill="#000000" stroke="#000000" points="491.756,-171.5001 481.756,-175 491.7559,-178.5001 491.756,-171.5001"/>
</g>
<!-- UserDetailsComponent -->
<g id="node2" class="node">
<title>UserDetailsComponent</title>
<polygon fill="#ffffb3" stroke="#000000" points="677.9116,-122 530.0884,-122 530.0884,-86 677.9116,-86 677.9116,-122"/>
<text text-anchor="middle" x="604" y="-99.8" font-family="Times,serif" font-size="14.00" fill="#000000">UserDetailsComponent</text>
</g>
<!-- UserDetailsComponent&#45;&gt;UsersModule -->
<g id="edge2" class="edge">
<title>UserDetailsComponent&#45;&gt;UsersModule</title>
<path fill="none" stroke="#000000" d="M604,-122.0225C604,-139.3734 604,-163 604,-163 604,-163 491.9067,-163 491.9067,-163"/>
<polygon fill="#000000" stroke="#000000" points="491.9068,-159.5001 481.9067,-163 491.9067,-166.5001 491.9068,-159.5001"/>
</g>
<!-- UserSettingsComponent -->
<g id="node3" class="node">
<title>UserSettingsComponent</title>
<polygon fill="#ffffb3" stroke="#000000" points="512.3725,-122 359.6275,-122 359.6275,-86 512.3725,-86 512.3725,-122"/>
<text text-anchor="middle" x="436" y="-99.8" font-family="Times,serif" font-size="14.00" fill="#000000">UserSettingsComponent</text>
</g>
<!-- UserSettingsComponent&#45;&gt;UsersModule -->
<g id="edge3" class="edge">
<title>UserSettingsComponent&#45;&gt;UsersModule</title>
<path fill="none" stroke="#000000" d="M436,-122.1061C436,-122.1061 436,-140.991 436,-140.991"/>
<polygon fill="#000000" stroke="#000000" points="432.5001,-140.9909 436,-150.991 439.5001,-140.991 432.5001,-140.9909"/>
</g>
<!-- SharedCatanieModule -->
<g id="node5" class="node">
<title>SharedCatanieModule</title>
<polygon fill="#8dd3c7" stroke="#000000" points="335.6839,-122 332.6839,-126 311.6839,-126 308.6839,-122 194.3161,-122 194.3161,-86 335.6839,-86 335.6839,-122"/>
<text text-anchor="middle" x="265" y="-99.8" font-family="Times,serif" font-size="14.00" fill="#000000">SharedCatanieModule</text>
</g>
<!-- SharedCatanieModule&#45;&gt;UsersModule -->
<g id="edge4" class="edge">
<title>SharedCatanieModule&#45;&gt;UsersModule</title>
<path fill="none" stroke="#000000" d="M265,-122.0225C265,-139.3734 265,-163 265,-163 265,-163 380.1751,-163 380.1751,-163"/>
<polygon fill="#000000" stroke="#000000" points="380.1752,-166.5001 390.1751,-163 380.1751,-159.5001 380.1752,-166.5001"/>
</g>
<!-- ADAuthService -->
<g id="node6" class="node">
<title>ADAuthService</title>
<ellipse fill="#fdb462" stroke="#000000" cx="97" cy="-104" rx="73.4939" ry="18"/>
<text text-anchor="middle" x="97" y="-99.8" font-family="Times,serif" font-size="14.00" fill="#000000">ADAuthService</text>
</g>
<!-- ADAuthService&#45;&gt;UsersModule -->
<g id="edge5" class="edge">
<title>ADAuthService&#45;&gt;UsersModule</title>
<path fill="none" stroke="#000000" d="M97,-122.2843C97,-143.3211 97,-175 97,-175 97,-175 380.281,-175 380.281,-175"/>
<polygon fill="#000000" stroke="#000000" points="380.281,-178.5001 390.281,-175 380.2809,-171.5001 380.281,-178.5001"/>
</g>
</g>
</svg>
