<?xml version="1.0" encoding="UTF-8" standalone="no"?>
<!DOCTYPE svg PUBLIC "-//W3C//DTD SVG 1.1//EN"
 "http://www.w3.org/Graphics/SVG/1.1/DTD/svg11.dtd">
<!-- Generated by graphviz version 2.40.1 (20161225.0304)
 -->
<!-- Title: dependencies Pages: 1 -->
<svg width="1246pt" height="211pt"
 viewBox="0.00 0.00 1246.00 211.00" xmlns="http://www.w3.org/2000/svg" xmlns:xlink="http://www.w3.org/1999/xlink">
<g id="graph0" class="graph" transform="scale(1 1) rotate(0) translate(4 207)">
<title>dependencies</title>
<polygon fill="#ffffff" stroke="transparent" points="-4,4 -4,-207 1242,-207 1242,4 -4,4"/>
<text text-anchor="start" x="598.0091" y="-42.4" font-family="sans-serif" font-weight="bold" font-size="14.00" fill="#000000">Legend</text>
<polygon fill="#ffffb3" stroke="transparent" points="385,-10 385,-30 405,-30 405,-10 385,-10"/>
<text text-anchor="start" x="408.629" y="-15.4" font-family="sans-serif" font-size="14.00" fill="#000000"> &#160;Declarations</text>
<polygon fill="#8dd3c7" stroke="transparent" points="498,-10 498,-30 518,-30 518,-10 498,-10"/>
<text text-anchor="start" x="521.7251" y="-15.4" font-family="sans-serif" font-size="14.00" fill="#000000"> &#160;Module</text>
<polygon fill="#80b1d3" stroke="transparent" points="584,-10 584,-30 604,-30 604,-10 584,-10"/>
<text text-anchor="start" x="607.7812" y="-15.4" font-family="sans-serif" font-size="14.00" fill="#000000"> &#160;Bootstrap</text>
<polygon fill="#fdb462" stroke="transparent" points="681,-10 681,-30 701,-30 701,-10 681,-10"/>
<text text-anchor="start" x="704.6732" y="-15.4" font-family="sans-serif" font-size="14.00" fill="#000000"> &#160;Providers</text>
<polygon fill="#fb8072" stroke="transparent" points="777,-10 777,-30 797,-30 797,-10 777,-10"/>
<text text-anchor="start" x="800.7258" y="-15.4" font-family="sans-serif" font-size="14.00" fill="#000000"> &#160;Exports</text>
<g id="clust1" class="cluster">
<title>cluster_UsersModule</title>
<polygon fill="none" stroke="#000000" stroke-dasharray="1,5" points="8,-70 8,-195 1230,-195 1230,-70 8,-70"/>
</g>
<g id="clust2" class="cluster">
<title>cluster_UsersModule_declarations</title>
<polygon fill="none" stroke="#000000" points="756,-78 756,-130 1222,-130 1222,-78 756,-78"/>
</g>
<g id="clust6" class="cluster">
<title>cluster_UsersModule_imports</title>
<polygon fill="none" stroke="#000000" points="186,-78 186,-130 748,-130 748,-78 186,-78"/>
</g>
<g id="clust9" class="cluster">
<title>cluster_UsersModule_providers</title>
<polygon fill="none" stroke="#000000" points="16,-78 16,-130 178,-130 178,-78 16,-78"/>
</g>
<!-- LoginComponent -->
<g id="node1" class="node">
<title>LoginComponent</title>
<polygon fill="#ffffb3" stroke="#000000" points="1214.2758,-122 1099.7242,-122 1099.7242,-86 1214.2758,-86 1214.2758,-122"/>
<text text-anchor="middle" x="1157" y="-99.8" font-family="Times,serif" font-size="14.00" fill="#000000">LoginComponent</text>
</g>
<!-- UsersModule -->
<g id="node4" class="node">
<title>UsersModule</title>
<polygon fill="#8dd3c7" stroke="#000000" points="668.9218,-187 665.9218,-191 644.9218,-191 641.9218,-187 577.0782,-187 577.0782,-151 668.9218,-151 668.9218,-187"/>
<text text-anchor="middle" x="623" y="-164.8" font-family="Times,serif" font-size="14.00" fill="#000000">UsersModule</text>
</g>
<!-- LoginComponent&#45;&gt;UsersModule -->
<g id="edge1" class="edge">
<title>LoginComponent&#45;&gt;UsersModule</title>
<path fill="none" stroke="#000000" d="M1157,-122.2921C1157,-144.2057 1157,-178 1157,-178 1157,-178 678.9907,-178 678.9907,-178"/>
<polygon fill="#000000" stroke="#000000" points="678.9908,-174.5001 668.9907,-178 678.9907,-181.5001 678.9908,-174.5001"/>
</g>
<!-- UserDetailsComponent -->
<g id="node2" class="node">
<title>UserDetailsComponent</title>
<polygon fill="#ffffb3" stroke="#000000" points="1081.9116,-122 934.0884,-122 934.0884,-86 1081.9116,-86 1081.9116,-122"/>
<text text-anchor="middle" x="1008" y="-99.8" font-family="Times,serif" font-size="14.00" fill="#000000">UserDetailsComponent</text>
</g>
<!-- UserDetailsComponent&#45;&gt;UsersModule -->
<g id="edge2" class="edge">
<title>UserDetailsComponent&#45;&gt;UsersModule</title>
<path fill="none" stroke="#000000" d="M1008,-122.1061C1008,-141.3391 1008,-169 1008,-169 1008,-169 679.0576,-169 679.0576,-169"/>
<polygon fill="#000000" stroke="#000000" points="679.0576,-165.5001 669.0576,-169 679.0575,-172.5001 679.0576,-165.5001"/>
</g>
<!-- UserSettingsComponent -->
<g id="node3" class="node">
<title>UserSettingsComponent</title>
<polygon fill="#ffffb3" stroke="#000000" points="916.3725,-122 763.6275,-122 763.6275,-86 916.3725,-86 916.3725,-122"/>
<text text-anchor="middle" x="840" y="-99.8" font-family="Times,serif" font-size="14.00" fill="#000000">UserSettingsComponent</text>
</g>
<!-- UserSettingsComponent&#45;&gt;UsersModule -->
<g id="edge3" class="edge">
<title>UserSettingsComponent&#45;&gt;UsersModule</title>
<path fill="none" stroke="#000000" d="M840,-122.027C840,-138.3976 840,-160 840,-160 840,-160 678.755,-160 678.755,-160"/>
<polygon fill="#000000" stroke="#000000" points="678.755,-156.5001 668.755,-160 678.7549,-163.5001 678.755,-156.5001"/>
</g>
<!-- CommonModule -->
<g id="node5" class="node">
<title>CommonModule</title>
<polygon fill="#8dd3c7" stroke="#000000" points="739.6681,-122 736.6681,-126 715.6681,-126 712.6681,-122 628.3319,-122 628.3319,-86 739.6681,-86 739.6681,-122"/>
<text text-anchor="middle" x="684" y="-99.8" font-family="Times,serif" font-size="14.00" fill="#000000">CommonModule</text>
</g>
<!-- CommonModule&#45;&gt;UsersModule -->
<g id="edge4" class="edge">
<title>CommonModule&#45;&gt;UsersModule</title>
<path fill="none" stroke="#000000" d="M648.4383,-122.1061C648.4383,-122.1061 648.4383,-140.991 648.4383,-140.991"/>
<polygon fill="#000000" stroke="#000000" points="644.9384,-140.9909 648.4383,-150.991 651.9384,-140.991 644.9384,-140.9909"/>
</g>
<!-- FormsModule -->
<g id="node6" class="node">
<title>FormsModule</title>
<polygon fill="#8dd3c7" stroke="#000000" points="610.8288,-122 607.8288,-126 586.8288,-126 583.8288,-122 515.1712,-122 515.1712,-86 610.8288,-86 610.8288,-122"/>
<text text-anchor="middle" x="563" y="-99.8" font-family="Times,serif" font-size="14.00" fill="#000000">FormsModule</text>
</g>
<!-- FormsModule&#45;&gt;UsersModule -->
<g id="edge5" class="edge">
<title>FormsModule&#45;&gt;UsersModule</title>
<path fill="none" stroke="#000000" d="M593.9769,-122.1061C593.9769,-122.1061 593.9769,-140.991 593.9769,-140.991"/>
<polygon fill="#000000" stroke="#000000" points="590.4769,-140.9909 593.9769,-150.991 597.4769,-140.991 590.4769,-140.9909"/>
</g>
<!-- SharedCatanieModule -->
<g id="node7" class="node">
<title>SharedCatanieModule</title>
<polygon fill="#8dd3c7" stroke="#000000" points="497.6839,-122 494.6839,-126 473.6839,-126 470.6839,-122 356.3161,-122 356.3161,-86 497.6839,-86 497.6839,-122"/>
<text text-anchor="middle" x="427" y="-99.8" font-family="Times,serif" font-size="14.00" fill="#000000">SharedCatanieModule</text>
</g>
<!-- SharedCatanieModule&#45;&gt;UsersModule -->
<g id="edge6" class="edge">
<title>SharedCatanieModule&#45;&gt;UsersModule</title>
<path fill="none" stroke="#000000" d="M427,-122.027C427,-138.3976 427,-160 427,-160 427,-160 567.0467,-160 567.0467,-160"/>
<polygon fill="#000000" stroke="#000000" points="567.0467,-163.5001 577.0467,-160 567.0467,-156.5001 567.0467,-163.5001"/>
</g>
<!-- ReactiveFormsModule -->
<g id="node8" class="node">
<title>ReactiveFormsModule</title>
<polygon fill="#8dd3c7" stroke="#000000" points="338.3047,-122 335.3047,-126 314.3047,-126 311.3047,-122 193.6953,-122 193.6953,-86 338.3047,-86 338.3047,-122"/>
<text text-anchor="middle" x="266" y="-99.8" font-family="Times,serif" font-size="14.00" fill="#000000">ReactiveFormsModule</text>
</g>
<!-- ReactiveFormsModule&#45;&gt;UsersModule -->
<g id="edge7" class="edge">
<title>ReactiveFormsModule&#45;&gt;UsersModule</title>
<path fill="none" stroke="#000000" d="M266,-122.1061C266,-141.3391 266,-169 266,-169 266,-169 567.0593,-169 567.0593,-169"/>
<polygon fill="#000000" stroke="#000000" points="567.0594,-172.5001 577.0593,-169 567.0593,-165.5001 567.0594,-172.5001"/>
</g>
<!-- ADAuthService -->
<g id="node9" class="node">
<title>ADAuthService</title>
<ellipse fill="#fdb462" stroke="#000000" cx="97" cy="-104" rx="73.4939" ry="18"/>
<text text-anchor="middle" x="97" y="-99.8" font-family="Times,serif" font-size="14.00" fill="#000000">ADAuthService</text>
</g>
<!-- ADAuthService&#45;&gt;UsersModule -->
<g id="edge8" class="edge">
<title>ADAuthService&#45;&gt;UsersModule</title>
<path fill="none" stroke="#000000" d="M97,-122.2921C97,-144.2057 97,-178 97,-178 97,-178 567.2411,-178 567.2411,-178"/>
<polygon fill="#000000" stroke="#000000" points="567.2411,-181.5001 577.2411,-178 567.2411,-174.5001 567.2411,-181.5001"/>
</g>
</g>
</svg>
