<svg version="1" xmlns="http://www.w3.org/2000/svg" width="682.667" height="682.667" viewBox="0 0 512.000000 512.000000"><path d="M470.9 17.2c-1.8.7-2 1.5-1.8 10.3.1 5.2.6 9.8 1.1 10.1 1.5 1 17.2.4 17.8-.5.7-1.3.5-19-.4-19.8-.9-.9-14.1-1-16.7-.1zM46.1 19.2c-1.5.5-1.7 1.8-1.5 9.3.1 4.7.4 8.8.7 9.1.2.3 3.3.5 6.8.5 12.1.1 10.9 1.2 10.9-9.6 0-9.2-.1-9.5-2.2-9.6-1.3 0-4.7-.1-7.6-.2-2.9-.1-6.1.1-7.1.5zM83 28.5c0 5.6.4 9.6 1 9.6.6.1 1.7.1 2.5.1s4.3 0 7.8-.1l6.2-.1.1-9.5.1-9.5H83v9.5zM120.9 23.2c-.2 8.4-.1 13.9.4 14.4s6.4.7 14 .5l3.7-.1V19h-18l-.1 4.2zM255.3 20.5c-7.9 2.4-14.8 8.1-17.6 14.4-.7 1.7-1.1 11.6-1.2 27.8V88l-3.2 3.2c-2.6 2.5-4.2 3.3-7.5 3.4-5.2.2-8.2-1.1-9.7-4-.6-1.1-1.7-6.7-2.5-12.3-3-20.4-10.5-27.7-28.6-27.6-8.2 0-14.3 2.1-19.2 6.6-6.5 6-8 13.2-7.8 37.6.1 10.8.1 20.2.1 20.8-.1 1-2.7 1.3-9.6 1.3H139l-.1-16.8c-.1-14.7-.5-37.7-.8-40.8-.1-.7-14.7-1-46.6-1l-46.5.1v18.4l36.7.1c21.8 0 37.1.4 37.8 1 .8.7 1.1 6.5 1 19.5-.1 10.2-.4 18.7-.6 18.9-.2.3-3.1.7-6.4 1.1-12.8 1.4-20 4.7-25.1 11.7-4.9 6.5-6.9 20.1-4.2 27.9 3.1 9.2 10.1 15.7 20.5 18.9l5.8 1.8.2 72.3.2 72.4-8.2 8.6c-4.5 4.7-16.1 16.8-25.8 27-9.8 10.1-19.4 20.2-21.4 22.4-2.1 2.2-10 10.5-17.5 18.5-24.7 26.1-22.2 22.6-21.6 29.5 2 21.3 9 35.6 24.5 50.3 6.2 5.9 11.7 9.5 18.9 12.2 4.4 1.7 6 2.1 15.7 3.7 3.8.6 116 .9 136.6.3 14.6-.4 20.6-1.6 29.9-6.2 7.1-3.4 10.1-5.7 18-13.7 5.7-5.7 10.7-11.8 12.4-15.1l2.9-5.6 5.6-.1c15.3-.4 26.9-4 36.9-11.5 12.6-9.3 20.4-19.8 24.6-33 1.4-4.6 2.8-9.3 2.9-10.5.2-1.2.6-2.6 1-2.9 1.2-1.2.8-7.2-.5-8.1-.7-.4-22.9-.9-49.3-1.1l-48-.3-6.4-6.7c-14.4-15-38.5-40.3-46.9-49.1l-8.9-9.5v-71.3c0-50.8.3-71.5 1.1-72.1.6-.5 3.6-1.7 6.6-2.6 9.2-3 13.5-6.8 17.8-15.6 3.5-7.3 3.7-18.2.4-25.1-5-10.7-12.1-15.4-26.2-17.2l-8.7-1.1-.2-19.7c-.1-10.9.1-20.8.4-22.1.9-3.2 5.2-6.1 9.2-6.1 7.5 0 10.7 4.5 11.7 16.9 1.6 18.3 12.5 26.5 31.6 24 12.9-1.7 22-10.3 23.6-22.3.4-2.6.6-12.5.6-22-.1-17.9.6-22.9 3.5-25.1 2.5-1.8 8.7-1.5 11.4.7 2.8 2.3 2.7-.4 3.1 54.4.2 21.9.5 40.2.8 40.7.3.5 4.3.8 9 .7l8.5-.2.1-47 .1-47-2.5-5.7c-2.7-6.4-9.2-13.1-14.9-15.4-4.8-2.1-13-2.5-18-.9zm-67 117.7c5 2.6 7 7.9 5 13-1.9 4.8-4.6 6-14.5 6.3-4.5.2-9.3.4-10.5.4-2 .1-2.2.6-2.1 7.3.1 14.4-.4 29.6-1.1 30.6-.7 1.2-4.7 2-11.1 2.1l-4.5.1v8.2c0 4.6.3 8.8.7 9.3.4.6 3.7 1.2 7.3 1.3 3.7.1 7.1.5 7.6.8 1.2.7 1.2 18.1 0 18.8-.5.3-4.1.7-8 .8-3.9.2-7.2.5-7.2.8-.6 2.2-.3 17.3.3 17.6.4.3 3.9.5 7.7.6 8.2.1 7.9-.2 7.7 11.9l-.1 8.3-7 .4c-3.8.1-7.4.4-8 .6-1.2.3-1.4 17.5-.2 18.3.9.6 6.4 1.1 12.3 1.2l3.1.1.1 8.8c0 4.8-.2 9.3-.6 9.9-.4.6-4.1 1.3-8.2 1.5l-7.5.4v9.2c0 5.7.3 9.1 1 9.1.5-.1 5.3-.1 10.6 0 8.6.1 9.9.3 12 2.4 2.5 2.5 9.9 10.1 42.4 44.2 11 11.5 24.6 25.7 30.2 31.5 16.7 17.4 15.5 15.7 14.8 20.4-2.6 15.8-13.4 30.3-28 37.6l-7 3.5-74-.1c-56 0-75.6-.3-80.5-1.3-17.4-3.4-33.6-22-35.5-40.6-.5-4.7-2.1-2.6 19.1-25.1 7.1-7.5 14-14.8 15.3-16.3 1.3-1.4 8.1-8.7 15.1-16.1 17.9-19 19.1-20.3 29.9-31.9 5.3-5.7 10.3-11.1 11.1-11.9 1.3-1.3 1.5-11.4 1.5-77.3 0-41.7.3-76.1.7-76.5.9-.8 3.4-1.1 11.6-1.3l6.2-.1v-19l-4.2-.1c-31.7-.5-37-.8-38.4-2-2-1.7-3.9-5.9-3.8-8.4.1-1.1.2-2.6.3-3.3.1-.8 1.5-2.7 3.2-4.3l3.1-2.9h40c28.3 0 40.6.3 42.1 1.2z"/><path d="M95.6 393.5c-35 35.2-41.6 42.3-40.9 44.2 2.2 6.2 9.5 13.2 16.8 16.1 4.6 1.9 146.4 2.1 152 .3 6.9-2.3 12.3-6 15.5-10.6 4.9-7.1 4.6-8.2-4.5-17.7-4.4-4.6-15.9-16.6-25.5-26.7-9.6-10.2-18.5-19.4-19.8-20.5-2.3-2-3.3-2.1-39.4-2.2h-37.1l-17.1 17.1zM322.5 25.5c-1.1 1.1-4.1 4.3-6.6 7.1l-4.7 5.1-.1 19.3-.1 19.3 6.6 7.4 6.6 7.3h15.3c11.2 0 15.6.3 16.2 1.2 1 1.8 1.2 22.7.2 23.4-1.1.6-15.2 1.3-31.1 1.3l-12.8.1v6.5c0 6.3.2 6.8 3.9 10.8l4 4.2h22.3l22.2.1 4.8-5.1c9.2-9.9 8.3-6.9 8.3-29.8V83.3l-6.4-7.2-6.4-7.1h-15.8c-9.5 0-16-.4-16.4-1-1.2-2-1.3-21 0-22 .6-.5 10.8-1 22.8-1.2 13.9-.2 21.7-.6 21.8-1.3.9-10 .7-10.5-3.6-15.2l-4.1-4.7H347c-21.1-.1-22.6 0-24.5 1.9zM400.4 53.6c-3.2 3.6-6.1 7.2-6.4 8-.3.7-.5 15.1-.4 31.9l.1 30.6 3.5 3.7c1.9 2 4.9 5.3 6.7 7.3l3.1 3.6 18.8-.2 18.7-.1 5.5-5.8c3-3.3 6.1-6.5 6.8-7.2 1.4-1.4 1.6-6 .3-6.8-.5-.3-10.2-.8-21.7-1.2-11.5-.3-21.1-.8-21.3-1-.9-.9-.9-46.1-.1-47.5.7-1 5-1.4 20.2-1.5 10.6-.1 20.3-.3 21.6-.3 1.7-.1 2.2-.7 2.2-2.9 0-1.9-1.8-4.8-6.2-9.9l-6.3-7.2-19.6-.1h-19.5l-6 6.6zM470.3 47.9c-1.1.7-1.2 88.1-.1 89.7.6.8 9.9 1.1 17.3.5 1.2-.1 1.3-88.6.1-89.8-.9-.9-16.1-1.3-17.3-.4z"/><path d="M234.9 159.7c-.6 9.6-.3 15.5.7 16.4.6.5 4.5 1.1 8.5 1.3 4.1.2 7.7.5 8.2.5.4.1.7 23 .7 51 0 39.7-.3 51.2-1.2 51.8-.7.4-5.4 2.6-10.4 4.9-5 2.2-12.5 6.4-16.8 9.4-7.8 5.4-23.9 21.4-25.9 25.7-1 2.2-.7 2.9 3.4 6.7 2.4 2.3 5.6 5 7 6 2.6 1.6 2.7 1.6 4.4-1.1 3.1-4.6 17.6-18.4 23.2-22 6.8-4.3 12.3-6.7 24.8-10.9 9.9-3.2 10-3.3 10.2-6.6.1-1.8.3-28.4.5-59 .3-48.7.5-55.8 1.8-55.9 1.6-.1 13.8-.1 15.6 0 .8.1 1.1 17.2 1.3 58.3.1 44 .5 58.6 1.4 59.4.7.7 5.2 2.4 10.2 3.9 28.3 8.5 48 26.4 57.8 52.5 3.9 10.6 4.6 13.2 5.8 22.1 3.9 28.6-6.1 57.2-27.1 77.9-11.2 11-21.7 16.7-38.8 21.1-8 2.1-19.3 2.7-25.1 1.4-3.2-.7-3.7-.4-10.3 6.5-5.2 5.4-6.7 7.5-5.7 8 .8.5 5 1.9 9.4 3.2 15.8 4.8 36.6 2.1 55.5-7 46.4-22.6 69.6-72.2 58.5-125.2-4-18.9-15-38.5-30.5-54-9.5-9.6-14.2-12.8-29.6-20.2l-12.4-5.9V178.2l2.3-.4c1.2-.2 5.1-.6 8.7-.7 3.6-.1 6.7-.6 7-1.1.3-.4.5-4.6.5-9.2v-8.3l-46.7-.3c-44.1-.2-46.8-.1-46.9 1.5zM471.6 181c-3.2 1.6-6.1 3.2-6.5 3.5-.3.4-.7 4.9-.8 10-.1 9.3-.2 9.4-4.4 15.7-2.4 3.5-4.2 6.5-4 6.8.2.3.7 1.3 1.2 2.2.5.9 1.7 1.5 2.7 1.3 4-.7 4.1.4 4.2 23.5l.1 22.5 5.7 6 5.7 6 9.5-.3c5.2-.2 9.6-.5 9.9-.7.8-.9.6-14.7-.2-15.2-.5-.3-3.4-.6-6.4-.8-3.4-.1-5.9-.8-6.4-1.6s-.8-9.8-.8-20.2l.1-18.7 2.7-.1c8.1-.3 10.2-.6 11.2-1.6.9-.9 1.5-15 .7-15.9-.2-.2-3.6-.4-7.5-.5l-7.1-.2-.1-9.6c-.1-5.3-.4-10.5-.6-11.6-.2-1.1-.4-2.3-.4-2.8-.2-1.3-2.5-.7-8.5 2.3z"/><path d="M341.3 186.8c-1.2 1.5-3.4 4-4.8 5.6-1.4 1.6-2.6 3.4-2.6 4-.1.6-.2 16.8-.3 36l-.1 34.9 5.1 5.5 5 5.5 16.2-.1h16.1l5-5.4c5.7-6 6.9-10.8 2.9-10.9-23.3-.5-31.1-.9-32.5-1.3-1.7-.5-1.8-2.7-1.7-29.6.1-16 .3-29.3.6-29.5.3-.3 8.3-.6 17.9-.8l17.4-.2.3-2.5c.2-1.9-1.1-4-5-8.3l-5.3-5.7h-32l-2.2 2.8zM401.1 208.7c-3.6 4-5.1 6.5-5.1 8.5 0 2.6.3 2.8 4.3 2.8 20.1.3 31.1 1 31.9 2.2 1 1.5.4 7.6-.9 8.9-.4.4-5.5.9-11.3 1-6.1.2-11.6.8-13.1 1.5-1.5.8-4.9 3.8-7.7 6.9l-4.9 5.6.1 10.4.1 10.3 5.2 5.6c2.9 3.1 5.9 5.6 6.5 5.7.7 0 5.5.1 10.6 0 8.8 0 9.5-.2 11.4-2.6 3.9-4.9 5.3-5 11.5-.6 9 6.4 8.7 7.4 9-29.1l.2-31.3-5.2-5.8-5.3-5.7h-32.2l-5.1 5.7zM431 250c1.5.8 1.9 2 1.7 5.3-.4 6.5-.7 6.7-11.3 6.7-10.6 0-10.7-.1-10.8-7.3 0-2.3.6-4.2 1.4-4.7 2-1.3 16.7-1.2 19 0z"/></svg>