<?xml version="1.0" encoding="UTF-8" standalone="no"?>
<!DOCTYPE svg PUBLIC "-//W3C//DTD SVG 1.1//EN"
 "http://www.w3.org/Graphics/SVG/1.1/DTD/svg11.dtd">
<!-- Generated by graphviz version 2.40.1 (20161225.0304)
 -->
<!-- Title: dependencies Pages: 1 -->
<svg width="504pt" height="284pt"
 viewBox="0.00 0.00 504.00 284.00" xmlns="http://www.w3.org/2000/svg" xmlns:xlink="http://www.w3.org/1999/xlink">
<g id="graph0" class="graph" transform="scale(1 1) rotate(0) translate(4 280)">
<title>dependencies</title>
<polygon fill="#ffffff" stroke="transparent" points="-4,4 -4,-280 500,-280 500,4 -4,4"/>
<text text-anchor="start" x="227.0091" y="-42.4" font-family="sans-serif" font-weight="bold" font-size="14.00" fill="#000000">Legend</text>
<polygon fill="#ffffb3" stroke="transparent" points="14,-10 14,-30 34,-30 34,-10 14,-10"/>
<text text-anchor="start" x="37.629" y="-15.4" font-family="sans-serif" font-size="14.00" fill="#000000"> &#160;Declarations</text>
<polygon fill="#8dd3c7" stroke="transparent" points="127,-10 127,-30 147,-30 147,-10 127,-10"/>
<text text-anchor="start" x="150.7251" y="-15.4" font-family="sans-serif" font-size="14.00" fill="#000000"> &#160;Module</text>
<polygon fill="#80b1d3" stroke="transparent" points="213,-10 213,-30 233,-30 233,-10 213,-10"/>
<text text-anchor="start" x="236.7812" y="-15.4" font-family="sans-serif" font-size="14.00" fill="#000000"> &#160;Bootstrap</text>
<polygon fill="#fdb462" stroke="transparent" points="310,-10 310,-30 330,-30 330,-10 310,-10"/>
<text text-anchor="start" x="333.6732" y="-15.4" font-family="sans-serif" font-size="14.00" fill="#000000"> &#160;Providers</text>
<polygon fill="#fb8072" stroke="transparent" points="406,-10 406,-30 426,-30 426,-10 406,-10"/>
<text text-anchor="start" x="429.7258" y="-15.4" font-family="sans-serif" font-size="14.00" fill="#000000"> &#160;Exports</text>
<g id="clust1" class="cluster">
<title>cluster_ConfigFormModule</title>
<polygon fill="none" stroke="#000000" stroke-dasharray="1,5" points="46,-70 46,-268 450,-268 450,-70 46,-70"/>
</g>
<g id="clust2" class="cluster">
<title>cluster_ConfigFormModule_declarations</title>
<polygon fill="none" stroke="#000000" points="54,-78 54,-130 442,-130 442,-78 54,-78"/>
</g>
<g id="clust7" class="cluster">
<title>cluster_ConfigFormModule_exports</title>
<polygon fill="none" stroke="#000000" points="135,-208 135,-260 305,-260 305,-208 135,-208"/>
</g>
<!-- ConfigFormComponent -->
<g id="node1" class="node">
<title>ConfigFormComponent</title>
<polygon fill="#ffffb3" stroke="#000000" points="434.0547,-122 283.9453,-122 283.9453,-86 434.0547,-86 434.0547,-122"/>
<text text-anchor="middle" x="359" y="-99.8" font-family="Times,serif" font-size="14.00" fill="#000000">ConfigFormComponent</text>
</g>
<!-- ConfigFormModule -->
<g id="node4" class="node">
<title>ConfigFormModule</title>
<polygon fill="#8dd3c7" stroke="#000000" points="284.2716,-187 281.2716,-191 260.2716,-191 257.2716,-187 155.7284,-187 155.7284,-151 284.2716,-151 284.2716,-187"/>
<text text-anchor="middle" x="220" y="-164.8" font-family="Times,serif" font-size="14.00" fill="#000000">ConfigFormModule</text>
</g>
<!-- ConfigFormComponent&#45;&gt;ConfigFormModule -->
<g id="edge1" class="edge">
<title>ConfigFormComponent&#45;&gt;ConfigFormModule</title>
<path fill="none" stroke="#000000" d="M290.7064,-122.1061C290.7064,-141.3391 290.7064,-169 290.7064,-169 290.7064,-169 290.1035,-169 290.1035,-169"/>
<polygon fill="#000000" stroke="#000000" points="294.678,-165.5002 284.678,-169 294.6779,-172.5002 294.678,-165.5002"/>
</g>
<!-- ObjKeysPipe -->
<g id="node2" class="node">
<title>ObjKeysPipe</title>
<polygon fill="#ffffb3" stroke="#000000" points="265.1515,-122 174.8485,-122 174.8485,-86 265.1515,-86 265.1515,-122"/>
<text text-anchor="middle" x="220" y="-99.8" font-family="Times,serif" font-size="14.00" fill="#000000">ObjKeysPipe</text>
</g>
<!-- ObjKeysPipe&#45;&gt;ConfigFormModule -->
<g id="edge2" class="edge">
<title>ObjKeysPipe&#45;&gt;ConfigFormModule</title>
<path fill="none" stroke="#000000" d="M220,-122.1061C220,-122.1061 220,-140.991 220,-140.991"/>
<polygon fill="#000000" stroke="#000000" points="216.5001,-140.9909 220,-150.991 223.5001,-140.991 216.5001,-140.9909"/>
</g>
<!-- TitleCasePipe -->
<g id="node3" class="node">
<title>TitleCasePipe</title>
<polygon fill="#ffffb3" stroke="#000000" points="156.0383,-122 61.9617,-122 61.9617,-86 156.0383,-86 156.0383,-122"/>
<text text-anchor="middle" x="109" y="-99.8" font-family="Times,serif" font-size="14.00" fill="#000000">TitleCasePipe</text>
</g>
<!-- TitleCasePipe&#45;&gt;ConfigFormModule -->
<g id="edge3" class="edge">
<title>TitleCasePipe&#45;&gt;ConfigFormModule</title>
<path fill="none" stroke="#000000" d="M149.2937,-122.1061C149.2937,-141.3391 149.2937,-169 149.2937,-169 149.2937,-169 149.8965,-169 149.8965,-169"/>
<polygon fill="#000000" stroke="#000000" points="145.3221,-172.5002 155.322,-169 145.322,-165.5002 145.3221,-172.5002"/>
</g>
<!-- ConfigFormComponent  -->
<g id="node5" class="node">
<title>ConfigFormComponent </title>
<polygon fill="#fb8072" stroke="#000000" points="297.054,-252 142.946,-252 142.946,-216 297.054,-216 297.054,-252"/>
<text text-anchor="middle" x="220" y="-229.8" font-family="Times,serif" font-size="14.00" fill="#000000">ConfigFormComponent </text>
</g>
<!-- ConfigFormModule&#45;&gt;ConfigFormComponent  -->
<g id="edge4" class="edge">
<title>ConfigFormModule&#45;&gt;ConfigFormComponent </title>
<path fill="none" stroke="#000000" stroke-dasharray="5,2" d="M220,-187.1061C220,-187.1061 220,-205.991 220,-205.991"/>
<polygon fill="#000000" stroke="#000000" points="216.5001,-205.9909 220,-215.991 223.5001,-205.991 216.5001,-205.9909"/>
</g>
</g>
</svg>
