<?xml version="1.0" encoding="UTF-8" standalone="no"?>
<!DOCTYPE svg PUBLIC "-//W3C//DTD SVG 1.1//EN"
 "http://www.w3.org/Graphics/SVG/1.1/DTD/svg11.dtd">
<!-- Generated by graphviz version 2.40.1 (20161225.0304)
 -->
<!-- Title: dependencies Pages: 1 -->
<svg width="740pt" height="284pt"
 viewBox="0.00 0.00 740.00 284.00" xmlns="http://www.w3.org/2000/svg" xmlns:xlink="http://www.w3.org/1999/xlink">
<g id="graph0" class="graph" transform="scale(1 1) rotate(0) translate(4 280)">
<title>dependencies</title>
<polygon fill="#ffffff" stroke="transparent" points="-4,4 -4,-280 736,-280 736,4 -4,4"/>
<text text-anchor="start" x="345.0091" y="-42.4" font-family="sans-serif" font-weight="bold" font-size="14.00" fill="#000000">Legend</text>
<polygon fill="#ffffb3" stroke="transparent" points="132,-10 132,-30 152,-30 152,-10 132,-10"/>
<text text-anchor="start" x="155.629" y="-15.4" font-family="sans-serif" font-size="14.00" fill="#000000"> &#160;Declarations</text>
<polygon fill="#8dd3c7" stroke="transparent" points="245,-10 245,-30 265,-30 265,-10 245,-10"/>
<text text-anchor="start" x="268.7251" y="-15.4" font-family="sans-serif" font-size="14.00" fill="#000000"> &#160;Module</text>
<polygon fill="#80b1d3" stroke="transparent" points="331,-10 331,-30 351,-30 351,-10 331,-10"/>
<text text-anchor="start" x="354.7812" y="-15.4" font-family="sans-serif" font-size="14.00" fill="#000000"> &#160;Bootstrap</text>
<polygon fill="#fdb462" stroke="transparent" points="428,-10 428,-30 448,-30 448,-10 428,-10"/>
<text text-anchor="start" x="451.6732" y="-15.4" font-family="sans-serif" font-size="14.00" fill="#000000"> &#160;Providers</text>
<polygon fill="#fb8072" stroke="transparent" points="524,-10 524,-30 544,-30 544,-10 524,-10"/>
<text text-anchor="start" x="547.7258" y="-15.4" font-family="sans-serif" font-size="14.00" fill="#000000"> &#160;Exports</text>
<g id="clust1" class="cluster">
<title>cluster_SharedCatanieModule</title>
<polygon fill="none" stroke="#000000" stroke-dasharray="1,5" points="8,-70 8,-268 724,-268 724,-70 8,-70"/>
</g>
<g id="clust3" class="cluster">
<title>cluster_SharedCatanieModule_imports</title>
<polygon fill="none" stroke="#000000" points="174,-78 174,-130 716,-130 716,-78 174,-78"/>
</g>
<g id="clust4" class="cluster">
<title>cluster_SharedCatanieModule_exports</title>
<polygon fill="none" stroke="#000000" points="93,-208 93,-260 648,-260 648,-208 93,-208"/>
</g>
<g id="clust6" class="cluster">
<title>cluster_SharedCatanieModule_providers</title>
<polygon fill="none" stroke="#000000" points="16,-78 16,-130 166,-130 166,-78 16,-78"/>
</g>
<!-- BreadcrumbModule -->
<g id="node1" class="node">
<title>BreadcrumbModule</title>
<polygon fill="#8dd3c7" stroke="#000000" points="708.2423,-122 705.2423,-126 684.2423,-126 681.2423,-122 579.7577,-122 579.7577,-86 708.2423,-86 708.2423,-122"/>
<text text-anchor="middle" x="644" y="-99.8" font-family="Times,serif" font-size="14.00" fill="#000000">BreadcrumbModule</text>
</g>
<!-- SharedCatanieModule -->
<g id="node5" class="node">
<title>SharedCatanieModule</title>
<polygon fill="#8dd3c7" stroke="#000000" points="426.6839,-187 423.6839,-191 402.6839,-191 399.6839,-187 285.3161,-187 285.3161,-151 426.6839,-151 426.6839,-187"/>
<text text-anchor="middle" x="356" y="-164.8" font-family="Times,serif" font-size="14.00" fill="#000000">SharedCatanieModule</text>
</g>
<!-- BreadcrumbModule&#45;&gt;SharedCatanieModule -->
<g id="edge1" class="edge">
<title>BreadcrumbModule&#45;&gt;SharedCatanieModule</title>
<path fill="none" stroke="#000000" d="M609.875,-122.0225C609.875,-139.3734 609.875,-163 609.875,-163 609.875,-163 436.7183,-163 436.7183,-163"/>
<polygon fill="#000000" stroke="#000000" points="436.7184,-159.5001 426.7183,-163 436.7183,-166.5001 436.7184,-159.5001"/>
</g>
<!-- ConfigFormModule -->
<g id="node2" class="node">
<title>ConfigFormModule</title>
<polygon fill="#8dd3c7" stroke="#000000" points="561.2716,-122 558.2716,-126 537.2716,-126 534.2716,-122 432.7284,-122 432.7284,-86 561.2716,-86 561.2716,-122"/>
<text text-anchor="middle" x="497" y="-99.8" font-family="Times,serif" font-size="14.00" fill="#000000">ConfigFormModule</text>
</g>
<!-- ConfigFormModule&#45;&gt;SharedCatanieModule -->
<g id="edge2" class="edge">
<title>ConfigFormModule&#45;&gt;SharedCatanieModule</title>
<path fill="none" stroke="#000000" d="M432.6819,-104C425.3102,-104 420.37,-104 420.37,-104 420.37,-104 420.37,-140.8939 420.37,-140.8939"/>
<polygon fill="#000000" stroke="#000000" points="416.87,-140.8938 420.37,-150.8939 423.87,-140.8939 416.87,-140.8938"/>
</g>
<!-- ErrorPageModule -->
<g id="node3" class="node">
<title>ErrorPageModule</title>
<polygon fill="#8dd3c7" stroke="#000000" points="414.2964,-122 411.2964,-126 390.2964,-126 387.2964,-122 297.7036,-122 297.7036,-86 414.2964,-86 414.2964,-122"/>
<text text-anchor="middle" x="356" y="-99.8" font-family="Times,serif" font-size="14.00" fill="#000000">ErrorPageModule</text>
</g>
<!-- ErrorPageModule&#45;&gt;SharedCatanieModule -->
<g id="edge3" class="edge">
<title>ErrorPageModule&#45;&gt;SharedCatanieModule</title>
<path fill="none" stroke="#000000" d="M356,-122.1061C356,-122.1061 356,-140.991 356,-140.991"/>
<polygon fill="#000000" stroke="#000000" points="352.5001,-140.9909 356,-150.991 359.5001,-140.991 352.5001,-140.9909"/>
</g>
<!-- DialogModule -->
<g id="node4" class="node">
<title>DialogModule</title>
<polygon fill="#8dd3c7" stroke="#000000" points="279.6528,-122 276.6528,-126 255.6528,-126 252.6528,-122 182.3472,-122 182.3472,-86 279.6528,-86 279.6528,-122"/>
<text text-anchor="middle" x="231" y="-99.8" font-family="Times,serif" font-size="14.00" fill="#000000">DialogModule</text>
</g>
<!-- DialogModule&#45;&gt;SharedCatanieModule -->
<g id="edge4" class="edge">
<title>DialogModule&#45;&gt;SharedCatanieModule</title>
<path fill="none" stroke="#000000" d="M279.94,-104C286.8341,-104 291.6301,-104 291.6301,-104 291.6301,-104 291.6301,-140.8939 291.6301,-140.8939"/>
<polygon fill="#000000" stroke="#000000" points="288.1301,-140.8938 291.6301,-150.8939 295.1301,-140.8939 288.1301,-140.8938"/>
</g>
<!-- BreadcrumbModule  -->
<g id="node6" class="node">
<title>BreadcrumbModule </title>
<polygon fill="#fb8072" stroke="#000000" points="640.2422,-252 507.7578,-252 507.7578,-216 640.2422,-216 640.2422,-252"/>
<text text-anchor="middle" x="574" y="-229.8" font-family="Times,serif" font-size="14.00" fill="#000000">BreadcrumbModule </text>
</g>
<!-- SharedCatanieModule&#45;&gt;BreadcrumbModule  -->
<g id="edge5" class="edge">
<title>SharedCatanieModule&#45;&gt;BreadcrumbModule </title>
<path fill="none" stroke="#000000" stroke-dasharray="5,2" d="M426.6002,-175C476.531,-175 534.6324,-175 534.6324,-175 534.6324,-175 534.6324,-205.9775 534.6324,-205.9775"/>
<polygon fill="#000000" stroke="#000000" points="531.1324,-205.9774 534.6324,-215.9775 538.1324,-205.9775 531.1324,-205.9774"/>
</g>
<!-- ConfigFormModule  -->
<g id="node7" class="node">
<title>ConfigFormModule </title>
<polygon fill="#fb8072" stroke="#000000" points="490.2717,-252 357.7283,-252 357.7283,-216 490.2717,-216 490.2717,-252"/>
<text text-anchor="middle" x="424" y="-229.8" font-family="Times,serif" font-size="14.00" fill="#000000">ConfigFormModule </text>
</g>
<!-- SharedCatanieModule&#45;&gt;ConfigFormModule  -->
<g id="edge6" class="edge">
<title>SharedCatanieModule&#45;&gt;ConfigFormModule </title>
<path fill="none" stroke="#000000" stroke-dasharray="5,2" d="M392.2281,-187.1061C392.2281,-187.1061 392.2281,-205.991 392.2281,-205.991"/>
<polygon fill="#000000" stroke="#000000" points="388.7282,-205.9909 392.2281,-215.991 395.7282,-205.991 388.7282,-205.9909"/>
</g>
<!-- ErrorPageModule  -->
<g id="node8" class="node">
<title>ErrorPageModule </title>
<polygon fill="#fb8072" stroke="#000000" points="339.7962,-252 220.2038,-252 220.2038,-216 339.7962,-216 339.7962,-252"/>
<text text-anchor="middle" x="280" y="-229.8" font-family="Times,serif" font-size="14.00" fill="#000000">ErrorPageModule </text>
</g>
<!-- SharedCatanieModule&#45;&gt;ErrorPageModule  -->
<g id="edge7" class="edge">
<title>SharedCatanieModule&#45;&gt;ErrorPageModule </title>
<path fill="none" stroke="#000000" stroke-dasharray="5,2" d="M312.6531,-187.1061C312.6531,-187.1061 312.6531,-205.991 312.6531,-205.991"/>
<polygon fill="#000000" stroke="#000000" points="309.1531,-205.9909 312.6531,-215.991 316.1531,-205.991 309.1531,-205.9909"/>
</g>
<!-- DialogModule  -->
<g id="node9" class="node">
<title>DialogModule </title>
<polygon fill="#fb8072" stroke="#000000" points="202.6523,-252 101.3477,-252 101.3477,-216 202.6523,-216 202.6523,-252"/>
<text text-anchor="middle" x="152" y="-229.8" font-family="Times,serif" font-size="14.00" fill="#000000">DialogModule </text>
</g>
<!-- SharedCatanieModule&#45;&gt;DialogModule  -->
<g id="edge8" class="edge">
<title>SharedCatanieModule&#45;&gt;DialogModule </title>
<path fill="none" stroke="#000000" stroke-dasharray="5,2" d="M285.1833,-175C240.9618,-175 192.375,-175 192.375,-175 192.375,-175 192.375,-205.9775 192.375,-205.9775"/>
<polygon fill="#000000" stroke="#000000" points="188.8751,-205.9774 192.375,-215.9775 195.8751,-205.9775 188.8751,-205.9774"/>
</g>
<!-- ConfigService -->
<g id="node10" class="node">
<title>ConfigService</title>
<ellipse fill="#fdb462" stroke="#000000" cx="91" cy="-104" rx="66.6325" ry="18"/>
<text text-anchor="middle" x="91" y="-99.8" font-family="Times,serif" font-size="14.00" fill="#000000">ConfigService</text>
</g>
<!-- ConfigService&#45;&gt;SharedCatanieModule -->
<g id="edge9" class="edge">
<title>ConfigService&#45;&gt;SharedCatanieModule</title>
<path fill="none" stroke="#000000" d="M129.6199,-118.8882C129.6199,-136.3665 129.6199,-163 129.6199,-163 129.6199,-163 275.3031,-163 275.3031,-163"/>
<polygon fill="#000000" stroke="#000000" points="275.3032,-166.5001 285.3031,-163 275.3031,-159.5001 275.3032,-166.5001"/>
</g>
</g>
</svg>
