<?xml version="1.0" encoding="UTF-8" standalone="no"?>
<!DOCTYPE svg PUBLIC "-//W3C//DTD SVG 1.1//EN"
 "http://www.w3.org/Graphics/SVG/1.1/DTD/svg11.dtd">
<!-- Generated by graphviz version 2.40.1 (20161225.0304)
 -->
<!-- Title: dependencies Pages: 1 -->
<svg width="2629pt" height="284pt"
 viewBox="0.00 0.00 2629.00 284.00" xmlns="http://www.w3.org/2000/svg" xmlns:xlink="http://www.w3.org/1999/xlink">
<g id="graph0" class="graph" transform="scale(1 1) rotate(0) translate(4 280)">
<title>dependencies</title>
<polygon fill="#ffffff" stroke="transparent" points="-4,4 -4,-280 2625,-280 2625,4 -4,4"/>
<text text-anchor="start" x="1289.5091" y="-42.4" font-family="sans-serif" font-weight="bold" font-size="14.00" fill="#000000">Legend</text>
<polygon fill="#ffffb3" stroke="transparent" points="1076.5,-10 1076.5,-30 1096.5,-30 1096.5,-10 1076.5,-10"/>
<text text-anchor="start" x="1100.129" y="-15.4" font-family="sans-serif" font-size="14.00" fill="#000000"> &#160;Declarations</text>
<polygon fill="#8dd3c7" stroke="transparent" points="1189.5,-10 1189.5,-30 1209.5,-30 1209.5,-10 1189.5,-10"/>
<text text-anchor="start" x="1213.2251" y="-15.4" font-family="sans-serif" font-size="14.00" fill="#000000"> &#160;Module</text>
<polygon fill="#80b1d3" stroke="transparent" points="1275.5,-10 1275.5,-30 1295.5,-30 1295.5,-10 1275.5,-10"/>
<text text-anchor="start" x="1299.2812" y="-15.4" font-family="sans-serif" font-size="14.00" fill="#000000"> &#160;Bootstrap</text>
<polygon fill="#fdb462" stroke="transparent" points="1372.5,-10 1372.5,-30 1392.5,-30 1392.5,-10 1372.5,-10"/>
<text text-anchor="start" x="1396.1732" y="-15.4" font-family="sans-serif" font-size="14.00" fill="#000000"> &#160;Providers</text>
<polygon fill="#fb8072" stroke="transparent" points="1468.5,-10 1468.5,-30 1488.5,-30 1488.5,-10 1468.5,-10"/>
<text text-anchor="start" x="1492.2258" y="-15.4" font-family="sans-serif" font-size="14.00" fill="#000000"> &#160;Exports</text>
<g id="clust1" class="cluster">
<title>cluster_SharedCatanieModule</title>
<polygon fill="none" stroke="#000000" stroke-dasharray="1,5" points="8,-70 8,-268 2613,-268 2613,-70 8,-70"/>
</g>
<g id="clust2" class="cluster">
<title>cluster_SharedCatanieModule_declarations</title>
<polygon fill="none" stroke="#000000" points="1715,-78 1715,-130 2605,-130 2605,-78 1715,-78"/>
</g>
<g id="clust9" class="cluster">
<title>cluster_SharedCatanieModule_imports</title>
<polygon fill="none" stroke="#000000" points="342,-78 342,-130 1707,-130 1707,-78 342,-78"/>
</g>
<g id="clust10" class="cluster">
<title>cluster_SharedCatanieModule_exports</title>
<polygon fill="none" stroke="#000000" points="1034,-208 1034,-260 1556,-260 1556,-208 1034,-208"/>
</g>
<g id="clust12" class="cluster">
<title>cluster_SharedCatanieModule_providers</title>
<polygon fill="none" stroke="#000000" points="16,-78 16,-130 334,-130 334,-78 16,-78"/>
</g>
<!-- ConfigFormComponent -->
<g id="node1" class="node">
<title>ConfigFormComponent</title>
<polygon fill="#ffffb3" stroke="#000000" points="2597.0547,-122 2446.9453,-122 2446.9453,-86 2597.0547,-86 2597.0547,-122"/>
<text text-anchor="middle" x="2522" y="-99.8" font-family="Times,serif" font-size="14.00" fill="#000000">ConfigFormComponent</text>
</g>
<!-- SharedCatanieModule -->
<g id="node7" class="node">
<title>SharedCatanieModule</title>
<polygon fill="#8dd3c7" stroke="#000000" points="1365.6839,-187 1362.6839,-191 1341.6839,-191 1338.6839,-187 1224.3161,-187 1224.3161,-151 1365.6839,-151 1365.6839,-187"/>
<text text-anchor="middle" x="1295" y="-164.8" font-family="Times,serif" font-size="14.00" fill="#000000">SharedCatanieModule</text>
</g>
<!-- ConfigFormComponent&#45;&gt;SharedCatanieModule -->
<g id="edge1" class="edge">
<title>ConfigFormComponent&#45;&gt;SharedCatanieModule</title>
<path fill="none" stroke="#000000" d="M2522,-122.0109C2522,-144.4852 2522,-180 2522,-180 2522,-180 1375.8234,-180 1375.8234,-180"/>
<polygon fill="#000000" stroke="#000000" points="1375.8235,-176.5001 1365.8234,-180 1375.8234,-183.5001 1375.8235,-176.5001"/>
</g>
<!-- BreadcrumbComponent -->
<g id="node2" class="node">
<title>BreadcrumbComponent</title>
<polygon fill="#ffffb3" stroke="#000000" points="2428.0253,-122 2277.9747,-122 2277.9747,-86 2428.0253,-86 2428.0253,-122"/>
<text text-anchor="middle" x="2353" y="-99.8" font-family="Times,serif" font-size="14.00" fill="#000000">BreadcrumbComponent</text>
</g>
<!-- BreadcrumbComponent&#45;&gt;SharedCatanieModule -->
<g id="edge2" class="edge">
<title>BreadcrumbComponent&#45;&gt;SharedCatanieModule</title>
<path fill="none" stroke="#000000" d="M2353,-122.0449C2353,-143.6623 2353,-177 2353,-177 2353,-177 1375.6489,-177 1375.6489,-177"/>
<polygon fill="#000000" stroke="#000000" points="1375.649,-173.5001 1365.6489,-177 1375.6489,-180.5001 1375.649,-173.5001"/>
</g>
<!-- ErrorPageComponent -->
<g id="node3" class="node">
<title>ErrorPageComponent</title>
<polygon fill="#ffffb3" stroke="#000000" points="2260.0786,-122 2121.9214,-122 2121.9214,-86 2260.0786,-86 2260.0786,-122"/>
<text text-anchor="middle" x="2191" y="-99.8" font-family="Times,serif" font-size="14.00" fill="#000000">ErrorPageComponent</text>
</g>
<!-- ErrorPageComponent&#45;&gt;SharedCatanieModule -->
<g id="edge3" class="edge">
<title>ErrorPageComponent&#45;&gt;SharedCatanieModule</title>
<path fill="none" stroke="#000000" d="M2191,-122.1289C2191,-142.5724 2191,-173 2191,-173 2191,-173 1375.6817,-173 1375.6817,-173"/>
<polygon fill="#000000" stroke="#000000" points="1375.6817,-169.5001 1365.6817,-173 1375.6816,-176.5001 1375.6817,-169.5001"/>
</g>
<!-- DatasetsFilterComponent -->
<g id="node4" class="node">
<title>DatasetsFilterComponent</title>
<polygon fill="#ffffb3" stroke="#000000" points="2103.5828,-122 1944.4172,-122 1944.4172,-86 2103.5828,-86 2103.5828,-122"/>
<text text-anchor="middle" x="2024" y="-99.8" font-family="Times,serif" font-size="14.00" fill="#000000">DatasetsFilterComponent</text>
</g>
<!-- DatasetsFilterComponent&#45;&gt;SharedCatanieModule -->
<g id="edge4" class="edge">
<title>DatasetsFilterComponent&#45;&gt;SharedCatanieModule</title>
<path fill="none" stroke="#000000" d="M2024,-122.1061C2024,-141.3391 2024,-169 2024,-169 2024,-169 1375.8941,-169 1375.8941,-169"/>
<polygon fill="#000000" stroke="#000000" points="1375.8942,-165.5001 1365.8941,-169 1375.8941,-172.5001 1375.8942,-165.5001"/>
</g>
<!-- ObjKeysPipe -->
<g id="node5" class="node">
<title>ObjKeysPipe</title>
<polygon fill="#ffffb3" stroke="#000000" points="1926.1515,-122 1835.8485,-122 1835.8485,-86 1926.1515,-86 1926.1515,-122"/>
<text text-anchor="middle" x="1881" y="-99.8" font-family="Times,serif" font-size="14.00" fill="#000000">ObjKeysPipe</text>
</g>
<!-- ObjKeysPipe&#45;&gt;SharedCatanieModule -->
<g id="edge5" class="edge">
<title>ObjKeysPipe&#45;&gt;SharedCatanieModule</title>
<path fill="none" stroke="#000000" d="M1881,-122.2667C1881,-140.5552 1881,-166 1881,-166 1881,-166 1375.6853,-166 1375.6853,-166"/>
<polygon fill="#000000" stroke="#000000" points="1375.6853,-162.5001 1365.6853,-166 1375.6853,-169.5001 1375.6853,-162.5001"/>
</g>
<!-- TitleCasePipe -->
<g id="node6" class="node">
<title>TitleCasePipe</title>
<polygon fill="#ffffb3" stroke="#000000" points="1817.0383,-122 1722.9617,-122 1722.9617,-86 1817.0383,-86 1817.0383,-122"/>
<text text-anchor="middle" x="1770" y="-99.8" font-family="Times,serif" font-size="14.00" fill="#000000">TitleCasePipe</text>
</g>
<!-- TitleCasePipe&#45;&gt;SharedCatanieModule -->
<g id="edge6" class="edge">
<title>TitleCasePipe&#45;&gt;SharedCatanieModule</title>
<path fill="none" stroke="#000000" d="M1770,-122.0336C1770,-139.0597 1770,-162 1770,-162 1770,-162 1375.5994,-162 1375.5994,-162"/>
<polygon fill="#000000" stroke="#000000" points="1375.5994,-158.5001 1365.5994,-162 1375.5994,-165.5001 1375.5994,-158.5001"/>
</g>
<!-- ConfigFormComponent  -->
<g id="node18" class="node">
<title>ConfigFormComponent </title>
<polygon fill="#fb8072" stroke="#000000" points="1548.054,-252 1393.946,-252 1393.946,-216 1548.054,-216 1548.054,-252"/>
<text text-anchor="middle" x="1471" y="-229.8" font-family="Times,serif" font-size="14.00" fill="#000000">ConfigFormComponent </text>
</g>
<!-- SharedCatanieModule&#45;&gt;ConfigFormComponent  -->
<g id="edge17" class="edge">
<title>SharedCatanieModule&#45;&gt;ConfigFormComponent </title>
<path fill="none" stroke="#000000" stroke-dasharray="5,2" d="M1365.7404,-184C1396.2457,-184 1425.0626,-184 1425.0626,-184 1425.0626,-184 1425.0626,-205.9489 1425.0626,-205.9489"/>
<polygon fill="#000000" stroke="#000000" points="1421.5627,-205.9488 1425.0626,-215.9489 1428.5627,-205.9489 1421.5627,-205.9488"/>
</g>
<!-- DatasetsFilterComponent  -->
<g id="node19" class="node">
<title>DatasetsFilterComponent </title>
<polygon fill="#fb8072" stroke="#000000" points="1376.0833,-252 1213.9167,-252 1213.9167,-216 1376.0833,-216 1376.0833,-252"/>
<text text-anchor="middle" x="1295" y="-229.8" font-family="Times,serif" font-size="14.00" fill="#000000">DatasetsFilterComponent </text>
</g>
<!-- SharedCatanieModule&#45;&gt;DatasetsFilterComponent  -->
<g id="edge18" class="edge">
<title>SharedCatanieModule&#45;&gt;DatasetsFilterComponent </title>
<path fill="none" stroke="#000000" stroke-dasharray="5,2" d="M1295,-187.1061C1295,-187.1061 1295,-205.991 1295,-205.991"/>
<polygon fill="#000000" stroke="#000000" points="1291.5001,-205.9909 1295,-215.991 1298.5001,-205.991 1291.5001,-205.9909"/>
</g>
<!-- BreadcrumbComponent  -->
<g id="node20" class="node">
<title>BreadcrumbComponent </title>
<polygon fill="#fb8072" stroke="#000000" points="1196.0246,-252 1041.9754,-252 1041.9754,-216 1196.0246,-216 1196.0246,-252"/>
<text text-anchor="middle" x="1119" y="-229.8" font-family="Times,serif" font-size="14.00" fill="#000000">BreadcrumbComponent </text>
</g>
<!-- SharedCatanieModule&#45;&gt;BreadcrumbComponent  -->
<g id="edge19" class="edge">
<title>SharedCatanieModule&#45;&gt;BreadcrumbComponent </title>
<path fill="none" stroke="#000000" stroke-dasharray="5,2" d="M1224.0148,-184C1190.5495,-184 1157.8505,-184 1157.8505,-184 1157.8505,-184 1157.8505,-205.9489 1157.8505,-205.9489"/>
<polygon fill="#000000" stroke="#000000" points="1154.3505,-205.9488 1157.8505,-215.9489 1161.3505,-205.9489 1154.3505,-205.9488"/>
</g>
<!-- CommonModule -->
<g id="node8" class="node">
<title>CommonModule</title>
<polygon fill="#8dd3c7" stroke="#000000" points="1698.6681,-122 1695.6681,-126 1674.6681,-126 1671.6681,-122 1587.3319,-122 1587.3319,-86 1698.6681,-86 1698.6681,-122"/>
<text text-anchor="middle" x="1643" y="-99.8" font-family="Times,serif" font-size="14.00" fill="#000000">CommonModule</text>
</g>
<!-- CommonModule&#45;&gt;SharedCatanieModule -->
<g id="edge7" class="edge">
<title>CommonModule&#45;&gt;SharedCatanieModule</title>
<path fill="none" stroke="#000000" d="M1643,-122.0091C1643,-138.0494 1643,-159 1643,-159 1643,-159 1375.8425,-159 1375.8425,-159"/>
<polygon fill="#000000" stroke="#000000" points="1375.8425,-155.5001 1365.8425,-159 1375.8424,-162.5001 1375.8425,-155.5001"/>
</g>
<!-- FormsModule -->
<g id="node9" class="node">
<title>FormsModule</title>
<polygon fill="#8dd3c7" stroke="#000000" points="1569.8288,-122 1566.8288,-126 1545.8288,-126 1542.8288,-122 1474.1712,-122 1474.1712,-86 1569.8288,-86 1569.8288,-122"/>
<text text-anchor="middle" x="1522" y="-99.8" font-family="Times,serif" font-size="14.00" fill="#000000">FormsModule</text>
</g>
<!-- FormsModule&#45;&gt;SharedCatanieModule -->
<g id="edge8" class="edge">
<title>FormsModule&#45;&gt;SharedCatanieModule</title>
<path fill="none" stroke="#000000" d="M1511.1815,-122.1243C1511.1815,-136.7832 1511.1815,-155 1511.1815,-155 1511.1815,-155 1375.7859,-155 1375.7859,-155"/>
<polygon fill="#000000" stroke="#000000" points="1375.7859,-151.5001 1365.7859,-155 1375.7859,-158.5001 1375.7859,-151.5001"/>
</g>
<!-- ReactiveFormsModule -->
<g id="node10" class="node">
<title>ReactiveFormsModule</title>
<polygon fill="#8dd3c7" stroke="#000000" points="1456.3047,-122 1453.3047,-126 1432.3047,-126 1429.3047,-122 1311.6953,-122 1311.6953,-86 1456.3047,-86 1456.3047,-122"/>
<text text-anchor="middle" x="1384" y="-99.8" font-family="Times,serif" font-size="14.00" fill="#000000">ReactiveFormsModule</text>
</g>
<!-- ReactiveFormsModule&#45;&gt;SharedCatanieModule -->
<g id="edge9" class="edge">
<title>ReactiveFormsModule&#45;&gt;SharedCatanieModule</title>
<path fill="none" stroke="#000000" d="M1338.7199,-122.1061C1338.7199,-122.1061 1338.7199,-140.991 1338.7199,-140.991"/>
<polygon fill="#000000" stroke="#000000" points="1335.2199,-140.9909 1338.7199,-150.991 1342.2199,-140.991 1335.2199,-140.9909"/>
</g>
<!-- NguiDatetimePickerModule -->
<g id="node11" class="node">
<title>NguiDatetimePickerModule</title>
<polygon fill="#8dd3c7" stroke="#000000" points="1294.1232,-122 1291.1232,-126 1270.1232,-126 1267.1232,-122 1119.8768,-122 1119.8768,-86 1294.1232,-86 1294.1232,-122"/>
<text text-anchor="middle" x="1207" y="-99.8" font-family="Times,serif" font-size="14.00" fill="#000000">NguiDatetimePickerModule</text>
</g>
<!-- NguiDatetimePickerModule&#45;&gt;SharedCatanieModule -->
<g id="edge10" class="edge">
<title>NguiDatetimePickerModule&#45;&gt;SharedCatanieModule</title>
<path fill="none" stroke="#000000" d="M1259.3598,-122.1061C1259.3598,-122.1061 1259.3598,-140.991 1259.3598,-140.991"/>
<polygon fill="#000000" stroke="#000000" points="1255.8598,-140.9909 1259.3598,-150.991 1262.8598,-140.991 1255.8598,-140.9909"/>
</g>
<!-- TreeTableModule -->
<g id="node12" class="node">
<title>TreeTableModule</title>
<polygon fill="#8dd3c7" stroke="#000000" points="1101.5646,-122 1098.5646,-126 1077.5646,-126 1074.5646,-122 984.4354,-122 984.4354,-86 1101.5646,-86 1101.5646,-122"/>
<text text-anchor="middle" x="1043" y="-99.8" font-family="Times,serif" font-size="14.00" fill="#000000">TreeTableModule</text>
</g>
<!-- TreeTableModule&#45;&gt;SharedCatanieModule -->
<g id="edge11" class="edge">
<title>TreeTableModule&#45;&gt;SharedCatanieModule</title>
<path fill="none" stroke="#000000" d="M1071.76,-122.1243C1071.76,-136.7832 1071.76,-155 1071.76,-155 1071.76,-155 1214.3655,-155 1214.3655,-155"/>
<polygon fill="#000000" stroke="#000000" points="1214.3655,-158.5001 1224.3655,-155 1214.3654,-151.5001 1214.3655,-158.5001"/>
</g>
<!-- SharedModule -->
<g id="node13" class="node">
<title>SharedModule</title>
<polygon fill="#8dd3c7" stroke="#000000" points="966.4231,-122 963.4231,-126 942.4231,-126 939.4231,-122 867.5769,-122 867.5769,-86 966.4231,-86 966.4231,-122"/>
<text text-anchor="middle" x="917" y="-99.8" font-family="Times,serif" font-size="14.00" fill="#000000">SharedModule</text>
</g>
<!-- SharedModule&#45;&gt;SharedCatanieModule -->
<g id="edge12" class="edge">
<title>SharedModule&#45;&gt;SharedCatanieModule</title>
<path fill="none" stroke="#000000" d="M917,-122.0091C917,-138.0494 917,-159 917,-159 917,-159 1214.3445,-159 1214.3445,-159"/>
<polygon fill="#000000" stroke="#000000" points="1214.3446,-162.5001 1224.3445,-159 1214.3445,-155.5001 1214.3446,-162.5001"/>
</g>
<!-- TreeModule -->
<g id="node14" class="node">
<title>TreeModule</title>
<polygon fill="#8dd3c7" stroke="#000000" points="849.6924,-122 846.6924,-126 825.6924,-126 822.6924,-122 764.3076,-122 764.3076,-86 849.6924,-86 849.6924,-122"/>
<text text-anchor="middle" x="807" y="-99.8" font-family="Times,serif" font-size="14.00" fill="#000000">TreeModule</text>
</g>
<!-- TreeModule&#45;&gt;SharedCatanieModule -->
<g id="edge13" class="edge">
<title>TreeModule&#45;&gt;SharedCatanieModule</title>
<path fill="none" stroke="#000000" d="M807,-122.0336C807,-139.0597 807,-162 807,-162 807,-162 1214.3014,-162 1214.3014,-162"/>
<polygon fill="#000000" stroke="#000000" points="1214.3014,-165.5001 1224.3014,-162 1214.3013,-158.5001 1214.3014,-165.5001"/>
</g>
<!-- AutoCompleteModule -->
<g id="node15" class="node">
<title>AutoCompleteModule</title>
<polygon fill="#8dd3c7" stroke="#000000" points="745.9846,-122 742.9846,-126 721.9846,-126 718.9846,-122 604.0154,-122 604.0154,-86 745.9846,-86 745.9846,-122"/>
<text text-anchor="middle" x="675" y="-99.8" font-family="Times,serif" font-size="14.00" fill="#000000">AutoCompleteModule</text>
</g>
<!-- AutoCompleteModule&#45;&gt;SharedCatanieModule -->
<g id="edge14" class="edge">
<title>AutoCompleteModule&#45;&gt;SharedCatanieModule</title>
<path fill="none" stroke="#000000" d="M675,-122.2667C675,-140.5552 675,-166 675,-166 675,-166 1214.1802,-166 1214.1802,-166"/>
<polygon fill="#000000" stroke="#000000" points="1214.1802,-169.5001 1224.1802,-166 1214.1802,-162.5001 1214.1802,-169.5001"/>
</g>
<!-- DropdownModule -->
<g id="node16" class="node">
<title>DropdownModule</title>
<polygon fill="#8dd3c7" stroke="#000000" points="585.9244,-122 582.9244,-126 561.9244,-126 558.9244,-122 466.0756,-122 466.0756,-86 585.9244,-86 585.9244,-122"/>
<text text-anchor="middle" x="526" y="-99.8" font-family="Times,serif" font-size="14.00" fill="#000000">DropdownModule</text>
</g>
<!-- DropdownModule&#45;&gt;SharedCatanieModule -->
<g id="edge15" class="edge">
<title>DropdownModule&#45;&gt;SharedCatanieModule</title>
<path fill="none" stroke="#000000" d="M526,-122.1061C526,-141.3391 526,-169 526,-169 526,-169 1214.3756,-169 1214.3756,-169"/>
<polygon fill="#000000" stroke="#000000" points="1214.3756,-172.5001 1224.3756,-169 1214.3756,-165.5001 1214.3756,-172.5001"/>
</g>
<!-- RouterModule -->
<g id="node17" class="node">
<title>RouterModule</title>
<polygon fill="#8dd3c7" stroke="#000000" points="447.6528,-122 444.6528,-126 423.6528,-126 420.6528,-122 350.3472,-122 350.3472,-86 447.6528,-86 447.6528,-122"/>
<text text-anchor="middle" x="399" y="-99.8" font-family="Times,serif" font-size="14.00" fill="#000000">RouterModule</text>
</g>
<!-- RouterModule&#45;&gt;SharedCatanieModule -->
<g id="edge16" class="edge">
<title>RouterModule&#45;&gt;SharedCatanieModule</title>
<path fill="none" stroke="#000000" d="M399,-122.1289C399,-142.5724 399,-173 399,-173 399,-173 1214.3183,-173 1214.3183,-173"/>
<polygon fill="#000000" stroke="#000000" points="1214.3184,-176.5001 1224.3183,-173 1214.3183,-169.5001 1214.3184,-176.5001"/>
</g>
<!-- ConfigService -->
<g id="node21" class="node">
<title>ConfigService</title>
<ellipse fill="#fdb462" stroke="#000000" cx="259" cy="-104" rx="66.6325" ry="18"/>
<text text-anchor="middle" x="259" y="-99.8" font-family="Times,serif" font-size="14.00" fill="#000000">ConfigService</text>
</g>
<!-- ConfigService&#45;&gt;SharedCatanieModule -->
<g id="edge20" class="edge">
<title>ConfigService&#45;&gt;SharedCatanieModule</title>
<path fill="none" stroke="#000000" d="M259,-122.0449C259,-143.6623 259,-177 259,-177 259,-177 1214.1993,-177 1214.1993,-177"/>
<polygon fill="#000000" stroke="#000000" points="1214.1993,-180.5001 1224.1993,-177 1214.1992,-173.5001 1214.1993,-180.5001"/>
</g>
<!-- UserMsgService -->
<g id="node22" class="node">
<title>UserMsgService</title>
<ellipse fill="#fdb462" stroke="#000000" cx="99" cy="-104" rx="75.2771" ry="18"/>
<text text-anchor="middle" x="99" y="-99.8" font-family="Times,serif" font-size="14.00" fill="#000000">UserMsgService</text>
</g>
<!-- UserMsgService&#45;&gt;SharedCatanieModule -->
<g id="edge21" class="edge">
<title>UserMsgService&#45;&gt;SharedCatanieModule</title>
<path fill="none" stroke="#000000" d="M99,-122.0109C99,-144.4852 99,-180 99,-180 99,-180 1214.2088,-180 1214.2088,-180"/>
<polygon fill="#000000" stroke="#000000" points="1214.2088,-183.5001 1224.2088,-180 1214.2087,-176.5001 1214.2088,-183.5001"/>
</g>
</g>
</svg>
