<?xml version="1.0" encoding="UTF-8" standalone="no"?>
<!DOCTYPE svg PUBLIC "-//W3C//DTD SVG 1.1//EN"
 "http://www.w3.org/Graphics/SVG/1.1/DTD/svg11.dtd">
<!-- Generated by graphviz version 2.40.1 (20161225.0304)
 -->
<!-- Title: dependencies Pages: 1 -->
<svg width="1646pt" height="349pt"
 viewBox="0.00 0.00 1646.00 349.00" xmlns="http://www.w3.org/2000/svg" xmlns:xlink="http://www.w3.org/1999/xlink">
<g id="graph0" class="graph" transform="scale(1 1) rotate(0) translate(4 345)">
<title>dependencies</title>
<polygon fill="#ffffff" stroke="transparent" points="-4,4 -4,-345 1642,-345 1642,4 -4,4"/>
<text text-anchor="start" x="798.0091" y="-42.4" font-family="sans-serif" font-weight="bold" font-size="14.00" fill="#000000">Legend</text>
<polygon fill="#ffffb3" stroke="transparent" points="585,-10 585,-30 605,-30 605,-10 585,-10"/>
<text text-anchor="start" x="608.629" y="-15.4" font-family="sans-serif" font-size="14.00" fill="#000000"> &#160;Declarations</text>
<polygon fill="#8dd3c7" stroke="transparent" points="698,-10 698,-30 718,-30 718,-10 698,-10"/>
<text text-anchor="start" x="721.7251" y="-15.4" font-family="sans-serif" font-size="14.00" fill="#000000"> &#160;Module</text>
<polygon fill="#80b1d3" stroke="transparent" points="784,-10 784,-30 804,-30 804,-10 784,-10"/>
<text text-anchor="start" x="807.7812" y="-15.4" font-family="sans-serif" font-size="14.00" fill="#000000"> &#160;Bootstrap</text>
<polygon fill="#fdb462" stroke="transparent" points="881,-10 881,-30 901,-30 901,-10 881,-10"/>
<text text-anchor="start" x="904.6732" y="-15.4" font-family="sans-serif" font-size="14.00" fill="#000000"> &#160;Providers</text>
<polygon fill="#fb8072" stroke="transparent" points="977,-10 977,-30 997,-30 997,-10 977,-10"/>
<text text-anchor="start" x="1000.7258" y="-15.4" font-family="sans-serif" font-size="14.00" fill="#000000"> &#160;Exports</text>
<g id="clust1" class="cluster">
<title>cluster_AppModule</title>
<polygon fill="none" stroke="#000000" stroke-dasharray="1,5" points="8,-70 8,-333 1630,-333 1630,-70 8,-70"/>
</g>
<g id="clust2" class="cluster">
<title>cluster_AppModule_declarations</title>
<polygon fill="none" stroke="#000000" points="852,-143 852,-195 1610,-195 1610,-143 852,-143"/>
</g>
<g id="clust3" class="cluster">
<title>cluster_AppModule_AppComponent_providers</title>
<polygon fill="none" stroke="#000000" points="1507,-78 1507,-130 1611,-130 1611,-78 1507,-78"/>
</g>
<g id="clust8" class="cluster">
<title>cluster_AppModule_imports</title>
<polygon fill="none" stroke="#000000" points="306,-143 306,-195 844,-195 844,-143 306,-143"/>
</g>
<g id="clust10" class="cluster">
<title>cluster_AppModule_bootstrap</title>
<polygon fill="none" stroke="#000000" points="789,-273 789,-325 913,-325 913,-273 789,-273"/>
</g>
<g id="clust11" class="cluster">
<title>cluster_AppModule_providers</title>
<polygon fill="none" stroke="#000000" points="16,-143 16,-195 298,-195 298,-143 16,-143"/>
</g>
<!-- AppComponent -->
<g id="node1" class="node">
<title>AppComponent</title>
<polygon fill="#ffffb3" stroke="#000000" points="1601.9399,-187 1496.0601,-187 1496.0601,-151 1601.9399,-151 1601.9399,-187"/>
<text text-anchor="middle" x="1549" y="-164.8" font-family="Times,serif" font-size="14.00" fill="#000000">AppComponent</text>
</g>
<!-- AppModule -->
<g id="node6" class="node">
<title>AppModule</title>
<polygon fill="#8dd3c7" stroke="#000000" points="892.6571,-252 889.6571,-256 868.6571,-256 865.6571,-252 809.3429,-252 809.3429,-216 892.6571,-216 892.6571,-252"/>
<text text-anchor="middle" x="851" y="-229.8" font-family="Times,serif" font-size="14.00" fill="#000000">AppModule</text>
</g>
<!-- AppComponent&#45;&gt;AppModule -->
<g id="edge1" class="edge">
<title>AppComponent&#45;&gt;AppModule</title>
<path fill="none" stroke="#000000" d="M1549,-187.0109C1549,-209.4852 1549,-245 1549,-245 1549,-245 902.8316,-245 902.8316,-245"/>
<polygon fill="#000000" stroke="#000000" points="902.8316,-241.5001 892.8316,-245 902.8316,-248.5001 902.8316,-241.5001"/>
</g>
<!-- JobsComponent -->
<g id="node2" class="node">
<title>JobsComponent</title>
<polygon fill="#ffffb3" stroke="#000000" points="1478.2218,-187 1371.7782,-187 1371.7782,-151 1478.2218,-151 1478.2218,-187"/>
<text text-anchor="middle" x="1425" y="-164.8" font-family="Times,serif" font-size="14.00" fill="#000000">JobsComponent</text>
</g>
<!-- JobsComponent&#45;&gt;AppModule -->
<g id="edge3" class="edge">
<title>JobsComponent&#45;&gt;AppModule</title>
<path fill="none" stroke="#000000" d="M1425,-187.1289C1425,-207.5724 1425,-238 1425,-238 1425,-238 902.743,-238 902.743,-238"/>
<polygon fill="#000000" stroke="#000000" points="902.7431,-234.5001 892.743,-238 902.743,-241.5001 902.7431,-234.5001"/>
</g>
<!-- JobsTableComponent -->
<g id="node3" class="node">
<title>JobsTableComponent</title>
<polygon fill="#ffffb3" stroke="#000000" points="1354.094,-187 1215.906,-187 1215.906,-151 1354.094,-151 1354.094,-187"/>
<text text-anchor="middle" x="1285" y="-164.8" font-family="Times,serif" font-size="14.00" fill="#000000">JobsTableComponent</text>
</g>
<!-- JobsTableComponent&#45;&gt;AppModule -->
<g id="edge4" class="edge">
<title>JobsTableComponent&#45;&gt;AppModule</title>
<path fill="none" stroke="#000000" d="M1285,-187.2667C1285,-205.5552 1285,-231 1285,-231 1285,-231 903.0081,-231 903.0081,-231"/>
<polygon fill="#000000" stroke="#000000" points="903.0081,-227.5001 893.0081,-231 903.0081,-234.5001 903.0081,-227.5001"/>
</g>
<!-- SampleDataFormComponent -->
<g id="node4" class="node">
<title>SampleDataFormComponent</title>
<polygon fill="#ffffb3" stroke="#000000" points="1198.0856,-187 1017.9144,-187 1017.9144,-151 1198.0856,-151 1198.0856,-187"/>
<text text-anchor="middle" x="1108" y="-164.8" font-family="Times,serif" font-size="14.00" fill="#000000">SampleDataFormComponent</text>
</g>
<!-- SampleDataFormComponent&#45;&gt;AppModule -->
<g id="edge5" class="edge">
<title>SampleDataFormComponent&#45;&gt;AppModule</title>
<path fill="none" stroke="#000000" d="M1108,-187.0091C1108,-203.0494 1108,-224 1108,-224 1108,-224 902.8635,-224 902.8635,-224"/>
<polygon fill="#000000" stroke="#000000" points="902.8635,-220.5001 892.8635,-224 902.8634,-227.5001 902.8635,-220.5001"/>
</g>
<!-- JobsDetailComponent -->
<g id="node5" class="node">
<title>JobsDetailComponent</title>
<polygon fill="#ffffb3" stroke="#000000" points="1000.4299,-187 859.5701,-187 859.5701,-151 1000.4299,-151 1000.4299,-187"/>
<text text-anchor="middle" x="930" y="-164.8" font-family="Times,serif" font-size="14.00" fill="#000000">JobsDetailComponent</text>
</g>
<!-- JobsDetailComponent&#45;&gt;AppModule -->
<g id="edge6" class="edge">
<title>JobsDetailComponent&#45;&gt;AppModule</title>
<path fill="none" stroke="#000000" d="M876.3068,-187.1061C876.3068,-187.1061 876.3068,-205.991 876.3068,-205.991"/>
<polygon fill="#000000" stroke="#000000" points="872.8069,-205.9909 876.3068,-215.991 879.8069,-205.991 872.8069,-205.9909"/>
</g>
<!-- AppComponent  -->
<g id="node12" class="node">
<title>AppComponent </title>
<polygon fill="#80b1d3" stroke="#000000" points="905.439,-317 796.561,-317 796.561,-281 905.439,-281 905.439,-317"/>
<text text-anchor="middle" x="851" y="-294.8" font-family="Times,serif" font-size="14.00" fill="#000000">AppComponent </text>
</g>
<!-- AppModule&#45;&gt;AppComponent  -->
<g id="edge11" class="edge">
<title>AppModule&#45;&gt;AppComponent </title>
<path fill="none" stroke="#000000" stroke-dasharray="1,5" d="M851,-252.1061C851,-252.1061 851,-270.991 851,-270.991"/>
<polygon fill="#000000" stroke="#000000" points="847.5001,-270.9909 851,-280.991 854.5001,-270.991 847.5001,-270.9909"/>
</g>
<!-- UserApi -->
<g id="node7" class="node">
<title>UserApi</title>
<ellipse fill="#fdb462" stroke="#000000" cx="1559" cy="-104" rx="43.9983" ry="18"/>
<text text-anchor="middle" x="1559" y="-99.8" font-family="Times,serif" font-size="14.00" fill="#000000">UserApi</text>
</g>
<!-- UserApi&#45;&gt;AppComponent -->
<g id="edge2" class="edge">
<title>UserApi&#45;&gt;AppComponent</title>
<path fill="none" stroke="#000000" d="M1558.4855,-122.1061C1558.4855,-122.1061 1558.4855,-140.991 1558.4855,-140.991"/>
<polygon fill="#000000" stroke="#000000" points="1554.9856,-140.9909 1558.4855,-150.991 1561.9856,-140.991 1554.9856,-140.9909"/>
</g>
<!-- UserApi&#45;&gt;AppModule -->
<g id="edge14" class="edge">
<title>UserApi&#45;&gt;AppModule</title>
<path fill="none" stroke="#000000" d="M1515.0657,-104C1360.0704,-104 848.0863,-104 848.0863,-104 848.0863,-104 848.0863,-205.9241 848.0863,-205.9241"/>
<polygon fill="#000000" stroke="#000000" points="844.5863,-205.924 848.0863,-215.9241 851.5863,-205.9241 844.5863,-205.924"/>
</g>
<!-- AppRoutingModule -->
<g id="node8" class="node">
<title>AppRoutingModule</title>
<polygon fill="#8dd3c7" stroke="#000000" points="836.2744,-187 833.2744,-191 812.2744,-191 809.2744,-187 707.7256,-187 707.7256,-151 836.2744,-151 836.2744,-187"/>
<text text-anchor="middle" x="772" y="-164.8" font-family="Times,serif" font-size="14.00" fill="#000000">AppRoutingModule</text>
</g>
<!-- AppRoutingModule&#45;&gt;AppModule -->
<g id="edge7" class="edge">
<title>AppRoutingModule&#45;&gt;AppModule</title>
<path fill="none" stroke="#000000" d="M822.7795,-187.1061C822.7795,-187.1061 822.7795,-205.991 822.7795,-205.991"/>
<polygon fill="#000000" stroke="#000000" points="819.2795,-205.9909 822.7795,-215.991 826.2795,-205.991 819.2795,-205.9909"/>
</g>
<!-- SharedCatanieModule -->
<g id="node9" class="node">
<title>SharedCatanieModule</title>
<polygon fill="#8dd3c7" stroke="#000000" points="689.6839,-187 686.6839,-191 665.6839,-191 662.6839,-187 548.3161,-187 548.3161,-151 689.6839,-151 689.6839,-187"/>
<text text-anchor="middle" x="619" y="-164.8" font-family="Times,serif" font-size="14.00" fill="#000000">SharedCatanieModule</text>
</g>
<!-- SharedCatanieModule&#45;&gt;AppModule -->
<g id="edge8" class="edge">
<title>SharedCatanieModule&#45;&gt;AppModule</title>
<path fill="none" stroke="#000000" d="M619,-187.2396C619,-202.5706 619,-222 619,-222 619,-222 799.2551,-222 799.2551,-222"/>
<polygon fill="#000000" stroke="#000000" points="799.2551,-225.5001 809.2551,-222 799.2551,-218.5001 799.2551,-225.5001"/>
</g>
<!-- DatasetsModule -->
<g id="node10" class="node">
<title>DatasetsModule</title>
<polygon fill="#8dd3c7" stroke="#000000" points="530.4706,-187 527.4706,-191 506.4706,-191 503.4706,-187 423.5294,-187 423.5294,-151 530.4706,-151 530.4706,-187"/>
<text text-anchor="middle" x="477" y="-164.8" font-family="Times,serif" font-size="14.00" fill="#000000">DatasetsModule</text>
</g>
<!-- DatasetsModule&#45;&gt;AppModule -->
<g id="edge9" class="edge">
<title>DatasetsModule&#45;&gt;AppModule</title>
<path fill="none" stroke="#000000" d="M477,-187.0225C477,-204.3734 477,-228 477,-228 477,-228 799.1861,-228 799.1861,-228"/>
<polygon fill="#000000" stroke="#000000" points="799.1861,-231.5001 809.1861,-228 799.1861,-224.5001 799.1861,-231.5001"/>
</g>
<!-- UsersModule -->
<g id="node11" class="node">
<title>UsersModule</title>
<polygon fill="#8dd3c7" stroke="#000000" points="405.9218,-187 402.9218,-191 381.9218,-191 378.9218,-187 314.0782,-187 314.0782,-151 405.9218,-151 405.9218,-187"/>
<text text-anchor="middle" x="360" y="-164.8" font-family="Times,serif" font-size="14.00" fill="#000000">UsersModule</text>
</g>
<!-- UsersModule&#45;&gt;AppModule -->
<g id="edge10" class="edge">
<title>UsersModule&#45;&gt;AppModule</title>
<path fill="none" stroke="#000000" d="M360,-187.1061C360,-206.3391 360,-234 360,-234 360,-234 799.1376,-234 799.1376,-234"/>
<polygon fill="#000000" stroke="#000000" points="799.1377,-237.5001 809.1376,-234 799.1376,-230.5001 799.1377,-237.5001"/>
</g>
<!-- AuthCheck -->
<g id="node13" class="node">
<title>AuthCheck</title>
<ellipse fill="#fdb462" stroke="#000000" cx="235" cy="-169" rx="55.0381" ry="18"/>
<text text-anchor="middle" x="235" y="-164.8" font-family="Times,serif" font-size="14.00" fill="#000000">AuthCheck</text>
</g>
<!-- AuthCheck&#45;&gt;AppModule -->
<g id="edge12" class="edge">
<title>AuthCheck&#45;&gt;AppModule</title>
<path fill="none" stroke="#000000" d="M235,-187.2843C235,-208.3211 235,-240 235,-240 235,-240 799.1441,-240 799.1441,-240"/>
<polygon fill="#000000" stroke="#000000" points="799.1441,-243.5001 809.1441,-240 799.1441,-236.5001 799.1441,-243.5001"/>
</g>
<!-- DatasetService -->
<g id="node14" class="node">
<title>DatasetService</title>
<ellipse fill="#fdb462" stroke="#000000" cx="93" cy="-169" rx="68.8927" ry="18"/>
<text text-anchor="middle" x="93" y="-164.8" font-family="Times,serif" font-size="14.00" fill="#000000">DatasetService</text>
</g>
<!-- DatasetService&#45;&gt;AppModule -->
<g id="edge13" class="edge">
<title>DatasetService&#45;&gt;AppModule</title>
<path fill="none" stroke="#000000" d="M93,-187.2479C93,-210.0179 93,-246 93,-246 93,-246 799.1669,-246 799.1669,-246"/>
<polygon fill="#000000" stroke="#000000" points="799.167,-249.5001 809.1669,-246 799.1669,-242.5001 799.167,-249.5001"/>
</g>
</g>
</svg>
