<?xml version="1.0" encoding="UTF-8" standalone="no"?>
<!DOCTYPE svg PUBLIC "-//W3C//DTD SVG 1.1//EN"
 "http://www.w3.org/Graphics/SVG/1.1/DTD/svg11.dtd">
<!-- Generated by graphviz version 2.40.1 (20161225.0304)
 -->
<!-- Title: dependencies Pages: 1 -->
<svg width="1940pt" height="349pt"
 viewBox="0.00 0.00 1940.00 349.00" xmlns="http://www.w3.org/2000/svg" xmlns:xlink="http://www.w3.org/1999/xlink">
<g id="graph0" class="graph" transform="scale(1 1) rotate(0) translate(4 345)">
<title>dependencies</title>
<polygon fill="#ffffff" stroke="transparent" points="-4,4 -4,-345 1936,-345 1936,4 -4,4"/>
<text text-anchor="start" x="945.0091" y="-42.4" font-family="sans-serif" font-weight="bold" font-size="14.00" fill="#000000">Legend</text>
<polygon fill="#ffffb3" stroke="transparent" points="732,-10 732,-30 752,-30 752,-10 732,-10"/>
<text text-anchor="start" x="755.629" y="-15.4" font-family="sans-serif" font-size="14.00" fill="#000000"> &#160;Declarations</text>
<polygon fill="#8dd3c7" stroke="transparent" points="845,-10 845,-30 865,-30 865,-10 845,-10"/>
<text text-anchor="start" x="868.7251" y="-15.4" font-family="sans-serif" font-size="14.00" fill="#000000"> &#160;Module</text>
<polygon fill="#80b1d3" stroke="transparent" points="931,-10 931,-30 951,-30 951,-10 931,-10"/>
<text text-anchor="start" x="954.7812" y="-15.4" font-family="sans-serif" font-size="14.00" fill="#000000"> &#160;Bootstrap</text>
<polygon fill="#fdb462" stroke="transparent" points="1028,-10 1028,-30 1048,-30 1048,-10 1028,-10"/>
<text text-anchor="start" x="1051.6732" y="-15.4" font-family="sans-serif" font-size="14.00" fill="#000000"> &#160;Providers</text>
<polygon fill="#fb8072" stroke="transparent" points="1124,-10 1124,-30 1144,-30 1144,-10 1124,-10"/>
<text text-anchor="start" x="1147.7258" y="-15.4" font-family="sans-serif" font-size="14.00" fill="#000000"> &#160;Exports</text>
<g id="clust1" class="cluster">
<title>cluster_AppModule</title>
<polygon fill="none" stroke="#000000" stroke-dasharray="1,5" points="8,-70 8,-333 1924,-333 1924,-70 8,-70"/>
</g>
<g id="clust2" class="cluster">
<title>cluster_AppModule_declarations</title>
<polygon fill="none" stroke="#000000" points="1146,-143 1146,-195 1904,-195 1904,-143 1146,-143"/>
</g>
<g id="clust3" class="cluster">
<title>cluster_AppModule_AppComponent_providers</title>
<polygon fill="none" stroke="#000000" points="1801,-78 1801,-130 1905,-130 1905,-78 1801,-78"/>
</g>
<g id="clust8" class="cluster">
<title>cluster_AppModule_imports</title>
<polygon fill="none" stroke="#000000" points="460,-143 460,-195 1138,-195 1138,-143 460,-143"/>
</g>
<g id="clust10" class="cluster">
<title>cluster_AppModule_bootstrap</title>
<polygon fill="none" stroke="#000000" points="927,-273 927,-325 1051,-325 1051,-273 927,-273"/>
</g>
<g id="clust11" class="cluster">
<title>cluster_AppModule_providers</title>
<polygon fill="none" stroke="#000000" points="16,-143 16,-195 452,-195 452,-143 16,-143"/>
</g>
<!-- AppComponent -->
<g id="node1" class="node">
<title>AppComponent</title>
<polygon fill="#ffffb3" stroke="#000000" points="1895.9399,-187 1790.0601,-187 1790.0601,-151 1895.9399,-151 1895.9399,-187"/>
<text text-anchor="middle" x="1843" y="-164.8" font-family="Times,serif" font-size="14.00" fill="#000000">AppComponent</text>
</g>
<!-- AppModule -->
<g id="node6" class="node">
<title>AppModule</title>
<polygon fill="#8dd3c7" stroke="#000000" points="1030.6571,-252 1027.6571,-256 1006.6571,-256 1003.6571,-252 947.3429,-252 947.3429,-216 1030.6571,-216 1030.6571,-252"/>
<text text-anchor="middle" x="989" y="-229.8" font-family="Times,serif" font-size="14.00" fill="#000000">AppModule</text>
</g>
<!-- AppComponent&#45;&gt;AppModule -->
<g id="edge1" class="edge">
<title>AppComponent&#45;&gt;AppModule</title>
<path fill="none" stroke="#000000" d="M1843,-187.2479C1843,-210.0179 1843,-246 1843,-246 1843,-246 1040.7683,-246 1040.7683,-246"/>
<polygon fill="#000000" stroke="#000000" points="1040.7683,-242.5001 1030.7683,-246 1040.7683,-249.5001 1040.7683,-242.5001"/>
</g>
<!-- JobsComponent -->
<g id="node2" class="node">
<title>JobsComponent</title>
<polygon fill="#ffffb3" stroke="#000000" points="1772.2218,-187 1665.7782,-187 1665.7782,-151 1772.2218,-151 1772.2218,-187"/>
<text text-anchor="middle" x="1719" y="-164.8" font-family="Times,serif" font-size="14.00" fill="#000000">JobsComponent</text>
</g>
<!-- JobsComponent&#45;&gt;AppModule -->
<g id="edge3" class="edge">
<title>JobsComponent&#45;&gt;AppModule</title>
<path fill="none" stroke="#000000" d="M1719,-187.2843C1719,-208.3211 1719,-240 1719,-240 1719,-240 1040.8699,-240 1040.8699,-240"/>
<polygon fill="#000000" stroke="#000000" points="1040.8699,-236.5001 1030.8699,-240 1040.8699,-243.5001 1040.8699,-236.5001"/>
</g>
<!-- JobsTableComponent -->
<g id="node3" class="node">
<title>JobsTableComponent</title>
<polygon fill="#ffffb3" stroke="#000000" points="1648.094,-187 1509.906,-187 1509.906,-151 1648.094,-151 1648.094,-187"/>
<text text-anchor="middle" x="1579" y="-164.8" font-family="Times,serif" font-size="14.00" fill="#000000">JobsTableComponent</text>
</g>
<!-- JobsTableComponent&#45;&gt;AppModule -->
<g id="edge4" class="edge">
<title>JobsTableComponent&#45;&gt;AppModule</title>
<path fill="none" stroke="#000000" d="M1579,-187.1061C1579,-206.3391 1579,-234 1579,-234 1579,-234 1040.9584,-234 1040.9584,-234"/>
<polygon fill="#000000" stroke="#000000" points="1040.9584,-230.5001 1030.9584,-234 1040.9583,-237.5001 1040.9584,-230.5001"/>
</g>
<!-- SampleDataFormComponent -->
<g id="node4" class="node">
<title>SampleDataFormComponent</title>
<polygon fill="#ffffb3" stroke="#000000" points="1492.0856,-187 1311.9144,-187 1311.9144,-151 1492.0856,-151 1492.0856,-187"/>
<text text-anchor="middle" x="1402" y="-164.8" font-family="Times,serif" font-size="14.00" fill="#000000">SampleDataFormComponent</text>
</g>
<!-- SampleDataFormComponent&#45;&gt;AppModule -->
<g id="edge5" class="edge">
<title>SampleDataFormComponent&#45;&gt;AppModule</title>
<path fill="none" stroke="#000000" d="M1402,-187.0225C1402,-204.3734 1402,-228 1402,-228 1402,-228 1040.8735,-228 1040.8735,-228"/>
<polygon fill="#000000" stroke="#000000" points="1040.8735,-224.5001 1030.8735,-228 1040.8734,-231.5001 1040.8735,-224.5001"/>
</g>
<!-- JobsDetailComponent -->
<g id="node5" class="node">
<title>JobsDetailComponent</title>
<polygon fill="#ffffb3" stroke="#000000" points="1294.4299,-187 1153.5701,-187 1153.5701,-151 1294.4299,-151 1294.4299,-187"/>
<text text-anchor="middle" x="1224" y="-164.8" font-family="Times,serif" font-size="14.00" fill="#000000">JobsDetailComponent</text>
</g>
<!-- JobsDetailComponent&#45;&gt;AppModule -->
<g id="edge6" class="edge">
<title>JobsDetailComponent&#45;&gt;AppModule</title>
<path fill="none" stroke="#000000" d="M1224,-187.2396C1224,-202.5706 1224,-222 1224,-222 1224,-222 1040.7425,-222 1040.7425,-222"/>
<polygon fill="#000000" stroke="#000000" points="1040.7425,-218.5001 1030.7425,-222 1040.7425,-225.5001 1040.7425,-218.5001"/>
</g>
<!-- AppComponent  -->
<g id="node13" class="node">
<title>AppComponent </title>
<polygon fill="#80b1d3" stroke="#000000" points="1043.439,-317 934.561,-317 934.561,-281 1043.439,-281 1043.439,-317"/>
<text text-anchor="middle" x="989" y="-294.8" font-family="Times,serif" font-size="14.00" fill="#000000">AppComponent </text>
</g>
<!-- AppModule&#45;&gt;AppComponent  -->
<g id="edge12" class="edge">
<title>AppModule&#45;&gt;AppComponent </title>
<path fill="none" stroke="#000000" stroke-dasharray="1,5" d="M989,-252.1061C989,-252.1061 989,-270.991 989,-270.991"/>
<polygon fill="#000000" stroke="#000000" points="985.5001,-270.9909 989,-280.991 992.5001,-270.991 985.5001,-270.9909"/>
</g>
<!-- UserApi -->
<g id="node7" class="node">
<title>UserApi</title>
<ellipse fill="#fdb462" stroke="#000000" cx="1853" cy="-104" rx="43.9983" ry="18"/>
<text text-anchor="middle" x="1853" y="-99.8" font-family="Times,serif" font-size="14.00" fill="#000000">UserApi</text>
</g>
<!-- UserApi&#45;&gt;AppComponent -->
<g id="edge2" class="edge">
<title>UserApi&#45;&gt;AppComponent</title>
<path fill="none" stroke="#000000" d="M1852.4855,-122.1061C1852.4855,-122.1061 1852.4855,-140.991 1852.4855,-140.991"/>
<polygon fill="#000000" stroke="#000000" points="1848.9856,-140.9909 1852.4855,-150.991 1855.9856,-140.991 1848.9856,-140.9909"/>
</g>
<!-- UserApi&#45;&gt;AppModule -->
<g id="edge16" class="edge">
<title>UserApi&#45;&gt;AppModule</title>
<path fill="none" stroke="#000000" d="M1809.1499,-104C1633.8176,-104 992.6024,-104 992.6024,-104 992.6024,-104 992.6024,-205.9241 992.6024,-205.9241"/>
<polygon fill="#000000" stroke="#000000" points="989.1025,-205.924 992.6024,-215.9241 996.1025,-205.9241 989.1025,-205.924"/>
</g>
<!-- AppRoutingModule -->
<g id="node8" class="node">
<title>AppRoutingModule</title>
<polygon fill="#8dd3c7" stroke="#000000" points="1130.2744,-187 1127.2744,-191 1106.2744,-191 1103.2744,-187 1001.7256,-187 1001.7256,-151 1130.2744,-151 1130.2744,-187"/>
<text text-anchor="middle" x="1066" y="-164.8" font-family="Times,serif" font-size="14.00" fill="#000000">AppRoutingModule</text>
</g>
<!-- AppRoutingModule&#45;&gt;AppModule -->
<g id="edge7" class="edge">
<title>AppRoutingModule&#45;&gt;AppModule</title>
<path fill="none" stroke="#000000" d="M1016.2206,-187.1061C1016.2206,-187.1061 1016.2206,-205.991 1016.2206,-205.991"/>
<polygon fill="#000000" stroke="#000000" points="1012.7206,-205.9909 1016.2206,-215.991 1019.7206,-205.991 1012.7206,-205.9909"/>
</g>
<!-- SharedCatanieModule -->
<g id="node9" class="node">
<title>SharedCatanieModule</title>
<polygon fill="#8dd3c7" stroke="#000000" points="983.6839,-187 980.6839,-191 959.6839,-191 956.6839,-187 842.3161,-187 842.3161,-151 983.6839,-151 983.6839,-187"/>
<text text-anchor="middle" x="913" y="-164.8" font-family="Times,serif" font-size="14.00" fill="#000000">SharedCatanieModule</text>
</g>
<!-- SharedCatanieModule&#45;&gt;AppModule -->
<g id="edge8" class="edge">
<title>SharedCatanieModule&#45;&gt;AppModule</title>
<path fill="none" stroke="#000000" d="M965.3819,-187.1061C965.3819,-187.1061 965.3819,-205.991 965.3819,-205.991"/>
<polygon fill="#000000" stroke="#000000" points="961.8819,-205.9909 965.3819,-215.991 968.8819,-205.991 961.8819,-205.9909"/>
</g>
<!-- DatasetsModule -->
<g id="node10" class="node">
<title>DatasetsModule</title>
<polygon fill="#8dd3c7" stroke="#000000" points="824.4706,-187 821.4706,-191 800.4706,-191 797.4706,-187 717.5294,-187 717.5294,-151 824.4706,-151 824.4706,-187"/>
<text text-anchor="middle" x="771" y="-164.8" font-family="Times,serif" font-size="14.00" fill="#000000">DatasetsModule</text>
</g>
<!-- DatasetsModule&#45;&gt;AppModule -->
<g id="edge9" class="edge">
<title>DatasetsModule&#45;&gt;AppModule</title>
<path fill="none" stroke="#000000" d="M771,-187.2396C771,-202.5706 771,-222 771,-222 771,-222 937.2253,-222 937.2253,-222"/>
<polygon fill="#000000" stroke="#000000" points="937.2254,-225.5001 947.2253,-222 937.2253,-218.5001 937.2254,-225.5001"/>
</g>
<!-- UsersModule -->
<g id="node11" class="node">
<title>UsersModule</title>
<polygon fill="#8dd3c7" stroke="#000000" points="699.9218,-187 696.9218,-191 675.9218,-191 672.9218,-187 608.0782,-187 608.0782,-151 699.9218,-151 699.9218,-187"/>
<text text-anchor="middle" x="654" y="-164.8" font-family="Times,serif" font-size="14.00" fill="#000000">UsersModule</text>
</g>
<!-- UsersModule&#45;&gt;AppModule -->
<g id="edge10" class="edge">
<title>UsersModule&#45;&gt;AppModule</title>
<path fill="none" stroke="#000000" d="M654,-187.0336C654,-204.0597 654,-227 654,-227 654,-227 937.2494,-227 937.2494,-227"/>
<polygon fill="#000000" stroke="#000000" points="937.2494,-230.5001 947.2494,-227 937.2493,-223.5001 937.2494,-230.5001"/>
</g>
<!-- AppConfigModule -->
<g id="node12" class="node">
<title>AppConfigModule</title>
<polygon fill="#8dd3c7" stroke="#000000" points="590.045,-187 587.045,-191 566.045,-191 563.045,-187 467.955,-187 467.955,-151 590.045,-151 590.045,-187"/>
<text text-anchor="middle" x="529" y="-164.8" font-family="Times,serif" font-size="14.00" fill="#000000">AppConfigModule</text>
</g>
<!-- AppConfigModule&#45;&gt;AppModule -->
<g id="edge11" class="edge">
<title>AppConfigModule&#45;&gt;AppModule</title>
<path fill="none" stroke="#000000" d="M529,-187.2222C529,-205.8285 529,-232 529,-232 529,-232 936.9586,-232 936.9586,-232"/>
<polygon fill="#000000" stroke="#000000" points="936.9587,-235.5001 946.9586,-232 936.9586,-228.5001 936.9587,-235.5001"/>
</g>
<!-- AuthCheck -->
<g id="node14" class="node">
<title>AuthCheck</title>
<ellipse fill="#fdb462" stroke="#000000" cx="389" cy="-169" rx="55.0381" ry="18"/>
<text text-anchor="middle" x="389" y="-164.8" font-family="Times,serif" font-size="14.00" fill="#000000">AuthCheck</text>
</g>
<!-- AuthCheck&#45;&gt;AppModule -->
<g id="edge13" class="edge">
<title>AuthCheck&#45;&gt;AppModule</title>
<path fill="none" stroke="#000000" d="M389,-187.2228C389,-207.3652 389,-237 389,-237 389,-237 937.2855,-237 937.2855,-237"/>
<polygon fill="#000000" stroke="#000000" points="937.2856,-240.5001 947.2855,-237 937.2855,-233.5001 937.2856,-240.5001"/>
</g>
<!-- DatasetService -->
<g id="node15" class="node">
<title>DatasetService</title>
<ellipse fill="#fdb462" stroke="#000000" cx="247" cy="-169" rx="68.8927" ry="18"/>
<text text-anchor="middle" x="247" y="-164.8" font-family="Times,serif" font-size="14.00" fill="#000000">DatasetService</text>
</g>
<!-- DatasetService&#45;&gt;AppModule -->
<g id="edge14" class="edge">
<title>DatasetService&#45;&gt;AppModule</title>
<path fill="none" stroke="#000000" d="M247,-187.0449C247,-208.6623 247,-242 247,-242 247,-242 937.2493,-242 937.2493,-242"/>
<polygon fill="#000000" stroke="#000000" points="937.2493,-245.5001 947.2493,-242 937.2492,-238.5001 937.2493,-245.5001"/>
</g>
<!-- ParamsService -->
<g id="node16" class="node">
<title>ParamsService</title>
<ellipse fill="#fdb462" stroke="#000000" cx="92" cy="-169" rx="68.3324" ry="18"/>
<text text-anchor="middle" x="92" y="-164.8" font-family="Times,serif" font-size="14.00" fill="#000000">ParamsService</text>
</g>
<!-- ParamsService&#45;&gt;AppModule -->
<g id="edge15" class="edge">
<title>ParamsService&#45;&gt;AppModule</title>
<path fill="none" stroke="#000000" d="M92,-187.0908C92,-210.1328 92,-247 92,-247 92,-247 937.2374,-247 937.2374,-247"/>
<polygon fill="#000000" stroke="#000000" points="937.2374,-250.5001 947.2374,-247 937.2373,-243.5001 937.2374,-250.5001"/>
</g>
</g>
</svg>
