<?xml version="1.0" encoding="UTF-8" standalone="no"?>
<!DOCTYPE svg PUBLIC "-//W3C//DTD SVG 1.1//EN"
 "http://www.w3.org/Graphics/SVG/1.1/DTD/svg11.dtd">
<!-- Generated by graphviz version 2.40.1 (20161225.0304)
 -->
<!-- Title: dependencies Pages: 1 -->
<svg width="4236pt" height="349pt"
 viewBox="0.00 0.00 4236.00 349.00" xmlns="http://www.w3.org/2000/svg" xmlns:xlink="http://www.w3.org/1999/xlink">
<g id="graph0" class="graph" transform="scale(1 1) rotate(0) translate(4 345)">
<title>dependencies</title>
<polygon fill="#ffffff" stroke="transparent" points="-4,4 -4,-345 4232,-345 4232,4 -4,4"/>
<text text-anchor="start" x="2093.0091" y="-42.4" font-family="sans-serif" font-weight="bold" font-size="14.00" fill="#000000">Legend</text>
<polygon fill="#ffffb3" stroke="transparent" points="1880,-10 1880,-30 1900,-30 1900,-10 1880,-10"/>
<text text-anchor="start" x="1903.629" y="-15.4" font-family="sans-serif" font-size="14.00" fill="#000000"> &#160;Declarations</text>
<polygon fill="#8dd3c7" stroke="transparent" points="1993,-10 1993,-30 2013,-30 2013,-10 1993,-10"/>
<text text-anchor="start" x="2016.7251" y="-15.4" font-family="sans-serif" font-size="14.00" fill="#000000"> &#160;Module</text>
<polygon fill="#80b1d3" stroke="transparent" points="2079,-10 2079,-30 2099,-30 2099,-10 2079,-10"/>
<text text-anchor="start" x="2102.7812" y="-15.4" font-family="sans-serif" font-size="14.00" fill="#000000"> &#160;Bootstrap</text>
<polygon fill="#fdb462" stroke="transparent" points="2176,-10 2176,-30 2196,-30 2196,-10 2176,-10"/>
<text text-anchor="start" x="2199.6732" y="-15.4" font-family="sans-serif" font-size="14.00" fill="#000000"> &#160;Providers</text>
<polygon fill="#fb8072" stroke="transparent" points="2272,-10 2272,-30 2292,-30 2292,-10 2272,-10"/>
<text text-anchor="start" x="2295.7258" y="-15.4" font-family="sans-serif" font-size="14.00" fill="#000000"> &#160;Exports</text>
<g id="clust1" class="cluster">
<title>cluster_AppModule</title>
<polygon fill="none" stroke="#000000" stroke-dasharray="1,5" points="8,-70 8,-333 4220,-333 4220,-70 8,-70"/>
</g>
<g id="clust2" class="cluster">
<title>cluster_AppModule_declarations</title>
<polygon fill="none" stroke="#000000" points="3592,-143 3592,-195 4200,-195 4200,-143 3592,-143"/>
</g>
<g id="clust3" class="cluster">
<title>cluster_AppModule_AppComponent_providers</title>
<polygon fill="none" stroke="#000000" points="4097,-78 4097,-130 4201,-130 4201,-78 4097,-78"/>
</g>
<g id="clust7" class="cluster">
<title>cluster_AppModule_imports</title>
<polygon fill="none" stroke="#000000" points="306,-143 306,-195 3584,-195 3584,-143 306,-143"/>
</g>
<g id="clust9" class="cluster">
<title>cluster_AppModule_bootstrap</title>
<polygon fill="none" stroke="#000000" points="2320,-273 2320,-325 2444,-325 2444,-273 2320,-273"/>
</g>
<g id="clust10" class="cluster">
<title>cluster_AppModule_providers</title>
<polygon fill="none" stroke="#000000" points="16,-143 16,-195 298,-195 298,-143 16,-143"/>
</g>
<!-- AppComponent -->
<g id="node1" class="node">
<title>AppComponent</title>
<polygon fill="#ffffb3" stroke="#000000" points="4191.9399,-187 4086.0601,-187 4086.0601,-151 4191.9399,-151 4191.9399,-187"/>
<text text-anchor="middle" x="4139" y="-164.8" font-family="Times,serif" font-size="14.00" fill="#000000">AppComponent</text>
</g>
<!-- AppModule -->
<g id="node5" class="node">
<title>AppModule</title>
<polygon fill="#8dd3c7" stroke="#000000" points="2423.6571,-252 2420.6571,-256 2399.6571,-256 2396.6571,-252 2340.3429,-252 2340.3429,-216 2423.6571,-216 2423.6571,-252"/>
<text text-anchor="middle" x="2382" y="-229.8" font-family="Times,serif" font-size="14.00" fill="#000000">AppModule</text>
</g>
<!-- AppComponent&#45;&gt;AppModule -->
<g id="edge1" class="edge">
<title>AppComponent&#45;&gt;AppModule</title>
<path fill="none" stroke="#000000" d="M4139,-187.3802C4139,-211.2785 4139,-250 4139,-250 4139,-250 2433.6987,-250 2433.6987,-250"/>
<polygon fill="#000000" stroke="#000000" points="2433.6988,-246.5001 2423.6987,-250 2433.6987,-253.5001 2433.6988,-246.5001"/>
</g>
<!-- EndOfShiftComponent -->
<g id="node2" class="node">
<title>EndOfShiftComponent</title>
<polygon fill="#ffffb3" stroke="#000000" points="4067.8767,-187 3922.1233,-187 3922.1233,-151 4067.8767,-151 4067.8767,-187"/>
<text text-anchor="middle" x="3995" y="-164.8" font-family="Times,serif" font-size="14.00" fill="#000000">EndOfShiftComponent</text>
</g>
<!-- EndOfShiftComponent&#45;&gt;AppModule -->
<g id="edge3" class="edge">
<title>EndOfShiftComponent&#45;&gt;AppModule</title>
<path fill="none" stroke="#000000" d="M3995,-187.3228C3995,-210.6602 3995,-248 3995,-248 3995,-248 2433.903,-248 2433.903,-248"/>
<polygon fill="#000000" stroke="#000000" points="2433.903,-244.5001 2423.903,-248 2433.9029,-251.5001 2433.903,-244.5001"/>
</g>
<!-- JobsComponent -->
<g id="node3" class="node">
<title>JobsComponent</title>
<polygon fill="#ffffb3" stroke="#000000" points="3904.2218,-187 3797.7782,-187 3797.7782,-151 3904.2218,-151 3904.2218,-187"/>
<text text-anchor="middle" x="3851" y="-164.8" font-family="Times,serif" font-size="14.00" fill="#000000">JobsComponent</text>
</g>
<!-- JobsComponent&#45;&gt;AppModule -->
<g id="edge4" class="edge">
<title>JobsComponent&#45;&gt;AppModule</title>
<path fill="none" stroke="#000000" d="M3851,-187.2921C3851,-209.2057 3851,-243 3851,-243 3851,-243 2433.9882,-243 2433.9882,-243"/>
<polygon fill="#000000" stroke="#000000" points="2433.9882,-239.5001 2423.9882,-243 2433.9882,-246.5001 2433.9882,-239.5001"/>
</g>
<!-- SampleDataFormComponent -->
<g id="node4" class="node">
<title>SampleDataFormComponent</title>
<polygon fill="#ffffb3" stroke="#000000" points="3780.0856,-187 3599.9144,-187 3599.9144,-151 3780.0856,-151 3780.0856,-187"/>
<text text-anchor="middle" x="3690" y="-164.8" font-family="Times,serif" font-size="14.00" fill="#000000">SampleDataFormComponent</text>
</g>
<!-- SampleDataFormComponent&#45;&gt;AppModule -->
<g id="edge5" class="edge">
<title>SampleDataFormComponent&#45;&gt;AppModule</title>
<path fill="none" stroke="#000000" d="M3690,-187.2843C3690,-208.3211 3690,-240 3690,-240 3690,-240 2433.6714,-240 2433.6714,-240"/>
<polygon fill="#000000" stroke="#000000" points="2433.6714,-236.5001 2423.6714,-240 2433.6713,-243.5001 2433.6714,-236.5001"/>
</g>
<!-- AppComponent  -->
<g id="node29" class="node">
<title>AppComponent </title>
<polygon fill="#80b1d3" stroke="#000000" points="2436.439,-317 2327.561,-317 2327.561,-281 2436.439,-281 2436.439,-317"/>
<text text-anchor="middle" x="2382" y="-294.8" font-family="Times,serif" font-size="14.00" fill="#000000">AppComponent </text>
</g>
<!-- AppModule&#45;&gt;AppComponent  -->
<g id="edge28" class="edge">
<title>AppModule&#45;&gt;AppComponent </title>
<path fill="none" stroke="#000000" stroke-dasharray="1,5" d="M2382,-252.1061C2382,-252.1061 2382,-270.991 2382,-270.991"/>
<polygon fill="#000000" stroke="#000000" points="2378.5001,-270.9909 2382,-280.991 2385.5001,-270.991 2378.5001,-270.9909"/>
</g>
<!-- UserApi -->
<g id="node6" class="node">
<title>UserApi</title>
<ellipse fill="#fdb462" stroke="#000000" cx="4149" cy="-104" rx="43.9983" ry="18"/>
<text text-anchor="middle" x="4149" y="-99.8" font-family="Times,serif" font-size="14.00" fill="#000000">UserApi</text>
</g>
<!-- UserApi&#45;&gt;AppComponent -->
<g id="edge2" class="edge">
<title>UserApi&#45;&gt;AppComponent</title>
<path fill="none" stroke="#000000" d="M4148.4855,-122.1061C4148.4855,-122.1061 4148.4855,-140.991 4148.4855,-140.991"/>
<polygon fill="#000000" stroke="#000000" points="4144.9856,-140.9909 4148.4855,-150.991 4151.9856,-140.991 4144.9856,-140.9909"/>
</g>
<!-- UserApi&#45;&gt;AppModule -->
<g id="edge31" class="edge">
<title>UserApi&#45;&gt;AppModule</title>
<path fill="none" stroke="#000000" d="M4105.1793,-104C4036.9548,-104 3913.0863,-104 3913.0863,-104 3913.0863,-104 3913.0863,-245 3913.0863,-245 3913.0863,-245 2433.7469,-245 2433.7469,-245"/>
<polygon fill="#000000" stroke="#000000" points="2433.747,-241.5001 2423.7469,-245 2433.7469,-248.5001 2433.747,-241.5001"/>
</g>
<!-- AppRoutingModule -->
<g id="node7" class="node">
<title>AppRoutingModule</title>
<polygon fill="#8dd3c7" stroke="#000000" points="3576.2744,-187 3573.2744,-191 3552.2744,-191 3549.2744,-187 3447.7256,-187 3447.7256,-151 3576.2744,-151 3576.2744,-187"/>
<text text-anchor="middle" x="3512" y="-164.8" font-family="Times,serif" font-size="14.00" fill="#000000">AppRoutingModule</text>
</g>
<!-- AppRoutingModule&#45;&gt;AppModule -->
<g id="edge6" class="edge">
<title>AppRoutingModule&#45;&gt;AppModule</title>
<path fill="none" stroke="#000000" d="M3512,-187.1289C3512,-207.5724 3512,-238 3512,-238 3512,-238 2433.8956,-238 2433.8956,-238"/>
<polygon fill="#000000" stroke="#000000" points="2433.8956,-234.5001 2423.8956,-238 2433.8956,-241.5001 2433.8956,-234.5001"/>
</g>
<!-- BrowserModule -->
<g id="node8" class="node">
<title>BrowserModule</title>
<polygon fill="#8dd3c7" stroke="#000000" points="3429.4734,-187 3426.4734,-191 3405.4734,-191 3402.4734,-187 3322.5266,-187 3322.5266,-151 3429.4734,-151 3429.4734,-187"/>
<text text-anchor="middle" x="3376" y="-164.8" font-family="Times,serif" font-size="14.00" fill="#000000">BrowserModule</text>
</g>
<!-- BrowserModule&#45;&gt;AppModule -->
<g id="edge7" class="edge">
<title>BrowserModule&#45;&gt;AppModule</title>
<path fill="none" stroke="#000000" d="M3376,-187.308C3376,-207.1455 3376,-236 3376,-236 3376,-236 2433.7602,-236 2433.7602,-236"/>
<polygon fill="#000000" stroke="#000000" points="2433.7602,-232.5001 2423.7602,-236 2433.7602,-239.5001 2433.7602,-232.5001"/>
</g>
<!-- FormsModule -->
<g id="node9" class="node">
<title>FormsModule</title>
<polygon fill="#8dd3c7" stroke="#000000" points="3304.8288,-187 3301.8288,-191 3280.8288,-191 3277.8288,-187 3209.1712,-187 3209.1712,-151 3304.8288,-151 3304.8288,-187"/>
<text text-anchor="middle" x="3257" y="-164.8" font-family="Times,serif" font-size="14.00" fill="#000000">FormsModule</text>
</g>
<!-- FormsModule&#45;&gt;AppModule -->
<g id="edge8" class="edge">
<title>FormsModule&#45;&gt;AppModule</title>
<path fill="none" stroke="#000000" d="M3257,-187.1686C3257,-206.0898 3257,-233 3257,-233 3257,-233 2433.9083,-233 2433.9083,-233"/>
<polygon fill="#000000" stroke="#000000" points="2433.9083,-229.5001 2423.9083,-233 2433.9082,-236.5001 2433.9083,-229.5001"/>
</g>
<!-- CheckboxModule -->
<g id="node10" class="node">
<title>CheckboxModule</title>
<polygon fill="#8dd3c7" stroke="#000000" points="3191.316,-187 3188.316,-191 3167.316,-191 3164.316,-187 3074.684,-187 3074.684,-151 3191.316,-151 3191.316,-187"/>
<text text-anchor="middle" x="3133" y="-164.8" font-family="Times,serif" font-size="14.00" fill="#000000">CheckboxModule</text>
</g>
<!-- CheckboxModule&#45;&gt;AppModule -->
<g id="edge9" class="edge">
<title>CheckboxModule&#45;&gt;AppModule</title>
<path fill="none" stroke="#000000" d="M3133,-187.2667C3133,-205.5552 3133,-231 3133,-231 3133,-231 2433.7161,-231 2433.7161,-231"/>
<polygon fill="#000000" stroke="#000000" points="2433.7162,-227.5001 2423.7161,-231 2433.7161,-234.5001 2433.7162,-227.5001"/>
</g>
<!-- ReactiveFormsModule -->
<g id="node11" class="node">
<title>ReactiveFormsModule</title>
<polygon fill="#8dd3c7" stroke="#000000" points="3057.3047,-187 3054.3047,-191 3033.3047,-191 3030.3047,-187 2912.6953,-187 2912.6953,-151 3057.3047,-151 3057.3047,-187"/>
<text text-anchor="middle" x="2985" y="-164.8" font-family="Times,serif" font-size="14.00" fill="#000000">ReactiveFormsModule</text>
</g>
<!-- ReactiveFormsModule&#45;&gt;AppModule -->
<g id="edge10" class="edge">
<title>ReactiveFormsModule&#45;&gt;AppModule</title>
<path fill="none" stroke="#000000" d="M2985,-187.0225C2985,-204.3734 2985,-228 2985,-228 2985,-228 2433.923,-228 2433.923,-228"/>
<polygon fill="#000000" stroke="#000000" points="2433.9231,-224.5001 2423.923,-228 2433.923,-231.5001 2433.9231,-224.5001"/>
</g>
<!-- HttpModule -->
<g id="node12" class="node">
<title>HttpModule</title>
<polygon fill="#8dd3c7" stroke="#000000" points="2895.4387,-187 2892.4387,-191 2871.4387,-191 2868.4387,-187 2810.5613,-187 2810.5613,-151 2895.4387,-151 2895.4387,-187"/>
<text text-anchor="middle" x="2853" y="-164.8" font-family="Times,serif" font-size="14.00" fill="#000000">HttpModule</text>
</g>
<!-- HttpModule&#45;&gt;AppModule -->
<g id="edge11" class="edge">
<title>HttpModule&#45;&gt;AppModule</title>
<path fill="none" stroke="#000000" d="M2853,-187.0352C2853,-203.7344 2853,-226 2853,-226 2853,-226 2433.7981,-226 2433.7981,-226"/>
<polygon fill="#000000" stroke="#000000" points="2433.7981,-222.5001 2423.7981,-226 2433.7981,-229.5001 2433.7981,-222.5001"/>
</g>
<!-- DataTableModule -->
<g id="node13" class="node">
<title>DataTableModule</title>
<polygon fill="#8dd3c7" stroke="#000000" points="2792.8487,-187 2789.8487,-191 2768.8487,-191 2765.8487,-187 2675.1513,-187 2675.1513,-151 2792.8487,-151 2792.8487,-187"/>
<text text-anchor="middle" x="2734" y="-164.8" font-family="Times,serif" font-size="14.00" fill="#000000">DataTableModule</text>
</g>
<!-- DataTableModule&#45;&gt;AppModule -->
<g id="edge12" class="edge">
<title>DataTableModule&#45;&gt;AppModule</title>
<path fill="none" stroke="#000000" d="M2734,-187.0091C2734,-203.0494 2734,-224 2734,-224 2734,-224 2433.7613,-224 2433.7613,-224"/>
<polygon fill="#000000" stroke="#000000" points="2433.7613,-220.5001 2423.7613,-224 2433.7613,-227.5001 2433.7613,-220.5001"/>
</g>
<!-- SharedModule -->
<g id="node14" class="node">
<title>SharedModule</title>
<polygon fill="#8dd3c7" stroke="#000000" points="2657.4231,-187 2654.4231,-191 2633.4231,-191 2630.4231,-187 2558.5769,-187 2558.5769,-151 2657.4231,-151 2657.4231,-187"/>
<text text-anchor="middle" x="2608" y="-164.8" font-family="Times,serif" font-size="14.00" fill="#000000">SharedModule</text>
</g>
<!-- SharedModule&#45;&gt;AppModule -->
<g id="edge13" class="edge">
<title>SharedModule&#45;&gt;AppModule</title>
<path fill="none" stroke="#000000" d="M2608,-187.1871C2608,-202.1824 2608,-221 2608,-221 2608,-221 2433.7153,-221 2433.7153,-221"/>
<polygon fill="#000000" stroke="#000000" points="2433.7153,-217.5001 2423.7153,-221 2433.7152,-224.5001 2433.7153,-217.5001"/>
</g>
<!-- TreeModule -->
<g id="node15" class="node">
<title>TreeModule</title>
<polygon fill="#8dd3c7" stroke="#000000" points="2540.6924,-187 2537.6924,-191 2516.6924,-191 2513.6924,-187 2455.3076,-187 2455.3076,-151 2540.6924,-151 2540.6924,-187"/>
<text text-anchor="middle" x="2498" y="-164.8" font-family="Times,serif" font-size="14.00" fill="#000000">TreeModule</text>
</g>
<!-- TreeModule&#45;&gt;AppModule -->
<g id="edge14" class="edge">
<title>TreeModule&#45;&gt;AppModule</title>
<path fill="none" stroke="#000000" d="M2498,-187.0511C2498,-201.373 2498,-219 2498,-219 2498,-219 2433.8787,-219 2433.8787,-219"/>
<polygon fill="#000000" stroke="#000000" points="2433.8787,-215.5001 2423.8787,-219 2433.8786,-222.5001 2433.8787,-215.5001"/>
</g>
<!-- TabViewModule -->
<g id="node16" class="node">
<title>TabViewModule</title>
<polygon fill="#8dd3c7" stroke="#000000" points="2437.636,-187 2434.636,-191 2413.636,-191 2410.636,-187 2326.364,-187 2326.364,-151 2437.636,-151 2437.636,-187"/>
<text text-anchor="middle" x="2382" y="-164.8" font-family="Times,serif" font-size="14.00" fill="#000000">TabViewModule</text>
</g>
<!-- TabViewModule&#45;&gt;AppModule -->
<g id="edge15" class="edge">
<title>TabViewModule&#45;&gt;AppModule</title>
<path fill="none" stroke="#000000" d="M2382,-187.1061C2382,-187.1061 2382,-205.991 2382,-205.991"/>
<polygon fill="#000000" stroke="#000000" points="2378.5001,-205.9909 2382,-215.991 2385.5001,-205.991 2378.5001,-205.9909"/>
</g>
<!-- AutoCompleteModule -->
<g id="node17" class="node">
<title>AutoCompleteModule</title>
<polygon fill="#8dd3c7" stroke="#000000" points="2307.9846,-187 2304.9846,-191 2283.9846,-191 2280.9846,-187 2166.0154,-187 2166.0154,-151 2307.9846,-151 2307.9846,-187"/>
<text text-anchor="middle" x="2237" y="-164.8" font-family="Times,serif" font-size="14.00" fill="#000000">AutoCompleteModule</text>
</g>
<!-- AutoCompleteModule&#45;&gt;AppModule -->
<g id="edge16" class="edge">
<title>AutoCompleteModule&#45;&gt;AppModule</title>
<path fill="none" stroke="#000000" d="M2237,-187.0511C2237,-201.373 2237,-219 2237,-219 2237,-219 2330.06,-219 2330.06,-219"/>
<polygon fill="#000000" stroke="#000000" points="2330.06,-222.5001 2340.06,-219 2330.06,-215.5001 2330.06,-222.5001"/>
</g>
<!-- DropdownModule -->
<g id="node18" class="node">
<title>DropdownModule</title>
<polygon fill="#8dd3c7" stroke="#000000" points="2147.9244,-187 2144.9244,-191 2123.9244,-191 2120.9244,-187 2028.0756,-187 2028.0756,-151 2147.9244,-151 2147.9244,-187"/>
<text text-anchor="middle" x="2088" y="-164.8" font-family="Times,serif" font-size="14.00" fill="#000000">DropdownModule</text>
</g>
<!-- DropdownModule&#45;&gt;AppModule -->
<g id="edge17" class="edge">
<title>DropdownModule&#45;&gt;AppModule</title>
<path fill="none" stroke="#000000" d="M2088,-187.1871C2088,-202.1824 2088,-221 2088,-221 2088,-221 2330.1892,-221 2330.1892,-221"/>
<polygon fill="#000000" stroke="#000000" points="2330.1892,-224.5001 2340.1892,-221 2330.1892,-217.5001 2330.1892,-224.5001"/>
</g>
<!-- BrowserAnimationsModule -->
<g id="node19" class="node">
<title>BrowserAnimationsModule</title>
<polygon fill="#8dd3c7" stroke="#000000" points="2010.3019,-187 2007.3019,-191 1986.3019,-191 1983.3019,-187 1837.6981,-187 1837.6981,-151 2010.3019,-151 2010.3019,-187"/>
<text text-anchor="middle" x="1924" y="-164.8" font-family="Times,serif" font-size="14.00" fill="#000000">BrowserAnimationsModule</text>
</g>
<!-- BrowserAnimationsModule&#45;&gt;AppModule -->
<g id="edge18" class="edge">
<title>BrowserAnimationsModule&#45;&gt;AppModule</title>
<path fill="none" stroke="#000000" d="M1924,-187.0091C1924,-203.0494 1924,-224 1924,-224 1924,-224 2330.1414,-224 2330.1414,-224"/>
<polygon fill="#000000" stroke="#000000" points="2330.1414,-227.5001 2340.1414,-224 2330.1414,-220.5001 2330.1414,-227.5001"/>
</g>
<!-- TreeTableModule -->
<g id="node20" class="node">
<title>TreeTableModule</title>
<polygon fill="#8dd3c7" stroke="#000000" points="1819.5646,-187 1816.5646,-191 1795.5646,-191 1792.5646,-187 1702.4354,-187 1702.4354,-151 1819.5646,-151 1819.5646,-187"/>
<text text-anchor="middle" x="1761" y="-164.8" font-family="Times,serif" font-size="14.00" fill="#000000">TreeTableModule</text>
</g>
<!-- TreeTableModule&#45;&gt;AppModule -->
<g id="edge19" class="edge">
<title>TreeTableModule&#45;&gt;AppModule</title>
<path fill="none" stroke="#000000" d="M1761,-187.0352C1761,-203.7344 1761,-226 1761,-226 1761,-226 2330.2902,-226 2330.2902,-226"/>
<polygon fill="#000000" stroke="#000000" points="2330.2902,-229.5001 2340.2902,-226 2330.2901,-222.5001 2330.2902,-229.5001"/>
</g>
<!-- SharedCatanieModule -->
<g id="node21" class="node">
<title>SharedCatanieModule</title>
<polygon fill="#8dd3c7" stroke="#000000" points="1684.6839,-187 1681.6839,-191 1660.6839,-191 1657.6839,-187 1543.3161,-187 1543.3161,-151 1684.6839,-151 1684.6839,-187"/>
<text text-anchor="middle" x="1614" y="-164.8" font-family="Times,serif" font-size="14.00" fill="#000000">SharedCatanieModule</text>
</g>
<!-- SharedCatanieModule&#45;&gt;AppModule -->
<g id="edge20" class="edge">
<title>SharedCatanieModule&#45;&gt;AppModule</title>
<path fill="none" stroke="#000000" d="M1614,-187.0225C1614,-204.3734 1614,-228 1614,-228 1614,-228 2330.1636,-228 2330.1636,-228"/>
<polygon fill="#000000" stroke="#000000" points="2330.1636,-231.5001 2340.1636,-228 2330.1635,-224.5001 2330.1636,-231.5001"/>
</g>
<!-- NguiDatetimePickerModule -->
<g id="node22" class="node">
<title>NguiDatetimePickerModule</title>
<polygon fill="#8dd3c7" stroke="#000000" points="1525.1232,-187 1522.1232,-191 1501.1232,-191 1498.1232,-187 1350.8768,-187 1350.8768,-151 1525.1232,-151 1525.1232,-187"/>
<text text-anchor="middle" x="1438" y="-164.8" font-family="Times,serif" font-size="14.00" fill="#000000">NguiDatetimePickerModule</text>
</g>
<!-- NguiDatetimePickerModule&#45;&gt;AppModule -->
<g id="edge21" class="edge">
<title>NguiDatetimePickerModule&#45;&gt;AppModule</title>
<path fill="none" stroke="#000000" d="M1438,-187.2667C1438,-205.5552 1438,-231 1438,-231 1438,-231 2330.2195,-231 2330.2195,-231"/>
<polygon fill="#000000" stroke="#000000" points="2330.2195,-234.5001 2340.2195,-231 2330.2194,-227.5001 2330.2195,-234.5001"/>
</g>
<!-- DatasetsModule -->
<g id="node23" class="node">
<title>DatasetsModule</title>
<polygon fill="#8dd3c7" stroke="#000000" points="1332.4706,-187 1329.4706,-191 1308.4706,-191 1305.4706,-187 1225.5294,-187 1225.5294,-151 1332.4706,-151 1332.4706,-187"/>
<text text-anchor="middle" x="1279" y="-164.8" font-family="Times,serif" font-size="14.00" fill="#000000">DatasetsModule</text>
</g>
<!-- DatasetsModule&#45;&gt;AppModule -->
<g id="edge22" class="edge">
<title>DatasetsModule&#45;&gt;AppModule</title>
<path fill="none" stroke="#000000" d="M1279,-187.1686C1279,-206.0898 1279,-233 1279,-233 1279,-233 2330.108,-233 2330.108,-233"/>
<polygon fill="#000000" stroke="#000000" points="2330.108,-236.5001 2340.108,-233 2330.1079,-229.5001 2330.108,-236.5001"/>
</g>
<!-- UsersModule -->
<g id="node24" class="node">
<title>UsersModule</title>
<polygon fill="#8dd3c7" stroke="#000000" points="1207.9218,-187 1204.9218,-191 1183.9218,-191 1180.9218,-187 1116.0782,-187 1116.0782,-151 1207.9218,-151 1207.9218,-187"/>
<text text-anchor="middle" x="1162" y="-164.8" font-family="Times,serif" font-size="14.00" fill="#000000">UsersModule</text>
</g>
<!-- UsersModule&#45;&gt;AppModule -->
<g id="edge23" class="edge">
<title>UsersModule&#45;&gt;AppModule</title>
<path fill="none" stroke="#000000" d="M1162,-187.308C1162,-207.1455 1162,-236 1162,-236 1162,-236 2330.0048,-236 2330.0048,-236"/>
<polygon fill="#000000" stroke="#000000" points="2330.0049,-239.5001 2340.0048,-236 2330.0048,-232.5001 2330.0049,-239.5001"/>
</g>
<!-- SDKBrowserModule.forRoot() -->
<g id="node25" class="node">
<title>SDKBrowserModule.forRoot()</title>
<polygon fill="#8dd3c7" stroke="#000000" points="1098.8391,-187 1095.8391,-191 1074.8391,-191 1071.8391,-187 907.1609,-187 907.1609,-151 1098.8391,-151 1098.8391,-187"/>
<text text-anchor="middle" x="1003" y="-164.8" font-family="Times,serif" font-size="14.00" fill="#000000">SDKBrowserModule.forRoot()</text>
</g>
<!-- SDKBrowserModule.forRoot()&#45;&gt;AppModule -->
<g id="edge24" class="edge">
<title>SDKBrowserModule.forRoot()&#45;&gt;AppModule</title>
<path fill="none" stroke="#000000" d="M1003,-187.1289C1003,-207.5724 1003,-238 1003,-238 1003,-238 2329.9763,-238 2329.9763,-238"/>
<polygon fill="#000000" stroke="#000000" points="2329.9763,-241.5001 2339.9763,-238 2329.9763,-234.5001 2329.9763,-241.5001"/>
</g>
<!-- StoreModule.forRoot(args) -->
<g id="node26" class="node">
<title>StoreModule.forRoot(args)</title>
<polygon fill="#8dd3c7" stroke="#000000" points="889.2877,-187 886.2877,-191 865.2877,-191 862.2877,-187 720.7123,-187 720.7123,-151 889.2877,-151 889.2877,-187"/>
<text text-anchor="middle" x="805" y="-164.8" font-family="Times,serif" font-size="14.00" fill="#000000">StoreModule.forRoot(args)</text>
</g>
<!-- StoreModule.forRoot(args)&#45;&gt;AppModule -->
<g id="edge25" class="edge">
<title>StoreModule.forRoot(args)&#45;&gt;AppModule</title>
<path fill="none" stroke="#000000" d="M805,-187.2843C805,-208.3211 805,-240 805,-240 805,-240 2330.2253,-240 2330.2253,-240"/>
<polygon fill="#000000" stroke="#000000" points="2330.2253,-243.5001 2340.2253,-240 2330.2252,-236.5001 2330.2253,-243.5001"/>
</g>
<!-- EffectsModule.forRoot(args) -->
<g id="node27" class="node">
<title>EffectsModule.forRoot(args)</title>
<polygon fill="#8dd3c7" stroke="#000000" points="702.3774,-187 699.3774,-191 678.3774,-191 675.3774,-187 523.6226,-187 523.6226,-151 702.3774,-151 702.3774,-187"/>
<text text-anchor="middle" x="613" y="-164.8" font-family="Times,serif" font-size="14.00" fill="#000000">EffectsModule.forRoot(args)</text>
</g>
<!-- EffectsModule.forRoot(args)&#45;&gt;AppModule -->
<g id="edge26" class="edge">
<title>EffectsModule.forRoot(args)&#45;&gt;AppModule</title>
<path fill="none" stroke="#000000" d="M613,-187.2921C613,-209.2057 613,-243 613,-243 613,-243 2330.0165,-243 2330.0165,-243"/>
<polygon fill="#000000" stroke="#000000" points="2330.0165,-246.5001 2340.0165,-243 2330.0164,-239.5001 2330.0165,-246.5001"/>
</g>
<!-- StoreRouterConnectingModule -->
<g id="node28" class="node">
<title>StoreRouterConnectingModule</title>
<polygon fill="#8dd3c7" stroke="#000000" points="505.7478,-187 502.7478,-191 481.7478,-191 478.7478,-187 314.2522,-187 314.2522,-151 505.7478,-151 505.7478,-187"/>
<text text-anchor="middle" x="410" y="-164.8" font-family="Times,serif" font-size="14.00" fill="#000000">StoreRouterConnectingModule</text>
</g>
<!-- StoreRouterConnectingModule&#45;&gt;AppModule -->
<g id="edge27" class="edge">
<title>StoreRouterConnectingModule&#45;&gt;AppModule</title>
<path fill="none" stroke="#000000" d="M410,-187.0109C410,-209.4852 410,-245 410,-245 410,-245 2329.8997,-245 2329.8997,-245"/>
<polygon fill="#000000" stroke="#000000" points="2329.8997,-248.5001 2339.8997,-245 2329.8996,-241.5001 2329.8997,-248.5001"/>
</g>
<!-- AuthCheck -->
<g id="node30" class="node">
<title>AuthCheck</title>
<ellipse fill="#fdb462" stroke="#000000" cx="235" cy="-169" rx="55.0381" ry="18"/>
<text text-anchor="middle" x="235" y="-164.8" font-family="Times,serif" font-size="14.00" fill="#000000">AuthCheck</text>
</g>
<!-- AuthCheck&#45;&gt;AppModule -->
<g id="edge29" class="edge">
<title>AuthCheck&#45;&gt;AppModule</title>
<path fill="none" stroke="#000000" d="M235,-187.3228C235,-210.6602 235,-248 235,-248 235,-248 2330.0755,-248 2330.0755,-248"/>
<polygon fill="#000000" stroke="#000000" points="2330.0756,-251.5001 2340.0755,-248 2330.0755,-244.5001 2330.0756,-251.5001"/>
</g>
<!-- DatasetService -->
<g id="node31" class="node">
<title>DatasetService</title>
<ellipse fill="#fdb462" stroke="#000000" cx="93" cy="-169" rx="68.8927" ry="18"/>
<text text-anchor="middle" x="93" y="-164.8" font-family="Times,serif" font-size="14.00" fill="#000000">DatasetService</text>
</g>
<!-- DatasetService&#45;&gt;AppModule -->
<g id="edge30" class="edge">
<title>DatasetService&#45;&gt;AppModule</title>
<path fill="none" stroke="#000000" d="M93,-187.3802C93,-211.2785 93,-250 93,-250 93,-250 2330.3161,-250 2330.3161,-250"/>
<polygon fill="#000000" stroke="#000000" points="2330.3162,-253.5001 2340.3161,-250 2330.3161,-246.5001 2330.3162,-253.5001"/>
</g>
</g>
</svg>
