<?xml version="1.0" encoding="UTF-8" standalone="no"?>
<!DOCTYPE svg PUBLIC "-//W3C//DTD SVG 1.1//EN"
 "http://www.w3.org/Graphics/SVG/1.1/DTD/svg11.dtd">
<!-- Generated by graphviz version 2.40.1 (20161225.0304)
 -->
<!-- Title: dependencies Pages: 1 -->
<svg width="1786pt" height="284pt"
 viewBox="0.00 0.00 1786.00 284.00" xmlns="http://www.w3.org/2000/svg" xmlns:xlink="http://www.w3.org/1999/xlink">
<g id="graph0" class="graph" transform="scale(1 1) rotate(0) translate(4 280)">
<title>dependencies</title>
<polygon fill="#ffffff" stroke="transparent" points="-4,4 -4,-280 1782,-280 1782,4 -4,4"/>
<text text-anchor="start" x="868.0091" y="-42.4" font-family="sans-serif" font-weight="bold" font-size="14.00" fill="#000000">Legend</text>
<polygon fill="#ffffb3" stroke="transparent" points="655,-10 655,-30 675,-30 675,-10 655,-10"/>
<text text-anchor="start" x="678.629" y="-15.4" font-family="sans-serif" font-size="14.00" fill="#000000"> &#160;Declarations</text>
<polygon fill="#8dd3c7" stroke="transparent" points="768,-10 768,-30 788,-30 788,-10 768,-10"/>
<text text-anchor="start" x="791.7251" y="-15.4" font-family="sans-serif" font-size="14.00" fill="#000000"> &#160;Module</text>
<polygon fill="#80b1d3" stroke="transparent" points="854,-10 854,-30 874,-30 874,-10 854,-10"/>
<text text-anchor="start" x="877.7812" y="-15.4" font-family="sans-serif" font-size="14.00" fill="#000000"> &#160;Bootstrap</text>
<polygon fill="#fdb462" stroke="transparent" points="951,-10 951,-30 971,-30 971,-10 951,-10"/>
<text text-anchor="start" x="974.6732" y="-15.4" font-family="sans-serif" font-size="14.00" fill="#000000"> &#160;Providers</text>
<polygon fill="#fb8072" stroke="transparent" points="1047,-10 1047,-30 1067,-30 1067,-10 1047,-10"/>
<text text-anchor="start" x="1070.7258" y="-15.4" font-family="sans-serif" font-size="14.00" fill="#000000"> &#160;Exports</text>
<g id="clust1" class="cluster">
<title>cluster_DatasetsModule</title>
<polygon fill="none" stroke="#000000" stroke-dasharray="1,5" points="8,-70 8,-268 1770,-268 1770,-70 8,-70"/>
</g>
<g id="clust2" class="cluster">
<title>cluster_DatasetsModule_declarations</title>
<polygon fill="none" stroke="#000000" points="598,-78 598,-130 1762,-130 1762,-78 598,-78"/>
</g>
<g id="clust10" class="cluster">
<title>cluster_DatasetsModule_imports</title>
<polygon fill="none" stroke="#000000" points="178,-78 178,-130 590,-130 590,-78 178,-78"/>
</g>
<g id="clust11" class="cluster">
<title>cluster_DatasetsModule_exports</title>
<polygon fill="none" stroke="#000000" points="675,-208 675,-260 1030,-260 1030,-208 675,-208"/>
</g>
<g id="clust13" class="cluster">
<title>cluster_DatasetsModule_providers</title>
<polygon fill="none" stroke="#000000" points="16,-78 16,-130 170,-130 170,-78 16,-78"/>
</g>
<!-- DashboardComponent -->
<g id="node1" class="node">
<title>DashboardComponent</title>
<polygon fill="#ffffb3" stroke="#000000" points="1753.9734,-122 1612.0266,-122 1612.0266,-86 1753.9734,-86 1753.9734,-122"/>
<text text-anchor="middle" x="1683" y="-99.8" font-family="Times,serif" font-size="14.00" fill="#000000">DashboardComponent</text>
</g>
<!-- DatasetsModule -->
<g id="node8" class="node">
<title>DatasetsModule</title>
<polygon fill="#8dd3c7" stroke="#000000" points="906.4706,-187 903.4706,-191 882.4706,-191 879.4706,-187 799.5294,-187 799.5294,-151 906.4706,-151 906.4706,-187"/>
<text text-anchor="middle" x="853" y="-164.8" font-family="Times,serif" font-size="14.00" fill="#000000">DatasetsModule</text>
</g>
<!-- DashboardComponent&#45;&gt;DatasetsModule -->
<g id="edge1" class="edge">
<title>DashboardComponent&#45;&gt;DatasetsModule</title>
<path fill="none" stroke="#000000" d="M1683,-122.2479C1683,-145.0179 1683,-181 1683,-181 1683,-181 916.5006,-181 916.5006,-181"/>
<polygon fill="#000000" stroke="#000000" points="916.5006,-177.5001 906.5006,-181 916.5005,-184.5001 916.5006,-177.5001"/>
</g>
<!-- DatasetTableComponent -->
<g id="node2" class="node">
<title>DatasetTableComponent</title>
<polygon fill="#ffffb3" stroke="#000000" points="1593.6811,-122 1438.3189,-122 1438.3189,-86 1593.6811,-86 1593.6811,-122"/>
<text text-anchor="middle" x="1516" y="-99.8" font-family="Times,serif" font-size="14.00" fill="#000000">DatasetTableComponent</text>
</g>
<!-- DatasetTableComponent&#45;&gt;DatasetsModule -->
<g id="edge2" class="edge">
<title>DatasetTableComponent&#45;&gt;DatasetsModule</title>
<path fill="none" stroke="#000000" d="M1516,-122.2843C1516,-143.3211 1516,-175 1516,-175 1516,-175 916.6945,-175 916.6945,-175"/>
<polygon fill="#000000" stroke="#000000" points="916.6945,-171.5001 906.6945,-175 916.6944,-178.5001 916.6945,-171.5001"/>
</g>
<!-- DatablocksComponent -->
<g id="node3" class="node">
<title>DatablocksComponent</title>
<polygon fill="#ffffb3" stroke="#000000" points="1420.3089,-122 1275.6911,-122 1275.6911,-86 1420.3089,-86 1420.3089,-122"/>
<text text-anchor="middle" x="1348" y="-99.8" font-family="Times,serif" font-size="14.00" fill="#000000">DatablocksComponent</text>
</g>
<!-- DatablocksComponent&#45;&gt;DatasetsModule -->
<g id="edge3" class="edge">
<title>DatablocksComponent&#45;&gt;DatasetsModule</title>
<path fill="none" stroke="#000000" d="M1348,-122.1061C1348,-141.3391 1348,-169 1348,-169 1348,-169 916.916,-169 916.916,-169"/>
<polygon fill="#000000" stroke="#000000" points="916.916,-165.5001 906.916,-169 916.9159,-172.5001 916.916,-165.5001"/>
</g>
<!-- DatafilesComponent -->
<g id="node4" class="node">
<title>DatafilesComponent</title>
<polygon fill="#ffffb3" stroke="#000000" points="1257.8599,-122 1126.1401,-122 1126.1401,-86 1257.8599,-86 1257.8599,-122"/>
<text text-anchor="middle" x="1192" y="-99.8" font-family="Times,serif" font-size="14.00" fill="#000000">DatafilesComponent</text>
</g>
<!-- DatafilesComponent&#45;&gt;DatasetsModule -->
<g id="edge4" class="edge">
<title>DatafilesComponent&#45;&gt;DatasetsModule</title>
<path fill="none" stroke="#000000" d="M1192,-122.0225C1192,-139.3734 1192,-163 1192,-163 1192,-163 916.7156,-163 916.7156,-163"/>
<polygon fill="#000000" stroke="#000000" points="916.7156,-159.5001 906.7156,-163 916.7155,-166.5001 916.7156,-159.5001"/>
</g>
<!-- DatasetsFilterComponent -->
<g id="node5" class="node">
<title>DatasetsFilterComponent</title>
<polygon fill="#ffffb3" stroke="#000000" points="1108.5828,-122 949.4172,-122 949.4172,-86 1108.5828,-86 1108.5828,-122"/>
<text text-anchor="middle" x="1029" y="-99.8" font-family="Times,serif" font-size="14.00" fill="#000000">DatasetsFilterComponent</text>
</g>
<!-- DatasetsFilterComponent&#45;&gt;DatasetsModule -->
<g id="edge5" class="edge">
<title>DatasetsFilterComponent&#45;&gt;DatasetsModule</title>
<path fill="none" stroke="#000000" d="M985.8996,-122.2396C985.8996,-137.5706 985.8996,-157 985.8996,-157 985.8996,-157 916.6723,-157 916.6723,-157"/>
<polygon fill="#000000" stroke="#000000" points="916.6723,-153.5001 906.6723,-157 916.6722,-160.5001 916.6723,-153.5001"/>
</g>
<!-- DatasetDetailComponent -->
<g id="node6" class="node">
<title>DatasetDetailComponent</title>
<polygon fill="#ffffb3" stroke="#000000" points="931.5169,-122 774.4831,-122 774.4831,-86 931.5169,-86 931.5169,-122"/>
<text text-anchor="middle" x="853" y="-99.8" font-family="Times,serif" font-size="14.00" fill="#000000">DatasetDetailComponent</text>
</g>
<!-- DatasetDetailComponent&#45;&gt;DatasetsModule -->
<g id="edge6" class="edge">
<title>DatasetDetailComponent&#45;&gt;DatasetsModule</title>
<path fill="none" stroke="#000000" d="M853,-122.1061C853,-122.1061 853,-140.991 853,-140.991"/>
<polygon fill="#000000" stroke="#000000" points="849.5001,-140.9909 853,-150.991 856.5001,-140.991 849.5001,-140.9909"/>
</g>
<!-- SelectedListComponent -->
<g id="node7" class="node">
<title>SelectedListComponent</title>
<polygon fill="#ffffb3" stroke="#000000" points="756.0337,-122 605.9663,-122 605.9663,-86 756.0337,-86 756.0337,-122"/>
<text text-anchor="middle" x="681" y="-99.8" font-family="Times,serif" font-size="14.00" fill="#000000">SelectedListComponent</text>
</g>
<!-- SelectedListComponent&#45;&gt;DatasetsModule -->
<g id="edge7" class="edge">
<title>SelectedListComponent&#45;&gt;DatasetsModule</title>
<path fill="none" stroke="#000000" d="M719.4876,-122.2396C719.4876,-137.5706 719.4876,-157 719.4876,-157 719.4876,-157 789.4647,-157 789.4647,-157"/>
<polygon fill="#000000" stroke="#000000" points="789.4647,-160.5001 799.4647,-157 789.4646,-153.5001 789.4647,-160.5001"/>
</g>
<!-- DatasetTableComponent  -->
<g id="node12" class="node">
<title>DatasetTableComponent </title>
<polygon fill="#fb8072" stroke="#000000" points="1022.1813,-252 863.8187,-252 863.8187,-216 1022.1813,-216 1022.1813,-252"/>
<text text-anchor="middle" x="943" y="-229.8" font-family="Times,serif" font-size="14.00" fill="#000000">DatasetTableComponent </text>
</g>
<!-- DatasetsModule&#45;&gt;DatasetTableComponent  -->
<g id="edge11" class="edge">
<title>DatasetsModule&#45;&gt;DatasetTableComponent </title>
<path fill="none" stroke="#000000" stroke-dasharray="5,2" d="M885.0724,-187.1061C885.0724,-187.1061 885.0724,-205.991 885.0724,-205.991"/>
<polygon fill="#000000" stroke="#000000" points="881.5725,-205.9909 885.0724,-215.991 888.5725,-205.991 881.5725,-205.9909"/>
</g>
<!-- DatasetsFilterComponent  -->
<g id="node13" class="node">
<title>DatasetsFilterComponent </title>
<polygon fill="#fb8072" stroke="#000000" points="845.0833,-252 682.9167,-252 682.9167,-216 845.0833,-216 845.0833,-252"/>
<text text-anchor="middle" x="764" y="-229.8" font-family="Times,serif" font-size="14.00" fill="#000000">DatasetsFilterComponent </text>
</g>
<!-- DatasetsModule&#45;&gt;DatasetsFilterComponent  -->
<g id="edge12" class="edge">
<title>DatasetsModule&#45;&gt;DatasetsFilterComponent </title>
<path fill="none" stroke="#000000" stroke-dasharray="5,2" d="M822.403,-187.1061C822.403,-187.1061 822.403,-205.991 822.403,-205.991"/>
<polygon fill="#000000" stroke="#000000" points="818.9031,-205.9909 822.403,-215.991 825.9031,-205.991 818.9031,-205.9909"/>
</g>
<!-- DialogModule -->
<g id="node9" class="node">
<title>DialogModule</title>
<polygon fill="#8dd3c7" stroke="#000000" points="581.6528,-122 578.6528,-126 557.6528,-126 554.6528,-122 484.3472,-122 484.3472,-86 581.6528,-86 581.6528,-122"/>
<text text-anchor="middle" x="533" y="-99.8" font-family="Times,serif" font-size="14.00" fill="#000000">DialogModule</text>
</g>
<!-- DialogModule&#45;&gt;DatasetsModule -->
<g id="edge8" class="edge">
<title>DialogModule&#45;&gt;DatasetsModule</title>
<path fill="none" stroke="#000000" d="M533,-122.0225C533,-139.3734 533,-163 533,-163 533,-163 789.4392,-163 789.4392,-163"/>
<polygon fill="#000000" stroke="#000000" points="789.4392,-166.5001 799.4392,-163 789.4392,-159.5001 789.4392,-166.5001"/>
</g>
<!-- SharedCatanieModule -->
<g id="node10" class="node">
<title>SharedCatanieModule</title>
<polygon fill="#8dd3c7" stroke="#000000" points="466.6839,-122 463.6839,-126 442.6839,-126 439.6839,-122 325.3161,-122 325.3161,-86 466.6839,-86 466.6839,-122"/>
<text text-anchor="middle" x="396" y="-99.8" font-family="Times,serif" font-size="14.00" fill="#000000">SharedCatanieModule</text>
</g>
<!-- SharedCatanieModule&#45;&gt;DatasetsModule -->
<g id="edge9" class="edge">
<title>SharedCatanieModule&#45;&gt;DatasetsModule</title>
<path fill="none" stroke="#000000" d="M396,-122.1061C396,-141.3391 396,-169 396,-169 396,-169 789.2324,-169 789.2324,-169"/>
<polygon fill="#000000" stroke="#000000" points="789.2325,-172.5001 799.2324,-169 789.2324,-165.5001 789.2325,-172.5001"/>
</g>
<!-- DatePickerModule -->
<g id="node11" class="node">
<title>DatePickerModule</title>
<polygon fill="#8dd3c7" stroke="#000000" points="307.7395,-122 304.7395,-126 283.7395,-126 280.7395,-122 186.2605,-122 186.2605,-86 307.7395,-86 307.7395,-122"/>
<text text-anchor="middle" x="247" y="-99.8" font-family="Times,serif" font-size="14.00" fill="#000000">DatePickerModule</text>
</g>
<!-- DatePickerModule&#45;&gt;DatasetsModule -->
<g id="edge10" class="edge">
<title>DatePickerModule&#45;&gt;DatasetsModule</title>
<path fill="none" stroke="#000000" d="M247,-122.2843C247,-143.3211 247,-175 247,-175 247,-175 789.4874,-175 789.4874,-175"/>
<polygon fill="#000000" stroke="#000000" points="789.4874,-178.5001 799.4874,-175 789.4873,-171.5001 789.4874,-178.5001"/>
</g>
<!-- DatasetService -->
<g id="node14" class="node">
<title>DatasetService</title>
<ellipse fill="#fdb462" stroke="#000000" cx="93" cy="-104" rx="68.8927" ry="18"/>
<text text-anchor="middle" x="93" y="-99.8" font-family="Times,serif" font-size="14.00" fill="#000000">DatasetService</text>
</g>
<!-- DatasetService&#45;&gt;DatasetsModule -->
<g id="edge13" class="edge">
<title>DatasetService&#45;&gt;DatasetsModule</title>
<path fill="none" stroke="#000000" d="M93,-122.2479C93,-145.0179 93,-181 93,-181 93,-181 789.2555,-181 789.2555,-181"/>
<polygon fill="#000000" stroke="#000000" points="789.2555,-184.5001 799.2555,-181 789.2554,-177.5001 789.2555,-184.5001"/>
</g>
</g>
</svg>
