<?xml version="1.0" encoding="UTF-8" standalone="no"?>
<!DOCTYPE svg PUBLIC "-//W3C//DTD SVG 1.1//EN"
 "http://www.w3.org/Graphics/SVG/1.1/DTD/svg11.dtd">
<!-- Generated by graphviz version 2.40.1 (20161225.0304)
 -->
<!-- Title: dependencies Pages: 1 -->
<svg width="1618pt" height="284pt"
 viewBox="0.00 0.00 1618.00 284.00" xmlns="http://www.w3.org/2000/svg" xmlns:xlink="http://www.w3.org/1999/xlink">
<g id="graph0" class="graph" transform="scale(1 1) rotate(0) translate(4 280)">
<title>dependencies</title>
<polygon fill="#ffffff" stroke="transparent" points="-4,4 -4,-280 1614,-280 1614,4 -4,4"/>
<text text-anchor="start" x="784.0091" y="-42.4" font-family="sans-serif" font-weight="bold" font-size="14.00" fill="#000000">Legend</text>
<polygon fill="#ffffb3" stroke="transparent" points="571,-10 571,-30 591,-30 591,-10 571,-10"/>
<text text-anchor="start" x="594.629" y="-15.4" font-family="sans-serif" font-size="14.00" fill="#000000"> &#160;Declarations</text>
<polygon fill="#8dd3c7" stroke="transparent" points="684,-10 684,-30 704,-30 704,-10 684,-10"/>
<text text-anchor="start" x="707.7251" y="-15.4" font-family="sans-serif" font-size="14.00" fill="#000000"> &#160;Module</text>
<polygon fill="#80b1d3" stroke="transparent" points="770,-10 770,-30 790,-30 790,-10 770,-10"/>
<text text-anchor="start" x="793.7812" y="-15.4" font-family="sans-serif" font-size="14.00" fill="#000000"> &#160;Bootstrap</text>
<polygon fill="#fdb462" stroke="transparent" points="867,-10 867,-30 887,-30 887,-10 867,-10"/>
<text text-anchor="start" x="890.6732" y="-15.4" font-family="sans-serif" font-size="14.00" fill="#000000"> &#160;Providers</text>
<polygon fill="#fb8072" stroke="transparent" points="963,-10 963,-30 983,-30 983,-10 963,-10"/>
<text text-anchor="start" x="986.7258" y="-15.4" font-family="sans-serif" font-size="14.00" fill="#000000"> &#160;Exports</text>
<g id="clust1" class="cluster">
<title>cluster_DatasetsModule</title>
<polygon fill="none" stroke="#000000" stroke-dasharray="1,5" points="8,-70 8,-268 1602,-268 1602,-70 8,-70"/>
</g>
<g id="clust2" class="cluster">
<title>cluster_DatasetsModule_declarations</title>
<polygon fill="none" stroke="#000000" points="598,-78 598,-130 1594,-130 1594,-78 598,-78"/>
</g>
<g id="clust9" class="cluster">
<title>cluster_DatasetsModule_imports</title>
<polygon fill="none" stroke="#000000" points="178,-78 178,-130 590,-130 590,-78 178,-78"/>
</g>
<g id="clust10" class="cluster">
<title>cluster_DatasetsModule_exports</title>
<polygon fill="none" stroke="#000000" points="595,-208 595,-260 950,-260 950,-208 595,-208"/>
</g>
<g id="clust12" class="cluster">
<title>cluster_DatasetsModule_providers</title>
<polygon fill="none" stroke="#000000" points="16,-78 16,-130 170,-130 170,-78 16,-78"/>
</g>
<!-- DashboardComponent -->
<g id="node1" class="node">
<title>DashboardComponent</title>
<polygon fill="#ffffb3" stroke="#000000" points="1585.9734,-122 1444.0266,-122 1444.0266,-86 1585.9734,-86 1585.9734,-122"/>
<text text-anchor="middle" x="1515" y="-99.8" font-family="Times,serif" font-size="14.00" fill="#000000">DashboardComponent</text>
</g>
<!-- DatasetsModule -->
<g id="node7" class="node">
<title>DatasetsModule</title>
<polygon fill="#8dd3c7" stroke="#000000" points="826.4706,-187 823.4706,-191 802.4706,-191 799.4706,-187 719.5294,-187 719.5294,-151 826.4706,-151 826.4706,-187"/>
<text text-anchor="middle" x="773" y="-164.8" font-family="Times,serif" font-size="14.00" fill="#000000">DatasetsModule</text>
</g>
<!-- DashboardComponent&#45;&gt;DatasetsModule -->
<g id="edge1" class="edge">
<title>DashboardComponent&#45;&gt;DatasetsModule</title>
<path fill="none" stroke="#000000" d="M1515,-122.0109C1515,-144.4852 1515,-180 1515,-180 1515,-180 836.6613,-180 836.6613,-180"/>
<polygon fill="#000000" stroke="#000000" points="836.6613,-176.5001 826.6613,-180 836.6613,-183.5001 836.6613,-176.5001"/>
</g>
<!-- DatasetTableComponent -->
<g id="node2" class="node">
<title>DatasetTableComponent</title>
<polygon fill="#ffffb3" stroke="#000000" points="1425.6811,-122 1270.3189,-122 1270.3189,-86 1425.6811,-86 1425.6811,-122"/>
<text text-anchor="middle" x="1348" y="-99.8" font-family="Times,serif" font-size="14.00" fill="#000000">DatasetTableComponent</text>
</g>
<!-- DatasetTableComponent&#45;&gt;DatasetsModule -->
<g id="edge2" class="edge">
<title>DatasetTableComponent&#45;&gt;DatasetsModule</title>
<path fill="none" stroke="#000000" d="M1348,-122.1289C1348,-142.5724 1348,-173 1348,-173 1348,-173 836.5783,-173 836.5783,-173"/>
<polygon fill="#000000" stroke="#000000" points="836.5783,-169.5001 826.5783,-173 836.5782,-176.5001 836.5783,-169.5001"/>
</g>
<!-- DatablocksComponent -->
<g id="node3" class="node">
<title>DatablocksComponent</title>
<polygon fill="#ffffb3" stroke="#000000" points="1252.3089,-122 1107.6911,-122 1107.6911,-86 1252.3089,-86 1252.3089,-122"/>
<text text-anchor="middle" x="1180" y="-99.8" font-family="Times,serif" font-size="14.00" fill="#000000">DatablocksComponent</text>
</g>
<!-- DatablocksComponent&#45;&gt;DatasetsModule -->
<g id="edge3" class="edge">
<title>DatablocksComponent&#45;&gt;DatasetsModule</title>
<path fill="none" stroke="#000000" d="M1180,-122.2667C1180,-140.5552 1180,-166 1180,-166 1180,-166 836.6267,-166 836.6267,-166"/>
<polygon fill="#000000" stroke="#000000" points="836.6267,-162.5001 826.6267,-166 836.6266,-169.5001 836.6267,-162.5001"/>
</g>
<!-- DatafilesComponent -->
<g id="node4" class="node">
<title>DatafilesComponent</title>
<polygon fill="#ffffb3" stroke="#000000" points="1089.8599,-122 958.1401,-122 958.1401,-86 1089.8599,-86 1089.8599,-122"/>
<text text-anchor="middle" x="1024" y="-99.8" font-family="Times,serif" font-size="14.00" fill="#000000">DatafilesComponent</text>
</g>
<!-- DatafilesComponent&#45;&gt;DatasetsModule -->
<g id="edge4" class="edge">
<title>DatafilesComponent&#45;&gt;DatasetsModule</title>
<path fill="none" stroke="#000000" d="M1024,-122.0091C1024,-138.0494 1024,-159 1024,-159 1024,-159 836.5379,-159 836.5379,-159"/>
<polygon fill="#000000" stroke="#000000" points="836.538,-155.5001 826.5379,-159 836.5379,-162.5001 836.538,-155.5001"/>
</g>
<!-- DatasetsFilterComponent -->
<g id="node5" class="node">
<title>DatasetsFilterComponent</title>
<polygon fill="#ffffb3" stroke="#000000" points="940.5828,-122 781.4172,-122 781.4172,-86 940.5828,-86 940.5828,-122"/>
<text text-anchor="middle" x="861" y="-99.8" font-family="Times,serif" font-size="14.00" fill="#000000">DatasetsFilterComponent</text>
</g>
<!-- DatasetsFilterComponent&#45;&gt;DatasetsModule -->
<g id="edge5" class="edge">
<title>DatasetsFilterComponent&#45;&gt;DatasetsModule</title>
<path fill="none" stroke="#000000" d="M803.972,-122.1061C803.972,-122.1061 803.972,-140.991 803.972,-140.991"/>
<polygon fill="#000000" stroke="#000000" points="800.472,-140.9909 803.972,-150.991 807.472,-140.991 800.472,-140.9909"/>
</g>
<!-- DatasetDetailComponent -->
<g id="node6" class="node">
<title>DatasetDetailComponent</title>
<polygon fill="#ffffb3" stroke="#000000" points="763.5169,-122 606.4831,-122 606.4831,-86 763.5169,-86 763.5169,-122"/>
<text text-anchor="middle" x="685" y="-99.8" font-family="Times,serif" font-size="14.00" fill="#000000">DatasetDetailComponent</text>
</g>
<!-- DatasetDetailComponent&#45;&gt;DatasetsModule -->
<g id="edge6" class="edge">
<title>DatasetDetailComponent&#45;&gt;DatasetsModule</title>
<path fill="none" stroke="#000000" d="M741.6364,-122.1061C741.6364,-122.1061 741.6364,-140.991 741.6364,-140.991"/>
<polygon fill="#000000" stroke="#000000" points="738.1365,-140.9909 741.6364,-150.991 745.1365,-140.991 738.1365,-140.9909"/>
</g>
<!-- DatasetTableComponent  -->
<g id="node11" class="node">
<title>DatasetTableComponent </title>
<polygon fill="#fb8072" stroke="#000000" points="942.1813,-252 783.8187,-252 783.8187,-216 942.1813,-216 942.1813,-252"/>
<text text-anchor="middle" x="863" y="-229.8" font-family="Times,serif" font-size="14.00" fill="#000000">DatasetTableComponent </text>
</g>
<!-- DatasetsModule&#45;&gt;DatasetTableComponent  -->
<g id="edge10" class="edge">
<title>DatasetsModule&#45;&gt;DatasetTableComponent </title>
<path fill="none" stroke="#000000" stroke-dasharray="5,2" d="M805.0724,-187.1061C805.0724,-187.1061 805.0724,-205.991 805.0724,-205.991"/>
<polygon fill="#000000" stroke="#000000" points="801.5725,-205.9909 805.0724,-215.991 808.5725,-205.991 801.5725,-205.9909"/>
</g>
<!-- DatasetsFilterComponent  -->
<g id="node12" class="node">
<title>DatasetsFilterComponent </title>
<polygon fill="#fb8072" stroke="#000000" points="765.0833,-252 602.9167,-252 602.9167,-216 765.0833,-216 765.0833,-252"/>
<text text-anchor="middle" x="684" y="-229.8" font-family="Times,serif" font-size="14.00" fill="#000000">DatasetsFilterComponent </text>
</g>
<!-- DatasetsModule&#45;&gt;DatasetsFilterComponent  -->
<g id="edge11" class="edge">
<title>DatasetsModule&#45;&gt;DatasetsFilterComponent </title>
<path fill="none" stroke="#000000" stroke-dasharray="5,2" d="M742.403,-187.1061C742.403,-187.1061 742.403,-205.991 742.403,-205.991"/>
<polygon fill="#000000" stroke="#000000" points="738.9031,-205.9909 742.403,-215.991 745.9031,-205.991 738.9031,-205.9909"/>
</g>
<!-- DialogModule -->
<g id="node8" class="node">
<title>DialogModule</title>
<polygon fill="#8dd3c7" stroke="#000000" points="581.6528,-122 578.6528,-126 557.6528,-126 554.6528,-122 484.3472,-122 484.3472,-86 581.6528,-86 581.6528,-122"/>
<text text-anchor="middle" x="533" y="-99.8" font-family="Times,serif" font-size="14.00" fill="#000000">DialogModule</text>
</g>
<!-- DialogModule&#45;&gt;DatasetsModule -->
<g id="edge7" class="edge">
<title>DialogModule&#45;&gt;DatasetsModule</title>
<path fill="none" stroke="#000000" d="M533,-122.0091C533,-138.0494 533,-159 533,-159 533,-159 709.438,-159 709.438,-159"/>
<polygon fill="#000000" stroke="#000000" points="709.4381,-162.5001 719.438,-159 709.438,-155.5001 709.4381,-162.5001"/>
</g>
<!-- SharedCatanieModule -->
<g id="node9" class="node">
<title>SharedCatanieModule</title>
<polygon fill="#8dd3c7" stroke="#000000" points="466.6839,-122 463.6839,-126 442.6839,-126 439.6839,-122 325.3161,-122 325.3161,-86 466.6839,-86 466.6839,-122"/>
<text text-anchor="middle" x="396" y="-99.8" font-family="Times,serif" font-size="14.00" fill="#000000">SharedCatanieModule</text>
</g>
<!-- SharedCatanieModule&#45;&gt;DatasetsModule -->
<g id="edge8" class="edge">
<title>SharedCatanieModule&#45;&gt;DatasetsModule</title>
<path fill="none" stroke="#000000" d="M396,-122.2667C396,-140.5552 396,-166 396,-166 396,-166 709.3855,-166 709.3855,-166"/>
<polygon fill="#000000" stroke="#000000" points="709.3855,-169.5001 719.3855,-166 709.3854,-162.5001 709.3855,-169.5001"/>
</g>
<!-- DatePickerModule -->
<g id="node10" class="node">
<title>DatePickerModule</title>
<polygon fill="#8dd3c7" stroke="#000000" points="307.7395,-122 304.7395,-126 283.7395,-126 280.7395,-122 186.2605,-122 186.2605,-86 307.7395,-86 307.7395,-122"/>
<text text-anchor="middle" x="247" y="-99.8" font-family="Times,serif" font-size="14.00" fill="#000000">DatePickerModule</text>
</g>
<!-- DatePickerModule&#45;&gt;DatasetsModule -->
<g id="edge9" class="edge">
<title>DatePickerModule&#45;&gt;DatasetsModule</title>
<path fill="none" stroke="#000000" d="M247,-122.1289C247,-142.5724 247,-173 247,-173 247,-173 709.1807,-173 709.1807,-173"/>
<polygon fill="#000000" stroke="#000000" points="709.1807,-176.5001 719.1807,-173 709.1807,-169.5001 709.1807,-176.5001"/>
</g>
<!-- DatasetService -->
<g id="node13" class="node">
<title>DatasetService</title>
<ellipse fill="#fdb462" stroke="#000000" cx="93" cy="-104" rx="68.8927" ry="18"/>
<text text-anchor="middle" x="93" y="-99.8" font-family="Times,serif" font-size="14.00" fill="#000000">DatasetService</text>
</g>
<!-- DatasetService&#45;&gt;DatasetsModule -->
<g id="edge12" class="edge">
<title>DatasetService&#45;&gt;DatasetsModule</title>
<path fill="none" stroke="#000000" d="M93,-122.0109C93,-144.4852 93,-180 93,-180 93,-180 709.3577,-180 709.3577,-180"/>
<polygon fill="#000000" stroke="#000000" points="709.3577,-183.5001 719.3577,-180 709.3576,-176.5001 709.3577,-183.5001"/>
</g>
</g>
</svg>
