<?xml version="1.0" encoding="UTF-8" standalone="no"?>
<!DOCTYPE svg PUBLIC "-//W3C//DTD SVG 1.1//EN"
 "http://www.w3.org/Graphics/SVG/1.1/DTD/svg11.dtd">
<!-- Generated by graphviz version 2.40.1 (20161225.0304)
 -->
<!-- Title: dependencies Pages: 1 -->
<svg width="2455pt" height="284pt"
 viewBox="0.00 0.00 2455.00 284.00" xmlns="http://www.w3.org/2000/svg" xmlns:xlink="http://www.w3.org/1999/xlink">
<g id="graph0" class="graph" transform="scale(1 1) rotate(0) translate(4 280)">
<title>dependencies</title>
<polygon fill="#ffffff" stroke="transparent" points="-4,4 -4,-280 2451,-280 2451,4 -4,4"/>
<text text-anchor="start" x="1202.5091" y="-42.4" font-family="sans-serif" font-weight="bold" font-size="14.00" fill="#000000">Legend</text>
<polygon fill="#ffffb3" stroke="transparent" points="989.5,-10 989.5,-30 1009.5,-30 1009.5,-10 989.5,-10"/>
<text text-anchor="start" x="1013.129" y="-15.4" font-family="sans-serif" font-size="14.00" fill="#000000"> &#160;Declarations</text>
<polygon fill="#8dd3c7" stroke="transparent" points="1102.5,-10 1102.5,-30 1122.5,-30 1122.5,-10 1102.5,-10"/>
<text text-anchor="start" x="1126.2251" y="-15.4" font-family="sans-serif" font-size="14.00" fill="#000000"> &#160;Module</text>
<polygon fill="#80b1d3" stroke="transparent" points="1188.5,-10 1188.5,-30 1208.5,-30 1208.5,-10 1188.5,-10"/>
<text text-anchor="start" x="1212.2812" y="-15.4" font-family="sans-serif" font-size="14.00" fill="#000000"> &#160;Bootstrap</text>
<polygon fill="#fdb462" stroke="transparent" points="1285.5,-10 1285.5,-30 1305.5,-30 1305.5,-10 1285.5,-10"/>
<text text-anchor="start" x="1309.1732" y="-15.4" font-family="sans-serif" font-size="14.00" fill="#000000"> &#160;Providers</text>
<polygon fill="#fb8072" stroke="transparent" points="1381.5,-10 1381.5,-30 1401.5,-30 1401.5,-10 1381.5,-10"/>
<text text-anchor="start" x="1405.2258" y="-15.4" font-family="sans-serif" font-size="14.00" fill="#000000"> &#160;Exports</text>
<g id="clust1" class="cluster">
<title>cluster_DatasetsModule</title>
<polygon fill="none" stroke="#000000" stroke-dasharray="1,5" points="8,-70 8,-268 2439,-268 2439,-70 8,-70"/>
</g>
<g id="clust2" class="cluster">
<title>cluster_DatasetsModule_declarations</title>
<polygon fill="none" stroke="#000000" points="1611,-78 1611,-130 2431,-130 2431,-78 1611,-78"/>
</g>
<g id="clust8" class="cluster">
<title>cluster_DatasetsModule_imports</title>
<polygon fill="none" stroke="#000000" points="380,-78 380,-130 1603,-130 1603,-78 380,-78"/>
</g>
<g id="clust9" class="cluster">
<title>cluster_DatasetsModule_exports</title>
<polygon fill="none" stroke="#000000" points="1147,-208 1147,-260 1321,-260 1321,-208 1147,-208"/>
</g>
<g id="clust11" class="cluster">
<title>cluster_DatasetsModule_providers</title>
<polygon fill="none" stroke="#000000" points="16,-78 16,-130 372,-130 372,-78 16,-78"/>
</g>
<!-- DashboardComponent -->
<g id="node1" class="node">
<title>DashboardComponent</title>
<polygon fill="#ffffb3" stroke="#000000" points="2422.9734,-122 2281.0266,-122 2281.0266,-86 2422.9734,-86 2422.9734,-122"/>
<text text-anchor="middle" x="2352" y="-99.8" font-family="Times,serif" font-size="14.00" fill="#000000">DashboardComponent</text>
</g>
<!-- DatasetsModule -->
<g id="node6" class="node">
<title>DatasetsModule</title>
<polygon fill="#8dd3c7" stroke="#000000" points="1287.4706,-187 1284.4706,-191 1263.4706,-191 1260.4706,-187 1180.5294,-187 1180.5294,-151 1287.4706,-151 1287.4706,-187"/>
<text text-anchor="middle" x="1234" y="-164.8" font-family="Times,serif" font-size="14.00" fill="#000000">DatasetsModule</text>
</g>
<!-- DashboardComponent&#45;&gt;DatasetsModule -->
<g id="edge1" class="edge">
<title>DashboardComponent&#45;&gt;DatasetsModule</title>
<path fill="none" stroke="#000000" d="M2352,-122.3228C2352,-145.6602 2352,-183 2352,-183 2352,-183 1297.5468,-183 1297.5468,-183"/>
<polygon fill="#000000" stroke="#000000" points="1297.5468,-179.5001 1287.5468,-183 1297.5468,-186.5001 1297.5468,-179.5001"/>
</g>
<!-- DatasetTableComponent -->
<g id="node2" class="node">
<title>DatasetTableComponent</title>
<polygon fill="#ffffb3" stroke="#000000" points="2262.6811,-122 2107.3189,-122 2107.3189,-86 2262.6811,-86 2262.6811,-122"/>
<text text-anchor="middle" x="2185" y="-99.8" font-family="Times,serif" font-size="14.00" fill="#000000">DatasetTableComponent</text>
</g>
<!-- DatasetTableComponent&#45;&gt;DatasetsModule -->
<g id="edge2" class="edge">
<title>DatasetTableComponent&#45;&gt;DatasetsModule</title>
<path fill="none" stroke="#000000" d="M2185,-122.2921C2185,-144.2057 2185,-178 2185,-178 2185,-178 1297.5107,-178 1297.5107,-178"/>
<polygon fill="#000000" stroke="#000000" points="1297.5107,-174.5001 1287.5107,-178 1297.5107,-181.5001 1297.5107,-174.5001"/>
</g>
<!-- DatablocksComponent -->
<g id="node3" class="node">
<title>DatablocksComponent</title>
<polygon fill="#ffffb3" stroke="#000000" points="2089.3089,-122 1944.6911,-122 1944.6911,-86 2089.3089,-86 2089.3089,-122"/>
<text text-anchor="middle" x="2017" y="-99.8" font-family="Times,serif" font-size="14.00" fill="#000000">DatablocksComponent</text>
</g>
<!-- DatablocksComponent&#45;&gt;DatasetsModule -->
<g id="edge3" class="edge">
<title>DatablocksComponent&#45;&gt;DatasetsModule</title>
<path fill="none" stroke="#000000" d="M2017,-122.0267C2017,-142.7672 2017,-174 2017,-174 2017,-174 1297.5106,-174 1297.5106,-174"/>
<polygon fill="#000000" stroke="#000000" points="1297.5106,-170.5001 1287.5106,-174 1297.5106,-177.5001 1297.5106,-170.5001"/>
</g>
<!-- DatafilesComponent -->
<g id="node4" class="node">
<title>DatafilesComponent</title>
<polygon fill="#ffffb3" stroke="#000000" points="1926.8599,-122 1795.1401,-122 1795.1401,-86 1926.8599,-86 1926.8599,-122"/>
<text text-anchor="middle" x="1861" y="-99.8" font-family="Times,serif" font-size="14.00" fill="#000000">DatafilesComponent</text>
</g>
<!-- DatafilesComponent&#45;&gt;DatasetsModule -->
<g id="edge4" class="edge">
<title>DatafilesComponent&#45;&gt;DatasetsModule</title>
<path fill="none" stroke="#000000" d="M1861,-122.1061C1861,-141.3391 1861,-169 1861,-169 1861,-169 1297.7287,-169 1297.7287,-169"/>
<polygon fill="#000000" stroke="#000000" points="1297.7288,-165.5001 1287.7287,-169 1297.7287,-172.5001 1297.7288,-165.5001"/>
</g>
<!-- DatasetDetailComponent -->
<g id="node5" class="node">
<title>DatasetDetailComponent</title>
<polygon fill="#ffffb3" stroke="#000000" points="1776.5169,-122 1619.4831,-122 1619.4831,-86 1776.5169,-86 1776.5169,-122"/>
<text text-anchor="middle" x="1698" y="-99.8" font-family="Times,serif" font-size="14.00" fill="#000000">DatasetDetailComponent</text>
</g>
<!-- DatasetDetailComponent&#45;&gt;DatasetsModule -->
<g id="edge5" class="edge">
<title>DatasetDetailComponent&#45;&gt;DatasetsModule</title>
<path fill="none" stroke="#000000" d="M1698,-122.302C1698,-140.2699 1698,-165 1698,-165 1698,-165 1297.68,-165 1297.68,-165"/>
<polygon fill="#000000" stroke="#000000" points="1297.68,-161.5001 1287.68,-165 1297.6799,-168.5001 1297.68,-161.5001"/>
</g>
<!-- DatasetTableComponent  -->
<g id="node16" class="node">
<title>DatasetTableComponent </title>
<polygon fill="#fb8072" stroke="#000000" points="1313.1813,-252 1154.8187,-252 1154.8187,-216 1313.1813,-216 1313.1813,-252"/>
<text text-anchor="middle" x="1234" y="-229.8" font-family="Times,serif" font-size="14.00" fill="#000000">DatasetTableComponent </text>
</g>
<!-- DatasetsModule&#45;&gt;DatasetTableComponent  -->
<g id="edge15" class="edge">
<title>DatasetsModule&#45;&gt;DatasetTableComponent </title>
<path fill="none" stroke="#000000" stroke-dasharray="5,2" d="M1234,-187.1061C1234,-187.1061 1234,-205.991 1234,-205.991"/>
<polygon fill="#000000" stroke="#000000" points="1230.5001,-205.9909 1234,-215.991 1237.5001,-205.991 1230.5001,-205.9909"/>
</g>
<!-- CommonModule -->
<g id="node7" class="node">
<title>CommonModule</title>
<polygon fill="#8dd3c7" stroke="#000000" points="1594.6681,-122 1591.6681,-126 1570.6681,-126 1567.6681,-122 1483.3319,-122 1483.3319,-86 1594.6681,-86 1594.6681,-122"/>
<text text-anchor="middle" x="1539" y="-99.8" font-family="Times,serif" font-size="14.00" fill="#000000">CommonModule</text>
</g>
<!-- CommonModule&#45;&gt;DatasetsModule -->
<g id="edge6" class="edge">
<title>CommonModule&#45;&gt;DatasetsModule</title>
<path fill="none" stroke="#000000" d="M1539,-122.027C1539,-138.3976 1539,-160 1539,-160 1539,-160 1297.476,-160 1297.476,-160"/>
<polygon fill="#000000" stroke="#000000" points="1297.476,-156.5001 1287.476,-160 1297.4759,-163.5001 1297.476,-156.5001"/>
</g>
<!-- FormsModule -->
<g id="node8" class="node">
<title>FormsModule</title>
<polygon fill="#8dd3c7" stroke="#000000" points="1465.8288,-122 1462.8288,-126 1441.8288,-126 1438.8288,-122 1370.1712,-122 1370.1712,-86 1465.8288,-86 1465.8288,-122"/>
<text text-anchor="middle" x="1418" y="-99.8" font-family="Times,serif" font-size="14.00" fill="#000000">FormsModule</text>
</g>
<!-- FormsModule&#45;&gt;DatasetsModule -->
<g id="edge7" class="edge">
<title>FormsModule&#45;&gt;DatasetsModule</title>
<path fill="none" stroke="#000000" d="M1418,-122.1871C1418,-137.1824 1418,-156 1418,-156 1418,-156 1297.715,-156 1297.715,-156"/>
<polygon fill="#000000" stroke="#000000" points="1297.7151,-152.5001 1287.715,-156 1297.715,-159.5001 1297.7151,-152.5001"/>
</g>
<!-- DialogModule -->
<g id="node9" class="node">
<title>DialogModule</title>
<polygon fill="#8dd3c7" stroke="#000000" points="1352.6528,-122 1349.6528,-126 1328.6528,-126 1325.6528,-122 1255.3472,-122 1255.3472,-86 1352.6528,-86 1352.6528,-122"/>
<text text-anchor="middle" x="1304" y="-99.8" font-family="Times,serif" font-size="14.00" fill="#000000">DialogModule</text>
</g>
<!-- DialogModule&#45;&gt;DatasetsModule -->
<g id="edge8" class="edge">
<title>DialogModule&#45;&gt;DatasetsModule</title>
<path fill="none" stroke="#000000" d="M1271.3296,-122.1061C1271.3296,-122.1061 1271.3296,-140.991 1271.3296,-140.991"/>
<polygon fill="#000000" stroke="#000000" points="1267.8297,-140.9909 1271.3296,-150.991 1274.8297,-140.991 1267.8297,-140.9909"/>
</g>
<!-- ReactiveFormsModule -->
<g id="node10" class="node">
<title>ReactiveFormsModule</title>
<polygon fill="#8dd3c7" stroke="#000000" points="1237.3047,-122 1234.3047,-126 1213.3047,-126 1210.3047,-122 1092.6953,-122 1092.6953,-86 1237.3047,-86 1237.3047,-122"/>
<text text-anchor="middle" x="1165" y="-99.8" font-family="Times,serif" font-size="14.00" fill="#000000">ReactiveFormsModule</text>
</g>
<!-- ReactiveFormsModule&#45;&gt;DatasetsModule -->
<g id="edge9" class="edge">
<title>ReactiveFormsModule&#45;&gt;DatasetsModule</title>
<path fill="none" stroke="#000000" d="M1208.8335,-122.1061C1208.8335,-122.1061 1208.8335,-140.991 1208.8335,-140.991"/>
<polygon fill="#000000" stroke="#000000" points="1205.3335,-140.9909 1208.8335,-150.991 1212.3335,-140.991 1205.3335,-140.9909"/>
</g>
<!-- SharedCatanieModule -->
<g id="node11" class="node">
<title>SharedCatanieModule</title>
<polygon fill="#8dd3c7" stroke="#000000" points="1074.6839,-122 1071.6839,-126 1050.6839,-126 1047.6839,-122 933.3161,-122 933.3161,-86 1074.6839,-86 1074.6839,-122"/>
<text text-anchor="middle" x="1004" y="-99.8" font-family="Times,serif" font-size="14.00" fill="#000000">SharedCatanieModule</text>
</g>
<!-- SharedCatanieModule&#45;&gt;DatasetsModule -->
<g id="edge10" class="edge">
<title>SharedCatanieModule&#45;&gt;DatasetsModule</title>
<path fill="none" stroke="#000000" d="M1004,-122.1871C1004,-137.1824 1004,-156 1004,-156 1004,-156 1170.3655,-156 1170.3655,-156"/>
<polygon fill="#000000" stroke="#000000" points="1170.3655,-159.5001 1180.3655,-156 1170.3655,-152.5001 1170.3655,-159.5001"/>
</g>
<!-- DataTableModule -->
<g id="node12" class="node">
<title>DataTableModule</title>
<polygon fill="#8dd3c7" stroke="#000000" points="914.8487,-122 911.8487,-126 890.8487,-126 887.8487,-122 797.1513,-122 797.1513,-86 914.8487,-86 914.8487,-122"/>
<text text-anchor="middle" x="856" y="-99.8" font-family="Times,serif" font-size="14.00" fill="#000000">DataTableModule</text>
</g>
<!-- DataTableModule&#45;&gt;DatasetsModule -->
<g id="edge11" class="edge">
<title>DataTableModule&#45;&gt;DatasetsModule</title>
<path fill="none" stroke="#000000" d="M856,-122.027C856,-138.3976 856,-160 856,-160 856,-160 1170.2433,-160 1170.2433,-160"/>
<polygon fill="#000000" stroke="#000000" points="1170.2433,-163.5001 1180.2433,-160 1170.2432,-156.5001 1170.2433,-163.5001"/>
</g>
<!-- SharedModule -->
<g id="node13" class="node">
<title>SharedModule</title>
<polygon fill="#8dd3c7" stroke="#000000" points="779.4231,-122 776.4231,-126 755.4231,-126 752.4231,-122 680.5769,-122 680.5769,-86 779.4231,-86 779.4231,-122"/>
<text text-anchor="middle" x="730" y="-99.8" font-family="Times,serif" font-size="14.00" fill="#000000">SharedModule</text>
</g>
<!-- SharedModule&#45;&gt;DatasetsModule -->
<g id="edge12" class="edge">
<title>SharedModule&#45;&gt;DatasetsModule</title>
<path fill="none" stroke="#000000" d="M730,-122.302C730,-140.2699 730,-165 730,-165 730,-165 1170.0632,-165 1170.0632,-165"/>
<polygon fill="#000000" stroke="#000000" points="1170.0632,-168.5001 1180.0632,-165 1170.0631,-161.5001 1170.0632,-168.5001"/>
</g>
<!-- TabViewModule -->
<g id="node14" class="node">
<title>TabViewModule</title>
<polygon fill="#8dd3c7" stroke="#000000" points="662.636,-122 659.636,-126 638.636,-126 635.636,-122 551.364,-122 551.364,-86 662.636,-86 662.636,-122"/>
<text text-anchor="middle" x="607" y="-99.8" font-family="Times,serif" font-size="14.00" fill="#000000">TabViewModule</text>
</g>
<!-- TabViewModule&#45;&gt;DatasetsModule -->
<g id="edge13" class="edge">
<title>TabViewModule&#45;&gt;DatasetsModule</title>
<path fill="none" stroke="#000000" d="M607,-122.1061C607,-141.3391 607,-169 607,-169 607,-169 1170.2713,-169 1170.2713,-169"/>
<polygon fill="#000000" stroke="#000000" points="1170.2713,-172.5001 1180.2713,-169 1170.2712,-165.5001 1170.2713,-172.5001"/>
</g>
<!-- ConfirmDialogModule -->
<g id="node15" class="node">
<title>ConfirmDialogModule</title>
<polygon fill="#8dd3c7" stroke="#000000" points="533.5912,-122 530.5912,-126 509.5912,-126 506.5912,-122 388.4088,-122 388.4088,-86 533.5912,-86 533.5912,-122"/>
<text text-anchor="middle" x="461" y="-99.8" font-family="Times,serif" font-size="14.00" fill="#000000">ConfirmDialogModule</text>
</g>
<!-- ConfirmDialogModule&#45;&gt;DatasetsModule -->
<g id="edge14" class="edge">
<title>ConfirmDialogModule&#45;&gt;DatasetsModule</title>
<path fill="none" stroke="#000000" d="M461,-122.0267C461,-142.7672 461,-174 461,-174 461,-174 1170.2579,-174 1170.2579,-174"/>
<polygon fill="#000000" stroke="#000000" points="1170.2579,-177.5001 1180.2579,-174 1170.2578,-170.5001 1170.2579,-177.5001"/>
</g>
<!-- DatasetService -->
<g id="node17" class="node">
<title>DatasetService</title>
<ellipse fill="#fdb462" stroke="#000000" cx="295" cy="-104" rx="68.8927" ry="18"/>
<text text-anchor="middle" x="295" y="-99.8" font-family="Times,serif" font-size="14.00" fill="#000000">DatasetService</text>
</g>
<!-- DatasetService&#45;&gt;DatasetsModule -->
<g id="edge16" class="edge">
<title>DatasetService&#45;&gt;DatasetsModule</title>
<path fill="none" stroke="#000000" d="M295,-122.2921C295,-144.2057 295,-178 295,-178 295,-178 1170.4842,-178 1170.4842,-178"/>
<polygon fill="#000000" stroke="#000000" points="1170.4843,-181.5001 1180.4842,-178 1170.4842,-174.5001 1170.4843,-181.5001"/>
</g>
<!-- ConfirmationService -->
<g id="node18" class="node">
<title>ConfirmationService</title>
<ellipse fill="#fdb462" stroke="#000000" cx="116" cy="-104" rx="92.0509" ry="18"/>
<text text-anchor="middle" x="116" y="-99.8" font-family="Times,serif" font-size="14.00" fill="#000000">ConfirmationService</text>
</g>
<!-- ConfirmationService&#45;&gt;DatasetsModule -->
<g id="edge17" class="edge">
<title>ConfirmationService&#45;&gt;DatasetsModule</title>
<path fill="none" stroke="#000000" d="M116,-122.3228C116,-145.6602 116,-183 116,-183 116,-183 1170.4532,-183 1170.4532,-183"/>
<polygon fill="#000000" stroke="#000000" points="1170.4532,-186.5001 1180.4532,-183 1170.4532,-179.5001 1170.4532,-186.5001"/>
</g>
</g>
</svg>
