<?xml version="1.0" standalone="no"?>
<!DOCTYPE svg PUBLIC "-//W3C//DTD SVG 20010904//EN"
 "http://www.w3.org/TR/2001/REC-SVG-20010904/DTD/svg10.dtd">
<svg version="1.0" xmlns="http://www.w3.org/2000/svg"
 width="250.000000pt" height="250.000000pt" viewBox="0 0 250.000000 250.000000"
 preserveAspectRatio="xMidYMid meet">
<metadata>
Created by potrace 1.11, written by Peter Selinger 2001-2013
</metadata>
<g transform="translate(0.000000,250.000000) scale(0.100000,-0.100000)"
fill="#000000" stroke="none">
<path d="M2360 2385 l0 -56 50 2 50 3 0 53 0 53 -50 0 -50 0 0 -55z"/>
<path d="M152 2383 l3 -48 45 0 45 0 0 45 0 45 -48 3 -48 3 3 -48z"/>
<path d="M350 2381 l0 -51 39 0 c46 0 48 2 53 55 l3 40 -47 3 -48 3 0 -50z"/>
<path d="M548 2405 c-3 -14 -3 -36 0 -50 4 -22 9 -25 47 -25 39 0 43 2 46 28
9 60 1 72 -46 72 -38 0 -43 -3 -47 -25z"/>
<path d="M1237 2415 c-21 -7 -49 -25 -62 -39 -27 -29 -27 -35 -25 -196 1 -96
-9 -118 -57 -126 -38 -6 -63 23 -63 74 0 45 -34 109 -68 125 -44 22 -122 21
-160 -3 -49 -30 -62 -72 -62 -200 l0 -111 -47 3 -48 3 -3 143 -3 142 -244 0
-245 0 0 -45 0 -45 183 -1 c100 -1 189 -2 197 -3 12 -1 15 -18 15 -89 0 -49
-2 -93 -5 -98 -4 -5 -26 -11 -50 -14 -88 -11 -140 -67 -140 -150 0 -57 31
-102 88 -127 26 -11 49 -22 52 -25 2 -2 5 -162 6 -356 l1 -352 -236 -240
c-130 -132 -242 -243 -249 -248 -19 -12 -6 -99 23 -165 32 -70 113 -154 178
-183 52 -24 52 -24 472 -24 332 0 428 3 460 14 59 20 130 76 173 135 21 30 44
52 53 51 31 -5 122 15 164 35 50 24 119 89 142 134 23 45 52 142 44 153 -6 8
-103 11 -393 13 l-117 0 -162 162 -162 162 1 326 c0 179 1 339 1 356 1 28 6
33 46 49 64 24 98 72 98 136 1 81 -52 135 -141 146 l-52 6 0 106 c0 116 6 131
51 131 35 0 47 -16 59 -80 6 -30 17 -65 26 -78 47 -72 196 -59 244 21 17 27
20 51 20 144 0 118 9 143 49 143 38 0 42 -21 44 -258 l2 -230 48 0 47 -1 0
241 c0 227 -1 243 -21 275 -36 58 -106 82 -172 58z m-325 -592 c10 -9 18 -23
18 -32 0 -34 -19 -46 -82 -51 l-62 -5 -3 -85 c-2 -47 -5 -91 -8 -97 -2 -7 -20
-13 -40 -13 -19 0 -35 -4 -36 -10 -1 -5 -1 -21 -1 -35 0 -50 1 -53 31 -50 43
4 53 -7 49 -56 -3 -40 -5 -44 -32 -46 -48 -3 -54 -9 -52 -50 3 -36 5 -38 42
-43 39 -5 39 -5 42 -52 3 -44 1 -48 -20 -49 -13 -1 -27 -1 -32 0 -19 4 -34
-22 -31 -57 2 -36 3 -37 43 -40 l42 -3 0 -50 c0 -27 -3 -49 -7 -50 -5 -1 -23
-2 -42 -3 -32 -2 -35 -4 -36 -36 -3 -48 9 -59 65 -58 l49 0 235 -235 235 -235
-11 -38 c-16 -61 -64 -121 -121 -154 l-52 -30 -400 1 c-220 1 -413 5 -430 10
-66 19 -145 109 -159 180 -6 35 -3 39 94 140 56 57 164 168 242 245 l140 142
-1 375 c-1 207 2 378 7 381 5 3 27 6 51 7 l42 3 -3 45 -3 46 -105 3 c-92 2
-107 5 -122 23 -9 11 -14 28 -11 37 13 39 30 42 247 42 181 0 212 -2 228 -17z"/>
<path d="M565 650 l-71 -5 -149 -146 -149 -147 27 -36 c17 -22 42 -40 65 -46
25 -8 165 -10 424 -8 374 3 387 4 415 24 15 12 35 33 43 47 15 27 15 27 -131
172 l-145 146 -130 2 c-71 1 -161 0 -199 -3z"/>
<path d="M1602 2396 c-24 -13 -62 -55 -63 -69 0 -7 -1 -52 0 -101 0 -87 1 -90
33 -123 31 -32 34 -33 115 -33 l83 0 1 -27 c0 -16 2 -41 3 -56 3 -43 -1 -44
-176 -46 l-58 -1 0 -33 c0 -22 8 -41 23 -54 20 -19 33 -21 137 -20 l116 2 34
35 c35 35 35 36 33 120 0 47 -2 93 -2 102 -1 10 -15 33 -32 52 -30 35 -32 35
-117 38 l-87 3 0 55 c0 37 4 55 13 56 6 1 59 2 116 3 l104 1 4 30 c3 22 -2 36
-19 52 -22 20 -34 22 -134 23 -60 0 -117 -4 -127 -9z"/>
<path d="M1999 2253 l-34 -38 1 -153 0 -152 33 -37 33 -38 98 -2 97 -2 38 39
c36 37 43 73 13 69 -7 -1 -57 -1 -111 0 l-98 1 3 123 3 122 85 1 c137 3 140 3
140 18 0 8 -14 30 -32 50 l-32 36 -102 0 -102 0 -33 -37z"/>
<path d="M2364 2275 c-3 -6 -3 -107 -2 -225 l3 -215 48 0 47 0 -2 225 -3 225
-43 1 c-24 0 -46 -5 -48 -11z"/>
<path d="M1140 1689 l0 -49 45 0 c36 0 45 -4 46 -17 3 -62 4 -462 1 -480 -3
-13 -9 -23 -14 -23 -5 0 -39 -15 -75 -32 -65 -33 -193 -141 -193 -164 0 -7 14
-24 31 -38 l31 -26 60 55 c63 59 125 95 198 116 25 7 49 16 54 20 5 4 10 138
10 296 l2 288 47 3 47 3 0 -294 0 -294 73 -23 c190 -60 307 -206 322 -403 12
-160 -92 -344 -237 -416 -71 -36 -156 -55 -214 -48 -39 4 -46 1 -79 -33 l-36
-37 39 -12 c140 -47 338 15 467 145 262 264 185 705 -151 866 l-84 41 2 251 3
251 45 5 45 5 0 45 0 45 -243 1 -242 1 0 -48z"/>
<path d="M2370 1621 c-32 -17 -35 -23 -35 -63 0 -27 -8 -56 -20 -74 -26 -39
-27 -54 -4 -54 17 0 19 -8 20 -97 1 -136 2 -143 34 -170 22 -20 36 -23 78 -21
51 3 52 3 53 36 1 36 -12 46 -69 51 -4 1 -7 45 -6 100 1 83 4 98 18 98 60 0
61 1 61 43 0 28 -4 40 -15 41 -8 1 -25 2 -37 3 -21 1 -23 7 -26 56 -2 30 -6
58 -10 62 -4 4 -23 -1 -42 -11z"/>
<path d="M1680 1578 c-24 -31 -25 -36 -26 -207 -1 -176 -1 -176 24 -203 24
-26 31 -28 112 -28 83 0 87 1 115 30 19 20 26 33 19 40 -5 5 -49 11 -97 12
-49 2 -87 7 -88 13 -3 54 0 277 4 281 3 3 45 7 93 8 48 1 89 6 91 12 2 5 -11
24 -28 42 -30 31 -34 32 -113 32 -79 0 -82 -1 -106 -32z"/>
<path d="M2046 1512 c-28 -6 -76 -56 -67 -70 5 -8 39 -14 92 -16 46 -2 87 -4
92 -5 4 -1 7 -12 7 -26 0 -24 -2 -25 -64 -25 -60 0 -67 -3 -100 -34 -33 -30
-36 -39 -36 -87 0 -44 5 -58 27 -81 23 -24 35 -28 82 -28 37 0 60 5 73 17 18
16 21 16 54 -2 19 -10 36 -16 39 -14 2 3 5 75 6 160 3 155 3 156 -23 184 -23
24 -33 27 -95 29 -38 0 -78 -1 -87 -2z m117 -231 c5 -1 7 -13 5 -28 -3 -26 -7
-28 -54 -31 -46 -3 -52 -1 -58 20 -10 38 16 47 107 39z"/>
</g>
</svg>
