<?xml version="1.0" encoding="UTF-8" standalone="no"?>
<!DOCTYPE svg PUBLIC "-//W3C//DTD SVG 1.1//EN"
 "http://www.w3.org/Graphics/SVG/1.1/DTD/svg11.dtd">
<!-- Generated by graphviz version 2.40.1 (20161225.0304)
 -->
<!-- Title: dependencies Pages: 1 -->
<svg width="504pt" height="211pt"
 viewBox="0.00 0.00 504.00 211.00" xmlns="http://www.w3.org/2000/svg" xmlns:xlink="http://www.w3.org/1999/xlink">
<g id="graph0" class="graph" transform="scale(1 1) rotate(0) translate(4 207)">
<title>dependencies</title>
<polygon fill="#ffffff" stroke="transparent" points="-4,4 -4,-207 500,-207 500,4 -4,4"/>
<text text-anchor="start" x="227.0091" y="-42.4" font-family="sans-serif" font-weight="bold" font-size="14.00" fill="#000000">Legend</text>
<polygon fill="#ffffb3" stroke="transparent" points="14,-10 14,-30 34,-30 34,-10 14,-10"/>
<text text-anchor="start" x="37.629" y="-15.4" font-family="sans-serif" font-size="14.00" fill="#000000"> &#160;Declarations</text>
<polygon fill="#8dd3c7" stroke="transparent" points="127,-10 127,-30 147,-30 147,-10 127,-10"/>
<text text-anchor="start" x="150.7251" y="-15.4" font-family="sans-serif" font-size="14.00" fill="#000000"> &#160;Module</text>
<polygon fill="#80b1d3" stroke="transparent" points="213,-10 213,-30 233,-30 233,-10 213,-10"/>
<text text-anchor="start" x="236.7812" y="-15.4" font-family="sans-serif" font-size="14.00" fill="#000000"> &#160;Bootstrap</text>
<polygon fill="#fdb462" stroke="transparent" points="310,-10 310,-30 330,-30 330,-10 310,-10"/>
<text text-anchor="start" x="333.6732" y="-15.4" font-family="sans-serif" font-size="14.00" fill="#000000"> &#160;Providers</text>
<polygon fill="#fb8072" stroke="transparent" points="406,-10 406,-30 426,-30 426,-10 406,-10"/>
<text text-anchor="start" x="429.7258" y="-15.4" font-family="sans-serif" font-size="14.00" fill="#000000"> &#160;Exports</text>
<g id="clust1" class="cluster">
<title>cluster_SDKBrowserModule</title>
<polygon fill="none" stroke="#000000" stroke-dasharray="1,5" points="78.5,-70 78.5,-195 417.5,-195 417.5,-70 78.5,-70"/>
</g>
<g id="clust6" class="cluster">
<title>cluster_SDKBrowserModule_providers</title>
<polygon fill="none" stroke="#000000" points="86.5,-78 86.5,-130 409.5,-130 409.5,-78 86.5,-78"/>
</g>
<!-- ErrorHandler -->
<g id="node1" class="node">
<title>ErrorHandler</title>
<ellipse fill="#fdb462" stroke="#000000" cx="338.5" cy="-104" rx="62.518" ry="18"/>
<text text-anchor="middle" x="338.5" y="-99.8" font-family="Times,serif" font-size="14.00" fill="#000000">ErrorHandler</text>
</g>
<!-- SDKBrowserModule -->
<g id="node3" class="node">
<title>SDKBrowserModule</title>
<polygon fill="#8dd3c7" stroke="#000000" points="324.9692,-187 321.9692,-191 300.9692,-191 297.9692,-187 190.0308,-187 190.0308,-151 324.9692,-151 324.9692,-187"/>
<text text-anchor="middle" x="257.5" y="-164.8" font-family="Times,serif" font-size="14.00" fill="#000000">SDKBrowserModule</text>
</g>
<!-- ErrorHandler&#45;&gt;SDKBrowserModule -->
<g id="edge1" class="edge">
<title>ErrorHandler&#45;&gt;SDKBrowserModule</title>
<path fill="none" stroke="#000000" d="M300.4878,-118.4256C300.4878,-118.4256 300.4878,-140.8939 300.4878,-140.8939"/>
<polygon fill="#000000" stroke="#000000" points="296.9879,-140.8938 300.4878,-150.8939 303.9879,-140.8939 296.9879,-140.8938"/>
</g>
<!-- SocketConnection -->
<g id="node2" class="node">
<title>SocketConnection</title>
<ellipse fill="#fdb462" stroke="#000000" cx="176.5" cy="-104" rx="81.6847" ry="18"/>
<text text-anchor="middle" x="176.5" y="-99.8" font-family="Times,serif" font-size="14.00" fill="#000000">SocketConnection</text>
</g>
<!-- SocketConnection&#45;&gt;SDKBrowserModule -->
<g id="edge2" class="edge">
<title>SocketConnection&#45;&gt;SDKBrowserModule</title>
<path fill="none" stroke="#000000" d="M224.1788,-118.7495C224.1788,-118.7495 224.1788,-140.5882 224.1788,-140.5882"/>
<polygon fill="#000000" stroke="#000000" points="220.6789,-140.5881 224.1788,-150.5882 227.6789,-140.5882 220.6789,-140.5881"/>
</g>
</g>
</svg>
