<?xml version="1.0" encoding="UTF-8" standalone="no"?>
<!DOCTYPE svg PUBLIC "-//W3C//DTD SVG 1.1//EN"
 "http://www.w3.org/Graphics/SVG/1.1/DTD/svg11.dtd">
<!-- Generated by graphviz version 2.40.1 (20161225.0304)
 -->
<!-- Title: dependencies Pages: 1 -->
<svg width="601pt" height="211pt"
 viewBox="0.00 0.00 601.00 211.00" xmlns="http://www.w3.org/2000/svg" xmlns:xlink="http://www.w3.org/1999/xlink">
<g id="graph0" class="graph" transform="scale(1 1) rotate(0) translate(4 207)">
<title>dependencies</title>
<polygon fill="#ffffff" stroke="transparent" points="-4,4 -4,-207 597,-207 597,4 -4,4"/>
<text text-anchor="start" x="275.5091" y="-42.4" font-family="sans-serif" font-weight="bold" font-size="14.00" fill="#000000">Legend</text>
<polygon fill="#ffffb3" stroke="transparent" points="62.5,-10 62.5,-30 82.5,-30 82.5,-10 62.5,-10"/>
<text text-anchor="start" x="86.129" y="-15.4" font-family="sans-serif" font-size="14.00" fill="#000000"> &#160;Declarations</text>
<polygon fill="#8dd3c7" stroke="transparent" points="175.5,-10 175.5,-30 195.5,-30 195.5,-10 175.5,-10"/>
<text text-anchor="start" x="199.2251" y="-15.4" font-family="sans-serif" font-size="14.00" fill="#000000"> &#160;Module</text>
<polygon fill="#80b1d3" stroke="transparent" points="261.5,-10 261.5,-30 281.5,-30 281.5,-10 261.5,-10"/>
<text text-anchor="start" x="285.2812" y="-15.4" font-family="sans-serif" font-size="14.00" fill="#000000"> &#160;Bootstrap</text>
<polygon fill="#fdb462" stroke="transparent" points="358.5,-10 358.5,-30 378.5,-30 378.5,-10 358.5,-10"/>
<text text-anchor="start" x="382.1732" y="-15.4" font-family="sans-serif" font-size="14.00" fill="#000000"> &#160;Providers</text>
<polygon fill="#fb8072" stroke="transparent" points="454.5,-10 454.5,-30 474.5,-30 474.5,-10 454.5,-10"/>
<text text-anchor="start" x="478.2258" y="-15.4" font-family="sans-serif" font-size="14.00" fill="#000000"> &#160;Exports</text>
<g id="clust1" class="cluster">
<title>cluster_SDKBrowserModule</title>
<polygon fill="none" stroke="#000000" stroke-dasharray="1,5" points="8,-70 8,-195 585,-195 585,-70 8,-70"/>
</g>
<g id="clust3" class="cluster">
<title>cluster_SDKBrowserModule_imports</title>
<polygon fill="none" stroke="#000000" points="347,-78 347,-130 577,-130 577,-78 347,-78"/>
</g>
<g id="clust6" class="cluster">
<title>cluster_SDKBrowserModule_providers</title>
<polygon fill="none" stroke="#000000" points="16,-78 16,-130 339,-130 339,-78 16,-78"/>
</g>
<!-- CommonModule -->
<g id="node1" class="node">
<title>CommonModule</title>
<polygon fill="#8dd3c7" stroke="#000000" points="568.6681,-122 565.6681,-126 544.6681,-126 541.6681,-122 457.3319,-122 457.3319,-86 568.6681,-86 568.6681,-122"/>
<text text-anchor="middle" x="513" y="-99.8" font-family="Times,serif" font-size="14.00" fill="#000000">CommonModule</text>
</g>
<!-- SDKBrowserModule -->
<g id="node3" class="node">
<title>SDKBrowserModule</title>
<polygon fill="#8dd3c7" stroke="#000000" points="399.4692,-187 396.4692,-191 375.4692,-191 372.4692,-187 264.5308,-187 264.5308,-151 399.4692,-151 399.4692,-187"/>
<text text-anchor="middle" x="332" y="-164.8" font-family="Times,serif" font-size="14.00" fill="#000000">SDKBrowserModule</text>
</g>
<!-- CommonModule&#45;&gt;SDKBrowserModule -->
<g id="edge1" class="edge">
<title>CommonModule&#45;&gt;SDKBrowserModule</title>
<path fill="none" stroke="#000000" d="M513,-122.1061C513,-141.3391 513,-169 513,-169 513,-169 409.6551,-169 409.6551,-169"/>
<polygon fill="#000000" stroke="#000000" points="409.6551,-165.5001 399.6551,-169 409.6551,-172.5001 409.6551,-165.5001"/>
</g>
<!-- HttpModule -->
<g id="node2" class="node">
<title>HttpModule</title>
<polygon fill="#8dd3c7" stroke="#000000" points="439.4387,-122 436.4387,-126 415.4387,-126 412.4387,-122 354.5613,-122 354.5613,-86 439.4387,-86 439.4387,-122"/>
<text text-anchor="middle" x="397" y="-99.8" font-family="Times,serif" font-size="14.00" fill="#000000">HttpModule</text>
</g>
<!-- HttpModule&#45;&gt;SDKBrowserModule -->
<g id="edge2" class="edge">
<title>HttpModule&#45;&gt;SDKBrowserModule</title>
<path fill="none" stroke="#000000" d="M377.1329,-122.1061C377.1329,-122.1061 377.1329,-140.991 377.1329,-140.991"/>
<polygon fill="#000000" stroke="#000000" points="373.633,-140.9909 377.1329,-150.991 380.633,-140.991 373.633,-140.9909"/>
</g>
<!-- ErrorHandler -->
<g id="node4" class="node">
<title>ErrorHandler</title>
<ellipse fill="#fdb462" stroke="#000000" cx="268" cy="-104" rx="62.518" ry="18"/>
<text text-anchor="middle" x="268" y="-99.8" font-family="Times,serif" font-size="14.00" fill="#000000">ErrorHandler</text>
</g>
<!-- ErrorHandler&#45;&gt;SDKBrowserModule -->
<g id="edge3" class="edge">
<title>ErrorHandler&#45;&gt;SDKBrowserModule</title>
<path fill="none" stroke="#000000" d="M297.5122,-120.0674C297.5122,-120.0674 297.5122,-140.8237 297.5122,-140.8237"/>
<polygon fill="#000000" stroke="#000000" points="294.0123,-140.8236 297.5122,-150.8237 301.0123,-140.8237 294.0123,-140.8236"/>
</g>
<!-- SocketConnection -->
<g id="node5" class="node">
<title>SocketConnection</title>
<ellipse fill="#fdb462" stroke="#000000" cx="106" cy="-104" rx="81.6847" ry="18"/>
<text text-anchor="middle" x="106" y="-99.8" font-family="Times,serif" font-size="14.00" fill="#000000">SocketConnection</text>
</g>
<!-- SocketConnection&#45;&gt;SDKBrowserModule -->
<g id="edge4" class="edge">
<title>SocketConnection&#45;&gt;SDKBrowserModule</title>
<path fill="none" stroke="#000000" d="M106,-122.1061C106,-141.3391 106,-169 106,-169 106,-169 254.4987,-169 254.4987,-169"/>
<polygon fill="#000000" stroke="#000000" points="254.4987,-172.5001 264.4987,-169 254.4986,-165.5001 254.4987,-172.5001"/>
</g>
</g>
</svg>
