<?xml version="1.0" encoding="UTF-8" standalone="no"?>
<!DOCTYPE svg PUBLIC "-//W3C//DTD SVG 1.1//EN"
 "http://www.w3.org/Graphics/SVG/1.1/DTD/svg11.dtd">
<!-- Generated by graphviz version 2.40.1 (20161225.0304)
 -->
<!-- Title: dependencies Pages: 1 -->
<svg width="4792pt" height="504pt"
 viewBox="0.00 0.00 4792.00 504.00" xmlns="http://www.w3.org/2000/svg" xmlns:xlink="http://www.w3.org/1999/xlink">
<g id="graph0" class="graph" transform="scale(1 1) rotate(0) translate(4 500)">
<title>dependencies</title>
<polygon fill="#ffffff" stroke="transparent" points="-4,4 -4,-500 4788,-500 4788,4 -4,4"/>
<text text-anchor="start" x="2371.0091" y="-42.4" font-family="sans-serif" font-weight="bold" font-size="14.00" fill="#000000">Legend</text>
<polygon fill="#ffffb3" stroke="transparent" points="2158,-10 2158,-30 2178,-30 2178,-10 2158,-10"/>
<text text-anchor="start" x="2181.629" y="-15.4" font-family="sans-serif" font-size="14.00" fill="#000000"> &#160;Declarations</text>
<polygon fill="#8dd3c7" stroke="transparent" points="2271,-10 2271,-30 2291,-30 2291,-10 2271,-10"/>
<text text-anchor="start" x="2294.7251" y="-15.4" font-family="sans-serif" font-size="14.00" fill="#000000"> &#160;Module</text>
<polygon fill="#80b1d3" stroke="transparent" points="2357,-10 2357,-30 2377,-30 2377,-10 2357,-10"/>
<text text-anchor="start" x="2380.7812" y="-15.4" font-family="sans-serif" font-size="14.00" fill="#000000"> &#160;Bootstrap</text>
<polygon fill="#fdb462" stroke="transparent" points="2454,-10 2454,-30 2474,-30 2474,-10 2454,-10"/>
<text text-anchor="start" x="2477.6732" y="-15.4" font-family="sans-serif" font-size="14.00" fill="#000000"> &#160;Providers</text>
<polygon fill="#fb8072" stroke="transparent" points="2550,-10 2550,-30 2570,-30 2570,-10 2550,-10"/>
<text text-anchor="start" x="2573.7258" y="-15.4" font-family="sans-serif" font-size="14.00" fill="#000000"> &#160;Exports</text>
<g id="clust1" class="cluster">
<title>cluster_AppModule</title>
<polygon fill="none" stroke="#000000" stroke-dasharray="1,5" points="745,-214 745,-488 1875,-488 1875,-214 745,-214"/>
</g>
<g id="clust2" class="cluster">
<title>cluster_AppModule_declarations</title>
<polygon fill="none" stroke="#000000" points="785,-298 785,-350 1543,-350 1543,-298 785,-298"/>
</g>
<g id="clust3" class="cluster">
<title>cluster_AppModule_AppComponent_providers</title>
<polygon fill="none" stroke="#000000" points="1247,-222 1247,-274 1351,-274 1351,-222 1247,-222"/>
</g>
<g id="clust8" class="cluster">
<title>cluster_AppModule_imports</title>
<polygon fill="none" stroke="#000000" points="1563,-222 1563,-350 1867,-350 1867,-222 1563,-222"/>
</g>
<g id="clust10" class="cluster">
<title>cluster_AppModule_bootstrap</title>
<polygon fill="none" stroke="#000000" points="1350,-428 1350,-480 1474,-480 1474,-428 1350,-428"/>
</g>
<g id="clust11" class="cluster">
<title>cluster_AppModule_providers</title>
<polygon fill="none" stroke="#000000" points="753,-222 753,-274 1035,-274 1035,-222 753,-222"/>
</g>
<g id="clust18" class="cluster">
<title>cluster_BreadcrumbModule</title>
<polygon fill="none" stroke="#000000" stroke-dasharray="1,5" points="551,-70 551,-282 737,-282 737,-70 551,-70"/>
</g>
<g id="clust19" class="cluster">
<title>cluster_BreadcrumbModule_declarations</title>
<polygon fill="none" stroke="#000000" points="562,-78 562,-130 728,-130 728,-78 562,-78"/>
</g>
<g id="clust22" class="cluster">
<title>cluster_BreadcrumbModule_exports</title>
<polygon fill="none" stroke="#000000" points="559,-222 559,-274 729,-274 729,-222 559,-222"/>
</g>
<g id="clust25" class="cluster">
<title>cluster_ConfigFormModule</title>
<polygon fill="none" stroke="#000000" stroke-dasharray="1,5" points="1883,-70 1883,-282 2287,-282 2287,-70 1883,-70"/>
</g>
<g id="clust26" class="cluster">
<title>cluster_ConfigFormModule_declarations</title>
<polygon fill="none" stroke="#000000" points="1891,-78 1891,-130 2279,-130 2279,-78 1891,-78"/>
</g>
<g id="clust31" class="cluster">
<title>cluster_ConfigFormModule_exports</title>
<polygon fill="none" stroke="#000000" points="1960,-222 1960,-274 2130,-274 2130,-222 1960,-222"/>
</g>
<g id="clust34" class="cluster">
<title>cluster_DatasetsModule</title>
<polygon fill="none" stroke="#000000" stroke-dasharray="1,5" points="2477,-214 2477,-282 4115,-282 4115,-214 2477,-214"/>
</g>
<g id="clust35" class="cluster">
<title>cluster_DatasetsModule_declarations</title>
<polygon fill="none" stroke="#000000" points="3110,-222 3110,-274 4107,-274 4107,-222 3110,-222"/>
</g>
<g id="clust42" class="cluster">
<title>cluster_DatasetsModule_imports</title>
<polygon fill="none" stroke="#000000" points="2848,-222 2848,-274 3102,-274 3102,-222 2848,-222"/>
</g>
<g id="clust43" class="cluster">
<title>cluster_DatasetsModule_exports</title>
<polygon fill="none" stroke="#000000" points="2485,-222 2485,-274 2840,-274 2840,-222 2485,-222"/>
</g>
<g id="clust46" class="cluster">
<title>cluster_DatePickerModule</title>
<polygon fill="none" stroke="#000000" stroke-dasharray="1,5" points="2943,-138 2943,-206 3291,-206 3291,-138 2943,-138"/>
</g>
<g id="clust47" class="cluster">
<title>cluster_DatePickerModule_declarations</title>
<polygon fill="none" stroke="#000000" points="3123,-146 3123,-198 3283,-198 3283,-146 3123,-146"/>
</g>
<g id="clust50" class="cluster">
<title>cluster_DatePickerModule_exports</title>
<polygon fill="none" stroke="#000000" points="2951,-146 2951,-198 3115,-198 3115,-146 2951,-146"/>
</g>
<g id="clust53" class="cluster">
<title>cluster_DialogModule</title>
<polygon fill="none" stroke="#000000" stroke-dasharray="1,5" points="2783,-138 2783,-206 2935,-206 2935,-138 2783,-138"/>
</g>
<g id="clust54" class="cluster">
<title>cluster_DialogModule_declarations</title>
<polygon fill="none" stroke="#000000" points="2791,-146 2791,-198 2927,-198 2927,-146 2791,-146"/>
</g>
<g id="clust60" class="cluster">
<title>cluster_ErrorPageModule</title>
<polygon fill="none" stroke="#000000" stroke-dasharray="1,5" points="2295,-70 2295,-282 2469,-282 2469,-70 2295,-70"/>
</g>
<g id="clust61" class="cluster">
<title>cluster_ErrorPageModule_declarations</title>
<polygon fill="none" stroke="#000000" points="2304,-78 2304,-130 2458,-130 2458,-78 2304,-78"/>
</g>
<g id="clust64" class="cluster">
<title>cluster_ErrorPageModule_exports</title>
<polygon fill="none" stroke="#000000" points="2303,-222 2303,-274 2461,-274 2461,-222 2303,-222"/>
</g>
<g id="clust67" class="cluster">
<title>cluster_SDKBrowserModule</title>
<polygon fill="none" stroke="#000000" stroke-dasharray="1,5" points="3868,-70 3868,-198 4207,-198 4207,-70 3868,-70"/>
</g>
<g id="clust72" class="cluster">
<title>cluster_SDKBrowserModule_providers</title>
<polygon fill="none" stroke="#000000" points="3876,-78 3876,-130 4199,-130 4199,-78 3876,-78"/>
</g>
<g id="clust73" class="cluster">
<title>cluster_SharedCatanieModule</title>
<polygon fill="none" stroke="#000000" stroke-dasharray="1,5" points="8,-290 8,-358 737,-358 737,-290 8,-290"/>
</g>
<g id="clust76" class="cluster">
<title>cluster_SharedCatanieModule_exports</title>
<polygon fill="none" stroke="#000000" points="174,-298 174,-350 729,-350 729,-298 174,-298"/>
</g>
<g id="clust78" class="cluster">
<title>cluster_SharedCatanieModule_providers</title>
<polygon fill="none" stroke="#000000" points="16,-298 16,-350 166,-350 166,-298 16,-298"/>
</g>
<g id="clust79" class="cluster">
<title>cluster_UsersModule</title>
<polygon fill="none" stroke="#000000" stroke-dasharray="1,5" points="4123,-214 4123,-282 4776,-282 4776,-214 4123,-214"/>
</g>
<g id="clust80" class="cluster">
<title>cluster_UsersModule_declarations</title>
<polygon fill="none" stroke="#000000" points="4301,-222 4301,-274 4768,-274 4768,-222 4301,-222"/>
</g>
<g id="clust87" class="cluster">
<title>cluster_UsersModule_providers</title>
<polygon fill="none" stroke="#000000" points="4131,-222 4131,-274 4293,-274 4293,-222 4131,-222"/>
</g>
<!-- AppComponent -->
<g id="node1" class="node">
<title>AppComponent</title>
<polygon fill="#ffffb3" stroke="#000000" points="898.9399,-342 793.0601,-342 793.0601,-306 898.9399,-306 898.9399,-342"/>
<text text-anchor="middle" x="846" y="-319.8" font-family="Times,serif" font-size="14.00" fill="#000000">AppComponent</text>
</g>
<!-- AppModule -->
<g id="node6" class="node">
<title>AppModule</title>
<polygon fill="#8dd3c7" stroke="#000000" points="1453.6571,-407 1450.6571,-411 1429.6571,-411 1426.6571,-407 1370.3429,-407 1370.3429,-371 1453.6571,-371 1453.6571,-407"/>
<text text-anchor="middle" x="1412" y="-384.8" font-family="Times,serif" font-size="14.00" fill="#000000">AppModule</text>
</g>
<!-- AppComponent&#45;&gt;AppModule -->
<g id="edge1" class="edge">
<title>AppComponent&#45;&gt;AppModule</title>
<path fill="none" stroke="#000000" d="M846,-342.2843C846,-363.3211 846,-395 846,-395 846,-395 1359.9204,-395 1359.9204,-395"/>
<polygon fill="#000000" stroke="#000000" points="1359.9205,-398.5001 1369.9204,-395 1359.9204,-391.5001 1359.9205,-398.5001"/>
</g>
<!-- JobsComponent -->
<g id="node2" class="node">
<title>JobsComponent</title>
<polygon fill="#ffffb3" stroke="#000000" points="1535.2218,-342 1428.7782,-342 1428.7782,-306 1535.2218,-306 1535.2218,-342"/>
<text text-anchor="middle" x="1482" y="-319.8" font-family="Times,serif" font-size="14.00" fill="#000000">JobsComponent</text>
</g>
<!-- JobsComponent&#45;&gt;AppModule -->
<g id="edge3" class="edge">
<title>JobsComponent&#45;&gt;AppModule</title>
<path fill="none" stroke="#000000" d="M1441.3587,-342.1061C1441.3587,-342.1061 1441.3587,-360.991 1441.3587,-360.991"/>
<polygon fill="#000000" stroke="#000000" points="1437.8588,-360.9909 1441.3587,-370.991 1444.8588,-360.991 1437.8588,-360.9909"/>
</g>
<!-- JobsTableComponent -->
<g id="node3" class="node">
<title>JobsTableComponent</title>
<polygon fill="#ffffb3" stroke="#000000" points="1411.094,-342 1272.906,-342 1272.906,-306 1411.094,-306 1411.094,-342"/>
<text text-anchor="middle" x="1342" y="-319.8" font-family="Times,serif" font-size="14.00" fill="#000000">JobsTableComponent</text>
</g>
<!-- JobsTableComponent&#45;&gt;AppModule -->
<g id="edge4" class="edge">
<title>JobsTableComponent&#45;&gt;AppModule</title>
<path fill="none" stroke="#000000" d="M1390.6094,-342.1061C1390.6094,-342.1061 1390.6094,-360.991 1390.6094,-360.991"/>
<polygon fill="#000000" stroke="#000000" points="1387.1095,-360.9909 1390.6094,-370.991 1394.1095,-360.991 1387.1095,-360.9909"/>
</g>
<!-- SampleDataFormComponent -->
<g id="node4" class="node">
<title>SampleDataFormComponent</title>
<polygon fill="#ffffb3" stroke="#000000" points="1255.0856,-342 1074.9144,-342 1074.9144,-306 1255.0856,-306 1255.0856,-342"/>
<text text-anchor="middle" x="1165" y="-319.8" font-family="Times,serif" font-size="14.00" fill="#000000">SampleDataFormComponent</text>
</g>
<!-- SampleDataFormComponent&#45;&gt;AppModule -->
<g id="edge5" class="edge">
<title>SampleDataFormComponent&#45;&gt;AppModule</title>
<path fill="none" stroke="#000000" d="M1165,-342.2396C1165,-357.5706 1165,-377 1165,-377 1165,-377 1360.0998,-377 1360.0998,-377"/>
<polygon fill="#000000" stroke="#000000" points="1360.0999,-380.5001 1370.0998,-377 1360.0998,-373.5001 1360.0999,-380.5001"/>
</g>
<!-- JobsDetailComponent -->
<g id="node5" class="node">
<title>JobsDetailComponent</title>
<polygon fill="#ffffb3" stroke="#000000" points="1057.4299,-342 916.5701,-342 916.5701,-306 1057.4299,-306 1057.4299,-342"/>
<text text-anchor="middle" x="987" y="-319.8" font-family="Times,serif" font-size="14.00" fill="#000000">JobsDetailComponent</text>
</g>
<!-- JobsDetailComponent&#45;&gt;AppModule -->
<g id="edge6" class="edge">
<title>JobsDetailComponent&#45;&gt;AppModule</title>
<path fill="none" stroke="#000000" d="M987,-342.0225C987,-359.3734 987,-383 987,-383 987,-383 1360.0862,-383 1360.0862,-383"/>
<polygon fill="#000000" stroke="#000000" points="1360.0863,-386.5001 1370.0862,-383 1360.0862,-379.5001 1360.0863,-386.5001"/>
</g>
<!-- AppComponent  -->
<g id="node12" class="node">
<title>AppComponent </title>
<polygon fill="#80b1d3" stroke="#000000" points="1466.439,-472 1357.561,-472 1357.561,-436 1466.439,-436 1466.439,-472"/>
<text text-anchor="middle" x="1412" y="-449.8" font-family="Times,serif" font-size="14.00" fill="#000000">AppComponent </text>
</g>
<!-- AppModule&#45;&gt;AppComponent  -->
<g id="edge11" class="edge">
<title>AppModule&#45;&gt;AppComponent </title>
<path fill="none" stroke="#000000" stroke-dasharray="1,5" d="M1412,-407.1061C1412,-407.1061 1412,-425.991 1412,-425.991"/>
<polygon fill="#000000" stroke="#000000" points="1408.5001,-425.9909 1412,-435.991 1415.5001,-425.991 1408.5001,-425.9909"/>
</g>
<!-- UserApi -->
<g id="node7" class="node">
<title>UserApi</title>
<ellipse fill="#fdb462" stroke="#000000" cx="1299" cy="-248" rx="43.9983" ry="18"/>
<text text-anchor="middle" x="1299" y="-243.8" font-family="Times,serif" font-size="14.00" fill="#000000">UserApi</text>
</g>
<!-- UserApi&#45;&gt;AppComponent -->
<g id="edge2" class="edge">
<title>UserApi&#45;&gt;AppComponent</title>
<path fill="none" stroke="#000000" d="M1264.1023,-259.0279C1264.1023,-274.292 1264.1023,-300 1264.1023,-300 1264.1023,-300 893.8866,-300 893.8866,-300 893.8866,-300 893.8866,-300.581 893.8866,-300.581"/>
<polygon fill="#000000" stroke="#000000" points="890.3868,-295.8097 893.8866,-305.8097 897.3868,-295.8098 890.3868,-295.8097"/>
</g>
<!-- UserApi&#45;&gt;AppModule -->
<g id="edge14" class="edge">
<title>UserApi&#45;&gt;AppModule</title>
<path fill="none" stroke="#000000" d="M1340.2687,-254C1374.2949,-254 1416.9944,-254 1416.9944,-254 1416.9944,-254 1416.9944,-360.7933 1416.9944,-360.7933"/>
<polygon fill="#000000" stroke="#000000" points="1413.4945,-360.7933 1416.9944,-370.7933 1420.4945,-360.7933 1413.4945,-360.7933"/>
</g>
<!-- AppRoutingModule -->
<g id="node8" class="node">
<title>AppRoutingModule</title>
<polygon fill="#8dd3c7" stroke="#000000" points="1859.2744,-266 1856.2744,-270 1835.2744,-270 1832.2744,-266 1730.7256,-266 1730.7256,-230 1859.2744,-230 1859.2744,-266"/>
<text text-anchor="middle" x="1795" y="-243.8" font-family="Times,serif" font-size="14.00" fill="#000000">AppRoutingModule</text>
</g>
<!-- AppRoutingModule&#45;&gt;AppModule -->
<g id="edge7" class="edge">
<title>AppRoutingModule&#45;&gt;AppModule</title>
<path fill="none" stroke="#000000" d="M1758.3875,-266.1446C1758.3875,-304.2265 1758.3875,-389 1758.3875,-389 1758.3875,-389 1463.7824,-389 1463.7824,-389"/>
<polygon fill="#000000" stroke="#000000" points="1463.7825,-385.5001 1453.7824,-389 1463.7824,-392.5001 1463.7825,-385.5001"/>
</g>
<!-- SharedCatanieModule -->
<g id="node9" class="node">
<title>SharedCatanieModule</title>
<polygon fill="#8dd3c7" stroke="#000000" points="1712.6839,-266 1709.6839,-270 1688.6839,-270 1685.6839,-266 1571.3161,-266 1571.3161,-230 1712.6839,-230 1712.6839,-266"/>
<text text-anchor="middle" x="1642" y="-243.8" font-family="Times,serif" font-size="14.00" fill="#000000">SharedCatanieModule</text>
</g>
<!-- SharedCatanieModule&#45;&gt;AppModule -->
<g id="edge8" class="edge">
<title>SharedCatanieModule&#45;&gt;AppModule</title>
<path fill="none" stroke="#000000" d="M1571.1806,-242C1507.1796,-242 1422.9418,-242 1422.9418,-242 1422.9418,-242 1422.9418,-360.9749 1422.9418,-360.9749"/>
<polygon fill="#000000" stroke="#000000" points="1419.4419,-360.9749 1422.9418,-370.9749 1426.4419,-360.9749 1419.4419,-360.9749"/>
</g>
<!-- DatasetsModule -->
<g id="node10" class="node">
<title>DatasetsModule</title>
<polygon fill="#8dd3c7" stroke="#000000" points="1749.4706,-342 1746.4706,-346 1725.4706,-346 1722.4706,-342 1642.5294,-342 1642.5294,-306 1749.4706,-306 1749.4706,-342"/>
<text text-anchor="middle" x="1696" y="-319.8" font-family="Times,serif" font-size="14.00" fill="#000000">DatasetsModule</text>
</g>
<!-- SharedCatanieModule&#45;&gt;DatasetsModule -->
<g id="edge28" class="edge">
<title>SharedCatanieModule&#45;&gt;DatasetsModule</title>
<path fill="none" stroke="#000000" d="M1670.5456,-266.0109C1670.5456,-266.0109 1670.5456,-295.855 1670.5456,-295.855"/>
<polygon fill="#000000" stroke="#000000" points="1667.0457,-295.8549 1670.5456,-305.855 1674.0457,-295.855 1667.0457,-295.8549"/>
</g>
<!-- UsersModule -->
<g id="node11" class="node">
<title>UsersModule</title>
<polygon fill="#8dd3c7" stroke="#000000" points="1858.9218,-342 1855.9218,-346 1834.9218,-346 1831.9218,-342 1767.0782,-342 1767.0782,-306 1858.9218,-306 1858.9218,-342"/>
<text text-anchor="middle" x="1813" y="-319.8" font-family="Times,serif" font-size="14.00" fill="#000000">UsersModule</text>
</g>
<!-- SharedCatanieModule&#45;&gt;UsersModule -->
<g id="edge52" class="edge">
<title>SharedCatanieModule&#45;&gt;UsersModule</title>
<path fill="none" stroke="#000000" d="M1698.5765,-266.2819C1698.5765,-281.9478 1698.5765,-302 1698.5765,-302 1698.5765,-302 1813,-302 1813,-302 1813,-302 1813,-302.3832 1813,-302.3832"/>
<polygon fill="#000000" stroke="#000000" points="1809.5003,-295.832 1813,-305.8321 1816.5003,-295.8322 1809.5003,-295.832"/>
</g>
<!-- BreadcrumbModule  -->
<g id="node42" class="node">
<title>BreadcrumbModule </title>
<polygon fill="#fb8072" stroke="#000000" points="314.2422,-342 181.7578,-342 181.7578,-306 314.2422,-306 314.2422,-342"/>
<text text-anchor="middle" x="248" y="-319.8" font-family="Times,serif" font-size="14.00" fill="#000000">BreadcrumbModule </text>
</g>
<!-- SharedCatanieModule&#45;&gt;BreadcrumbModule  -->
<g id="edge44" class="edge">
<title>SharedCatanieModule&#45;&gt;BreadcrumbModule </title>
<path fill="none" stroke="#000000" stroke-dasharray="5,2" d="M1595.1103,-266.1679C1595.1103,-268.4478 1595.1103,-270 1595.1103,-270 1595.1103,-270 248,-270 248,-270 248,-270 248,-295.7181 248,-295.7181"/>
<polygon fill="#000000" stroke="#000000" points="244.5001,-295.718 248,-305.7181 251.5001,-295.7181 244.5001,-295.718"/>
</g>
<!-- ConfigFormModule  -->
<g id="node43" class="node">
<title>ConfigFormModule </title>
<polygon fill="#fb8072" stroke="#000000" points="721.2717,-342 588.7283,-342 588.7283,-306 721.2717,-306 721.2717,-342"/>
<text text-anchor="middle" x="655" y="-319.8" font-family="Times,serif" font-size="14.00" fill="#000000">ConfigFormModule </text>
</g>
<!-- SharedCatanieModule&#45;&gt;ConfigFormModule  -->
<g id="edge45" class="edge">
<title>SharedCatanieModule&#45;&gt;ConfigFormModule </title>
<path fill="none" stroke="#000000" stroke-dasharray="5,2" d="M1630.6636,-266.1097C1630.6636,-275.897 1630.6636,-286 1630.6636,-286 1630.6636,-286 654.9383,-286 654.9383,-286 654.9383,-286 654.9383,-295.8903 654.9383,-295.8903"/>
<polygon fill="#000000" stroke="#000000" points="651.4384,-295.8903 654.9383,-305.8903 658.4384,-295.8904 651.4384,-295.8903"/>
</g>
<!-- ErrorPageModule  -->
<g id="node44" class="node">
<title>ErrorPageModule </title>
<polygon fill="#fb8072" stroke="#000000" points="570.7962,-342 451.2038,-342 451.2038,-306 570.7962,-306 570.7962,-342"/>
<text text-anchor="middle" x="511" y="-319.8" font-family="Times,serif" font-size="14.00" fill="#000000">ErrorPageModule </text>
</g>
<!-- SharedCatanieModule&#45;&gt;ErrorPageModule  -->
<g id="edge46" class="edge">
<title>SharedCatanieModule&#45;&gt;ErrorPageModule </title>
<path fill="none" stroke="#000000" stroke-dasharray="5,2" d="M1618.8125,-266.4218C1618.8125,-275.2791 1618.8125,-284 1618.8125,-284 1618.8125,-284 509.0449,-284 509.0449,-284 509.0449,-284 509.0449,-295.8726 509.0449,-295.8726"/>
<polygon fill="#000000" stroke="#000000" points="505.5449,-295.8725 509.0449,-305.8726 512.5449,-295.8726 505.5449,-295.8725"/>
</g>
<!-- DialogModule  -->
<g id="node45" class="node">
<title>DialogModule </title>
<polygon fill="#fb8072" stroke="#000000" points="433.6523,-342 332.3477,-342 332.3477,-306 433.6523,-306 433.6523,-342"/>
<text text-anchor="middle" x="383" y="-319.8" font-family="Times,serif" font-size="14.00" fill="#000000">DialogModule </text>
</g>
<!-- SharedCatanieModule&#45;&gt;DialogModule  -->
<g id="edge47" class="edge">
<title>SharedCatanieModule&#45;&gt;DialogModule </title>
<path fill="none" stroke="#000000" stroke-dasharray="5,2" d="M1606.9614,-266.1944C1606.9614,-274.2782 1606.9614,-282 1606.9614,-282 1606.9614,-282 383,-282 383,-282 383,-282 383,-295.9445 383,-295.9445"/>
<polygon fill="#000000" stroke="#000000" points="379.5001,-295.9444 383,-305.9445 386.5001,-295.9445 379.5001,-295.9444"/>
</g>
<!-- DatasetsModule&#45;&gt;AppModule -->
<g id="edge9" class="edge">
<title>DatasetsModule&#45;&gt;AppModule</title>
<path fill="none" stroke="#000000" d="M1696,-342.027C1696,-358.3976 1696,-380 1696,-380 1696,-380 1463.9052,-380 1463.9052,-380"/>
<polygon fill="#000000" stroke="#000000" points="1463.9052,-376.5001 1453.9052,-380 1463.9051,-383.5001 1463.9052,-376.5001"/>
</g>
<!-- DatasetTableComponent  -->
<g id="node31" class="node">
<title>DatasetTableComponent </title>
<polygon fill="#fb8072" stroke="#000000" points="2832.1813,-266 2673.8187,-266 2673.8187,-230 2832.1813,-230 2832.1813,-266"/>
<text text-anchor="middle" x="2753" y="-243.8" font-family="Times,serif" font-size="14.00" fill="#000000">DatasetTableComponent </text>
</g>
<!-- DatasetsModule&#45;&gt;DatasetTableComponent  -->
<g id="edge30" class="edge">
<title>DatasetsModule&#45;&gt;DatasetTableComponent </title>
<path fill="none" stroke="#000000" stroke-dasharray="5,2" d="M1746.7892,-305.8056C1746.7892,-297.7218 1746.7892,-290 1746.7892,-290 1746.7892,-290 2753,-290 2753,-290 2753,-290 2753,-276.0555 2753,-276.0555"/>
<polygon fill="#000000" stroke="#000000" points="2756.5001,-276.0555 2753,-266.0555 2749.5001,-276.0556 2756.5001,-276.0555"/>
</g>
<!-- DatasetsFilterComponent  -->
<g id="node32" class="node">
<title>DatasetsFilterComponent </title>
<polygon fill="#fb8072" stroke="#000000" points="2655.0833,-266 2492.9167,-266 2492.9167,-230 2655.0833,-230 2655.0833,-266"/>
<text text-anchor="middle" x="2574" y="-243.8" font-family="Times,serif" font-size="14.00" fill="#000000">DatasetsFilterComponent </text>
</g>
<!-- DatasetsModule&#45;&gt;DatasetsFilterComponent  -->
<g id="edge31" class="edge">
<title>DatasetsModule&#45;&gt;DatasetsFilterComponent </title>
<path fill="none" stroke="#000000" stroke-dasharray="5,2" d="M1744.0932,-305.5782C1744.0932,-296.7209 1744.0932,-288 1744.0932,-288 1744.0932,-288 2574,-288 2574,-288 2574,-288 2574,-276.1274 2574,-276.1274"/>
<polygon fill="#000000" stroke="#000000" points="2577.5001,-276.1274 2574,-266.1274 2570.5001,-276.1275 2577.5001,-276.1274"/>
</g>
<!-- UsersModule&#45;&gt;AppModule -->
<g id="edge10" class="edge">
<title>UsersModule&#45;&gt;AppModule</title>
<path fill="none" stroke="#000000" d="M1813,-342.2921C1813,-364.2057 1813,-398 1813,-398 1813,-398 1463.7792,-398 1463.7792,-398"/>
<polygon fill="#000000" stroke="#000000" points="1463.7793,-394.5001 1453.7792,-398 1463.7792,-401.5001 1463.7793,-394.5001"/>
</g>
<!-- AuthCheck -->
<g id="node13" class="node">
<title>AuthCheck</title>
<ellipse fill="#fdb462" stroke="#000000" cx="816" cy="-248" rx="55.0381" ry="18"/>
<text text-anchor="middle" x="816" y="-243.8" font-family="Times,serif" font-size="14.00" fill="#000000">AuthCheck</text>
</g>
<!-- AuthCheck&#45;&gt;AppModule -->
<g id="edge12" class="edge">
<title>AuthCheck&#45;&gt;AppModule</title>
<path fill="none" stroke="#000000" d="M777.1307,-260.7815C777.1307,-297.5535 777.1307,-401 777.1307,-401 777.1307,-401 1359.8528,-401 1359.8528,-401"/>
<polygon fill="#000000" stroke="#000000" points="1359.8528,-404.5001 1369.8528,-401 1359.8527,-397.5001 1359.8528,-404.5001"/>
</g>
<!-- DatasetService -->
<g id="node14" class="node">
<title>DatasetService</title>
<ellipse fill="#fdb462" stroke="#000000" cx="958" cy="-248" rx="68.8927" ry="18"/>
<text text-anchor="middle" x="958" y="-243.8" font-family="Times,serif" font-size="14.00" fill="#000000">DatasetService</text>
</g>
<!-- DatasetService&#45;&gt;AppModule -->
<g id="edge13" class="edge">
<title>DatasetService&#45;&gt;AppModule</title>
<path fill="none" stroke="#000000" d="M907.7525,-260.5128C907.7525,-295.0208 907.7525,-389 907.7525,-389 907.7525,-389 1360.3063,-389 1360.3063,-389"/>
<polygon fill="#000000" stroke="#000000" points="1360.3063,-392.5001 1370.3063,-389 1360.3063,-385.5001 1360.3063,-392.5001"/>
</g>
<!-- DatasetService&#45;&gt;DatasetsModule -->
<g id="edge32" class="edge">
<title>DatasetService&#45;&gt;DatasetsModule</title>
<path fill="none" stroke="#000000" d="M971.8659,-265.7188C971.8659,-282.125 971.8659,-304 971.8659,-304 971.8659,-304 1656.5301,-304 1656.5301,-304 1656.5301,-304 1656.5301,-304.1846 1656.5301,-304.1846"/>
<polygon fill="#000000" stroke="#000000" points="1653.0307,-295.8455 1656.5301,-305.8457 1660.0307,-295.8459 1653.0307,-295.8455"/>
</g>
<!-- BreadcrumbComponent -->
<g id="node15" class="node">
<title>BreadcrumbComponent</title>
<polygon fill="#ffffb3" stroke="#000000" points="720.0253,-122 569.9747,-122 569.9747,-86 720.0253,-86 720.0253,-122"/>
<text text-anchor="middle" x="645" y="-99.8" font-family="Times,serif" font-size="14.00" fill="#000000">BreadcrumbComponent</text>
</g>
<!-- BreadcrumbModule -->
<g id="node16" class="node">
<title>BreadcrumbModule</title>
<polygon fill="#8dd3c7" stroke="#000000" points="709.2423,-190 706.2423,-194 685.2423,-194 682.2423,-190 580.7577,-190 580.7577,-154 709.2423,-154 709.2423,-190"/>
<text text-anchor="middle" x="645" y="-167.8" font-family="Times,serif" font-size="14.00" fill="#000000">BreadcrumbModule</text>
</g>
<!-- BreadcrumbComponent&#45;&gt;BreadcrumbModule -->
<g id="edge15" class="edge">
<title>BreadcrumbComponent&#45;&gt;BreadcrumbModule</title>
<path fill="none" stroke="#000000" d="M645,-122.2228C645,-122.2228 645,-143.7269 645,-143.7269"/>
<polygon fill="#000000" stroke="#000000" points="641.5001,-143.7269 645,-153.7269 648.5001,-143.727 641.5001,-143.7269"/>
</g>
<!-- BreadcrumbModule&#45;&gt;SharedCatanieModule -->
<g id="edge40" class="edge">
<title>BreadcrumbModule&#45;&gt;SharedCatanieModule</title>
<path fill="none" stroke="#000000" d="M709.5934,-166C925.2194,-166 1606.7041,-166 1606.7041,-166 1606.7041,-166 1606.7041,-219.8015 1606.7041,-219.8015"/>
<polygon fill="#000000" stroke="#000000" points="1603.2041,-219.8015 1606.7041,-229.8015 1610.2041,-219.8016 1603.2041,-219.8015"/>
</g>
<!-- BreadcrumbComponent  -->
<g id="node17" class="node">
<title>BreadcrumbComponent </title>
<polygon fill="#fb8072" stroke="#000000" points="721.0246,-266 566.9754,-266 566.9754,-230 721.0246,-230 721.0246,-266"/>
<text text-anchor="middle" x="644" y="-243.8" font-family="Times,serif" font-size="14.00" fill="#000000">BreadcrumbComponent </text>
</g>
<!-- BreadcrumbModule&#45;&gt;BreadcrumbComponent  -->
<g id="edge16" class="edge">
<title>BreadcrumbModule&#45;&gt;BreadcrumbComponent </title>
<path fill="none" stroke="#000000" stroke-dasharray="5,2" d="M645,-190.0109C645,-190.0109 645,-219.855 645,-219.855"/>
<polygon fill="#000000" stroke="#000000" points="641.5001,-219.8549 645,-229.855 648.5001,-219.855 641.5001,-219.8549"/>
</g>
<!-- ConfigFormComponent -->
<g id="node18" class="node">
<title>ConfigFormComponent</title>
<polygon fill="#ffffb3" stroke="#000000" points="2049.0547,-122 1898.9453,-122 1898.9453,-86 2049.0547,-86 2049.0547,-122"/>
<text text-anchor="middle" x="1974" y="-99.8" font-family="Times,serif" font-size="14.00" fill="#000000">ConfigFormComponent</text>
</g>
<!-- ConfigFormModule -->
<g id="node21" class="node">
<title>ConfigFormModule</title>
<polygon fill="#8dd3c7" stroke="#000000" points="2109.2716,-190 2106.2716,-194 2085.2716,-194 2082.2716,-190 1980.7284,-190 1980.7284,-154 2109.2716,-154 2109.2716,-190"/>
<text text-anchor="middle" x="2045" y="-167.8" font-family="Times,serif" font-size="14.00" fill="#000000">ConfigFormModule</text>
</g>
<!-- ConfigFormComponent&#45;&gt;ConfigFormModule -->
<g id="edge17" class="edge">
<title>ConfigFormComponent&#45;&gt;ConfigFormModule</title>
<path fill="none" stroke="#000000" d="M2014.9457,-122.2228C2014.9457,-122.2228 2014.9457,-143.7269 2014.9457,-143.7269"/>
<polygon fill="#000000" stroke="#000000" points="2011.4457,-143.7269 2014.9457,-153.7269 2018.4457,-143.727 2011.4457,-143.7269"/>
</g>
<!-- ObjKeysPipe -->
<g id="node19" class="node">
<title>ObjKeysPipe</title>
<polygon fill="#ffffb3" stroke="#000000" points="2271.1515,-122 2180.8485,-122 2180.8485,-86 2271.1515,-86 2271.1515,-122"/>
<text text-anchor="middle" x="2226" y="-99.8" font-family="Times,serif" font-size="14.00" fill="#000000">ObjKeysPipe</text>
</g>
<!-- ObjKeysPipe&#45;&gt;ConfigFormModule -->
<g id="edge18" class="edge">
<title>ObjKeysPipe&#45;&gt;ConfigFormModule</title>
<path fill="none" stroke="#000000" d="M2226,-122.2228C2226,-142.3652 2226,-172 2226,-172 2226,-172 2119.3235,-172 2119.3235,-172"/>
<polygon fill="#000000" stroke="#000000" points="2119.3235,-168.5001 2109.3235,-172 2119.3234,-175.5001 2119.3235,-168.5001"/>
</g>
<!-- TitleCasePipe -->
<g id="node20" class="node">
<title>TitleCasePipe</title>
<polygon fill="#ffffb3" stroke="#000000" points="2162.0383,-122 2067.9617,-122 2067.9617,-86 2162.0383,-86 2162.0383,-122"/>
<text text-anchor="middle" x="2115" y="-99.8" font-family="Times,serif" font-size="14.00" fill="#000000">TitleCasePipe</text>
</g>
<!-- TitleCasePipe&#45;&gt;ConfigFormModule -->
<g id="edge19" class="edge">
<title>TitleCasePipe&#45;&gt;ConfigFormModule</title>
<path fill="none" stroke="#000000" d="M2088.5585,-122.2228C2088.5585,-122.2228 2088.5585,-143.7269 2088.5585,-143.7269"/>
<polygon fill="#000000" stroke="#000000" points="2085.0586,-143.7269 2088.5585,-153.7269 2092.0586,-143.727 2085.0586,-143.7269"/>
</g>
<!-- ConfigFormModule&#45;&gt;SharedCatanieModule -->
<g id="edge41" class="edge">
<title>ConfigFormModule&#45;&gt;SharedCatanieModule</title>
<path fill="none" stroke="#000000" d="M1980.6978,-178C1866.92,-178 1642,-178 1642,-178 1642,-178 1642,-219.9733 1642,-219.9733"/>
<polygon fill="#000000" stroke="#000000" points="1638.5001,-219.9732 1642,-229.9733 1645.5001,-219.9733 1638.5001,-219.9732"/>
</g>
<!-- ConfigFormComponent  -->
<g id="node22" class="node">
<title>ConfigFormComponent </title>
<polygon fill="#fb8072" stroke="#000000" points="2122.054,-266 1967.946,-266 1967.946,-230 2122.054,-230 2122.054,-266"/>
<text text-anchor="middle" x="2045" y="-243.8" font-family="Times,serif" font-size="14.00" fill="#000000">ConfigFormComponent </text>
</g>
<!-- ConfigFormModule&#45;&gt;ConfigFormComponent  -->
<g id="edge20" class="edge">
<title>ConfigFormModule&#45;&gt;ConfigFormComponent </title>
<path fill="none" stroke="#000000" stroke-dasharray="5,2" d="M2045,-190.0109C2045,-190.0109 2045,-219.855 2045,-219.855"/>
<polygon fill="#000000" stroke="#000000" points="2041.5001,-219.8549 2045,-229.855 2048.5001,-219.855 2041.5001,-219.8549"/>
</g>
<!-- DashboardComponent -->
<g id="node23" class="node">
<title>DashboardComponent</title>
<polygon fill="#ffffb3" stroke="#000000" points="3745.9734,-266 3604.0266,-266 3604.0266,-230 3745.9734,-230 3745.9734,-266"/>
<text text-anchor="middle" x="3675" y="-243.8" font-family="Times,serif" font-size="14.00" fill="#000000">DashboardComponent</text>
</g>
<!-- DashboardComponent&#45;&gt;DatasetsModule -->
<g id="edge21" class="edge">
<title>DashboardComponent&#45;&gt;DatasetsModule</title>
<path fill="none" stroke="#000000" d="M3675,-266.207C3675,-271.5549 3675,-276 3675,-276 3675,-276 1719.8003,-276 1719.8003,-276 1719.8003,-276 1719.8003,-295.8533 1719.8003,-295.8533"/>
<polygon fill="#000000" stroke="#000000" points="1716.3004,-295.8532 1719.8003,-305.8533 1723.3004,-295.8533 1716.3004,-295.8532"/>
</g>
<!-- DatasetTableComponent -->
<g id="node24" class="node">
<title>DatasetTableComponent</title>
<polygon fill="#ffffb3" stroke="#000000" points="3585.6811,-266 3430.3189,-266 3430.3189,-230 3585.6811,-230 3585.6811,-266"/>
<text text-anchor="middle" x="3508" y="-243.8" font-family="Times,serif" font-size="14.00" fill="#000000">DatasetTableComponent</text>
</g>
<!-- DatasetTableComponent&#45;&gt;DatasetsModule -->
<g id="edge22" class="edge">
<title>DatasetTableComponent&#45;&gt;DatasetsModule</title>
<path fill="none" stroke="#000000" d="M3508,-266.0579C3508,-270.4945 3508,-274 3508,-274 3508,-274 1716.1961,-274 1716.1961,-274 1716.1961,-274 1716.1961,-295.9489 1716.1961,-295.9489"/>
<polygon fill="#000000" stroke="#000000" points="1712.6962,-295.9488 1716.1961,-305.9489 1719.6962,-295.9489 1712.6962,-295.9488"/>
</g>
<!-- DatablocksComponent -->
<g id="node25" class="node">
<title>DatablocksComponent</title>
<polygon fill="#ffffb3" stroke="#000000" points="3412.3089,-266 3267.6911,-266 3267.6911,-230 3412.3089,-230 3412.3089,-266"/>
<text text-anchor="middle" x="3340" y="-243.8" font-family="Times,serif" font-size="14.00" fill="#000000">DatablocksComponent</text>
</g>
<!-- DatablocksComponent&#45;&gt;DatasetsModule -->
<g id="edge23" class="edge">
<title>DatablocksComponent&#45;&gt;DatasetsModule</title>
<path fill="none" stroke="#000000" d="M3340,-266.0511C3340,-280.373 3340,-298 3340,-298 3340,-298 1741.3971,-298 1741.3971,-298 1741.3971,-298 1741.3971,-298.7942 1741.3971,-298.7942"/>
<polygon fill="#000000" stroke="#000000" points="1737.8973,-295.9421 1741.3971,-305.9421 1744.8973,-295.9422 1737.8973,-295.9421"/>
</g>
<!-- DatafilesComponent -->
<g id="node26" class="node">
<title>DatafilesComponent</title>
<polygon fill="#ffffb3" stroke="#000000" points="3249.8599,-266 3118.1401,-266 3118.1401,-230 3249.8599,-230 3249.8599,-266"/>
<text text-anchor="middle" x="3184" y="-243.8" font-family="Times,serif" font-size="14.00" fill="#000000">DatafilesComponent</text>
</g>
<!-- DatafilesComponent&#45;&gt;DatasetsModule -->
<g id="edge24" class="edge">
<title>DatafilesComponent&#45;&gt;DatasetsModule</title>
<path fill="none" stroke="#000000" d="M3184,-266.1467C3184,-279.7395 3184,-296 3184,-296 3184,-296 1738.7011,-296 1738.7011,-296 1738.7011,-296 1738.7011,-296.9793 1738.7011,-296.9793"/>
<polygon fill="#000000" stroke="#000000" points="1735.2012,-295.793 1738.7011,-305.793 1742.2012,-295.7931 1735.2012,-295.793"/>
</g>
<!-- DatasetsFilterComponent -->
<g id="node27" class="node">
<title>DatasetsFilterComponent</title>
<polygon fill="#ffffb3" stroke="#000000" points="4098.5828,-266 3939.4172,-266 3939.4172,-230 4098.5828,-230 4098.5828,-266"/>
<text text-anchor="middle" x="4019" y="-243.8" font-family="Times,serif" font-size="14.00" fill="#000000">DatasetsFilterComponent</text>
</g>
<!-- DatasetsFilterComponent&#45;&gt;DatasetsModule -->
<g id="edge25" class="edge">
<title>DatasetsFilterComponent&#45;&gt;DatasetsModule</title>
<path fill="none" stroke="#000000" d="M4019,-266.2434C4019,-273.4297 4019,-280 4019,-280 4019,-280 1727.0087,-280 1727.0087,-280 1727.0087,-280 1727.0087,-295.8495 1727.0087,-295.8495"/>
<polygon fill="#000000" stroke="#000000" points="1723.5088,-295.8494 1727.0087,-305.8495 1730.5088,-295.8495 1723.5088,-295.8494"/>
</g>
<!-- DatasetDetailComponent -->
<g id="node28" class="node">
<title>DatasetDetailComponent</title>
<polygon fill="#ffffb3" stroke="#000000" points="3921.5169,-266 3764.4831,-266 3764.4831,-230 3921.5169,-230 3921.5169,-266"/>
<text text-anchor="middle" x="3843" y="-243.8" font-family="Times,serif" font-size="14.00" fill="#000000">DatasetDetailComponent</text>
</g>
<!-- DatasetDetailComponent&#45;&gt;DatasetsModule -->
<g id="edge26" class="edge">
<title>DatasetDetailComponent&#45;&gt;DatasetsModule</title>
<path fill="none" stroke="#000000" d="M3843,-266.1432C3843,-272.4611 3843,-278 3843,-278 3843,-278 1723.4045,-278 1723.4045,-278 1723.4045,-278 1723.4045,-295.8196 1723.4045,-295.8196"/>
<polygon fill="#000000" stroke="#000000" points="1719.9046,-295.8195 1723.4045,-305.8196 1726.9046,-295.8196 1719.9046,-295.8195"/>
</g>
<!-- DialogModule -->
<g id="node29" class="node">
<title>DialogModule</title>
<polygon fill="#8dd3c7" stroke="#000000" points="2953.6528,-266 2950.6528,-270 2929.6528,-270 2926.6528,-266 2856.3472,-266 2856.3472,-230 2953.6528,-230 2953.6528,-266"/>
<text text-anchor="middle" x="2905" y="-243.8" font-family="Times,serif" font-size="14.00" fill="#000000">DialogModule</text>
</g>
<!-- DialogModule&#45;&gt;SharedCatanieModule -->
<g id="edge43" class="edge">
<title>DialogModule&#45;&gt;SharedCatanieModule</title>
<path fill="none" stroke="#000000" d="M2888.7246,-266.1903C2888.7246,-269.5376 2888.7246,-272 2888.7246,-272 2888.7246,-272 1684.561,-272 1684.561,-272 1684.561,-272 1684.561,-271.419 1684.561,-271.419"/>
<polygon fill="#000000" stroke="#000000" points="1688.0612,-276.1902 1684.561,-266.1903 1681.0612,-276.1903 1688.0612,-276.1902"/>
</g>
<!-- DialogModule&#45;&gt;DatasetsModule -->
<g id="edge27" class="edge">
<title>DialogModule&#45;&gt;DatasetsModule</title>
<path fill="none" stroke="#000000" d="M2921.2754,-266.1505C2921.2754,-278.2708 2921.2754,-292 2921.2754,-292 2921.2754,-292 1733.309,-292 1733.309,-292 1733.309,-292 1733.309,-295.7566 1733.309,-295.7566"/>
<polygon fill="#000000" stroke="#000000" points="1729.8091,-295.7566 1733.309,-305.7566 1736.8091,-295.7566 1729.8091,-295.7566"/>
</g>
<!-- DatePickerModule -->
<g id="node30" class="node">
<title>DatePickerModule</title>
<polygon fill="#8dd3c7" stroke="#000000" points="3093.7395,-266 3090.7395,-270 3069.7395,-270 3066.7395,-266 2972.2605,-266 2972.2605,-230 3093.7395,-230 3093.7395,-266"/>
<text text-anchor="middle" x="3033" y="-243.8" font-family="Times,serif" font-size="14.00" fill="#000000">DatePickerModule</text>
</g>
<!-- DatePickerModule&#45;&gt;DatasetsModule -->
<g id="edge29" class="edge">
<title>DatePickerModule&#45;&gt;DatasetsModule</title>
<path fill="none" stroke="#000000" d="M3033,-266.1804C3033,-279.0382 3033,-294 3033,-294 3033,-294 1736.005,-294 1736.005,-294 1736.005,-294 1736.005,-295.8568 1736.005,-295.8568"/>
<polygon fill="#000000" stroke="#000000" points="1732.5051,-295.8568 1736.005,-305.8568 1739.5051,-295.8568 1732.5051,-295.8568"/>
</g>
<!-- DatePickerComponent  -->
<g id="node34" class="node">
<title>DatePickerComponent </title>
<polygon fill="#fb8072" stroke="#000000" points="3106.5218,-190 2959.4782,-190 2959.4782,-154 3106.5218,-154 3106.5218,-190"/>
<text text-anchor="middle" x="3033" y="-167.8" font-family="Times,serif" font-size="14.00" fill="#000000">DatePickerComponent </text>
</g>
<!-- DatePickerModule&#45;&gt;DatePickerComponent  -->
<g id="edge34" class="edge">
<title>DatePickerModule&#45;&gt;DatePickerComponent </title>
<path fill="none" stroke="#000000" stroke-dasharray="5,2" d="M3033,-229.9891C3033,-229.9891 3033,-200.145 3033,-200.145"/>
<polygon fill="#000000" stroke="#000000" points="3036.5001,-200.145 3033,-190.145 3029.5001,-200.1451 3036.5001,-200.145"/>
</g>
<!-- DatePickerComponent -->
<g id="node33" class="node">
<title>DatePickerComponent</title>
<polygon fill="#ffffb3" stroke="#000000" points="3274.5226,-190 3131.4774,-190 3131.4774,-154 3274.5226,-154 3274.5226,-190"/>
<text text-anchor="middle" x="3203" y="-167.8" font-family="Times,serif" font-size="14.00" fill="#000000">DatePickerComponent</text>
</g>
<!-- DatePickerComponent&#45;&gt;DatePickerModule -->
<g id="edge33" class="edge">
<title>DatePickerComponent&#45;&gt;DatePickerModule</title>
<path fill="none" stroke="#000000" d="M3131.0856,-172C3120.0762,-172 3112.2905,-172 3112.2905,-172 3112.2905,-172 3112.2905,-248 3112.2905,-248 3112.2905,-248 3103.9004,-248 3103.9004,-248"/>
<polygon fill="#000000" stroke="#000000" points="3103.9004,-244.5001 3093.9004,-248 3103.9003,-251.5001 3103.9004,-244.5001"/>
</g>
<!-- DialogComponent -->
<g id="node35" class="node">
<title>DialogComponent</title>
<polygon fill="#ffffb3" stroke="#000000" points="2918.9356,-190 2799.0644,-190 2799.0644,-154 2918.9356,-154 2918.9356,-190"/>
<text text-anchor="middle" x="2859" y="-167.8" font-family="Times,serif" font-size="14.00" fill="#000000">DialogComponent</text>
</g>
<!-- DialogComponent&#45;&gt;DialogModule -->
<g id="edge35" class="edge">
<title>DialogComponent&#45;&gt;DialogModule</title>
<path fill="none" stroke="#000000" d="M2887.4456,-190.0109C2887.4456,-190.0109 2887.4456,-219.855 2887.4456,-219.855"/>
<polygon fill="#000000" stroke="#000000" points="2883.9457,-219.8549 2887.4456,-229.855 2890.9457,-219.855 2883.9457,-219.8549"/>
</g>
<!-- ErrorPageComponent -->
<g id="node36" class="node">
<title>ErrorPageComponent</title>
<polygon fill="#ffffb3" stroke="#000000" points="2450.0786,-122 2311.9214,-122 2311.9214,-86 2450.0786,-86 2450.0786,-122"/>
<text text-anchor="middle" x="2381" y="-99.8" font-family="Times,serif" font-size="14.00" fill="#000000">ErrorPageComponent</text>
</g>
<!-- ErrorPageModule -->
<g id="node37" class="node">
<title>ErrorPageModule</title>
<polygon fill="#8dd3c7" stroke="#000000" points="2439.2964,-190 2436.2964,-194 2415.2964,-194 2412.2964,-190 2322.7036,-190 2322.7036,-154 2439.2964,-154 2439.2964,-190"/>
<text text-anchor="middle" x="2381" y="-167.8" font-family="Times,serif" font-size="14.00" fill="#000000">ErrorPageModule</text>
</g>
<!-- ErrorPageComponent&#45;&gt;ErrorPageModule -->
<g id="edge36" class="edge">
<title>ErrorPageComponent&#45;&gt;ErrorPageModule</title>
<path fill="none" stroke="#000000" d="M2381,-122.2228C2381,-122.2228 2381,-143.7269 2381,-143.7269"/>
<polygon fill="#000000" stroke="#000000" points="2377.5001,-143.7269 2381,-153.7269 2384.5001,-143.727 2377.5001,-143.7269"/>
</g>
<!-- ErrorPageModule&#45;&gt;SharedCatanieModule -->
<g id="edge42" class="edge">
<title>ErrorPageModule&#45;&gt;SharedCatanieModule</title>
<path fill="none" stroke="#000000" d="M2361.6173,-190.1097C2361.6173,-199.897 2361.6173,-210 2361.6173,-210 2361.6173,-210 1677.296,-210 1677.296,-210 1677.296,-210 1677.296,-219.8903 1677.296,-219.8903"/>
<polygon fill="#000000" stroke="#000000" points="1673.796,-219.8903 1677.296,-229.8903 1680.796,-219.8904 1673.796,-219.8903"/>
</g>
<!-- ErrorPageComponent  -->
<g id="node38" class="node">
<title>ErrorPageComponent </title>
<polygon fill="#fb8072" stroke="#000000" points="2452.5792,-266 2311.4208,-266 2311.4208,-230 2452.5792,-230 2452.5792,-266"/>
<text text-anchor="middle" x="2382" y="-243.8" font-family="Times,serif" font-size="14.00" fill="#000000">ErrorPageComponent </text>
</g>
<!-- ErrorPageModule&#45;&gt;ErrorPageComponent  -->
<g id="edge37" class="edge">
<title>ErrorPageModule&#45;&gt;ErrorPageComponent </title>
<path fill="none" stroke="#000000" stroke-dasharray="5,2" d="M2400.3827,-190.0109C2400.3827,-190.0109 2400.3827,-219.855 2400.3827,-219.855"/>
<polygon fill="#000000" stroke="#000000" points="2396.8828,-219.8549 2400.3827,-229.855 2403.8828,-219.855 2396.8828,-219.8549"/>
</g>
<!-- ErrorHandler -->
<g id="node39" class="node">
<title>ErrorHandler</title>
<ellipse fill="#fdb462" stroke="#000000" cx="4128" cy="-104" rx="62.518" ry="18"/>
<text text-anchor="middle" x="4128" y="-99.8" font-family="Times,serif" font-size="14.00" fill="#000000">ErrorHandler</text>
</g>
<!-- SDKBrowserModule -->
<g id="node41" class="node">
<title>SDKBrowserModule</title>
<polygon fill="#8dd3c7" stroke="#000000" points="4114.4692,-190 4111.4692,-194 4090.4692,-194 4087.4692,-190 3979.5308,-190 3979.5308,-154 4114.4692,-154 4114.4692,-190"/>
<text text-anchor="middle" x="4047" y="-167.8" font-family="Times,serif" font-size="14.00" fill="#000000">SDKBrowserModule</text>
</g>
<!-- ErrorHandler&#45;&gt;SDKBrowserModule -->
<g id="edge38" class="edge">
<title>ErrorHandler&#45;&gt;SDKBrowserModule</title>
<path fill="none" stroke="#000000" d="M4089.9878,-118.4211C4089.9878,-118.4211 4089.9878,-143.9613 4089.9878,-143.9613"/>
<polygon fill="#000000" stroke="#000000" points="4086.4879,-143.9613 4089.9878,-153.9613 4093.4879,-143.9614 4086.4879,-143.9613"/>
</g>
<!-- SocketConnection -->
<g id="node40" class="node">
<title>SocketConnection</title>
<ellipse fill="#fdb462" stroke="#000000" cx="3966" cy="-104" rx="81.6847" ry="18"/>
<text text-anchor="middle" x="3966" y="-99.8" font-family="Times,serif" font-size="14.00" fill="#000000">SocketConnection</text>
</g>
<!-- SocketConnection&#45;&gt;SDKBrowserModule -->
<g id="edge39" class="edge">
<title>SocketConnection&#45;&gt;SDKBrowserModule</title>
<path fill="none" stroke="#000000" d="M4013.6788,-118.755C4013.6788,-118.755 4013.6788,-143.8833 4013.6788,-143.8833"/>
<polygon fill="#000000" stroke="#000000" points="4010.1789,-143.8833 4013.6788,-153.8833 4017.1789,-143.8833 4010.1789,-143.8833"/>
</g>
<!-- ConfigService -->
<g id="node46" class="node">
<title>ConfigService</title>
<ellipse fill="#fdb462" stroke="#000000" cx="91" cy="-324" rx="66.6325" ry="18"/>
<text text-anchor="middle" x="91" y="-319.8" font-family="Times,serif" font-size="14.00" fill="#000000">ConfigService</text>
</g>
<!-- ConfigService&#45;&gt;SharedCatanieModule -->
<g id="edge48" class="edge">
<title>ConfigService&#45;&gt;SharedCatanieModule</title>
<path fill="none" stroke="#000000" d="M91,-305.973C91,-289.6024 91,-268 91,-268 91,-268 1583.2592,-268 1583.2592,-268 1583.2592,-268 1583.2592,-267.8154 1583.2592,-267.8154"/>
<polygon fill="#000000" stroke="#000000" points="1586.7598,-276.1541 1583.2592,-266.1543 1579.7598,-276.1545 1586.7598,-276.1541"/>
</g>
<!-- LoginComponent -->
<g id="node47" class="node">
<title>LoginComponent</title>
<polygon fill="#ffffb3" stroke="#000000" points="4423.2758,-266 4308.7242,-266 4308.7242,-230 4423.2758,-230 4423.2758,-266"/>
<text text-anchor="middle" x="4366" y="-243.8" font-family="Times,serif" font-size="14.00" fill="#000000">LoginComponent</text>
</g>
<!-- LoginComponent&#45;&gt;UsersModule -->
<g id="edge49" class="edge">
<title>LoginComponent&#45;&gt;UsersModule</title>
<path fill="none" stroke="#000000" d="M4366,-266.0449C4366,-287.6623 4366,-321 4366,-321 4366,-321 1868.942,-321 1868.942,-321"/>
<polygon fill="#000000" stroke="#000000" points="1868.942,-317.5001 1858.942,-321 1868.942,-324.5001 1868.942,-317.5001"/>
</g>
<!-- UserDetailsComponent -->
<g id="node48" class="node">
<title>UserDetailsComponent</title>
<polygon fill="#ffffb3" stroke="#000000" points="4759.9116,-266 4612.0884,-266 4612.0884,-230 4759.9116,-230 4759.9116,-266"/>
<text text-anchor="middle" x="4686" y="-243.8" font-family="Times,serif" font-size="14.00" fill="#000000">UserDetailsComponent</text>
</g>
<!-- UserDetailsComponent&#45;&gt;UsersModule -->
<g id="edge50" class="edge">
<title>UserDetailsComponent&#45;&gt;UsersModule</title>
<path fill="none" stroke="#000000" d="M4686,-266.0265C4686,-291.5093 4686,-335 4686,-335 4686,-335 1868.9994,-335 1868.9994,-335"/>
<polygon fill="#000000" stroke="#000000" points="1868.9994,-331.5001 1858.9994,-335 1868.9994,-338.5001 1868.9994,-331.5001"/>
</g>
<!-- UserSettingsComponent -->
<g id="node49" class="node">
<title>UserSettingsComponent</title>
<polygon fill="#ffffb3" stroke="#000000" points="4594.3725,-266 4441.6275,-266 4441.6275,-230 4594.3725,-230 4594.3725,-266"/>
<text text-anchor="middle" x="4518" y="-243.8" font-family="Times,serif" font-size="14.00" fill="#000000">UserSettingsComponent</text>
</g>
<!-- UserSettingsComponent&#45;&gt;UsersModule -->
<g id="edge51" class="edge">
<title>UserSettingsComponent&#45;&gt;UsersModule</title>
<path fill="none" stroke="#000000" d="M4518,-266.1532C4518,-289.7566 4518,-328 4518,-328 4518,-328 1868.8154,-328 1868.8154,-328"/>
<polygon fill="#000000" stroke="#000000" points="1868.8154,-324.5001 1858.8154,-328 1868.8153,-331.5001 1868.8154,-324.5001"/>
</g>
<!-- ADAuthService -->
<g id="node50" class="node">
<title>ADAuthService</title>
<ellipse fill="#fdb462" stroke="#000000" cx="4212" cy="-248" rx="73.4939" ry="18"/>
<text text-anchor="middle" x="4212" y="-243.8" font-family="Times,serif" font-size="14.00" fill="#000000">ADAuthService</text>
</g>
<!-- ADAuthService&#45;&gt;UsersModule -->
<g id="edge53" class="edge">
<title>ADAuthService&#45;&gt;UsersModule</title>
<path fill="none" stroke="#000000" d="M4212,-266.0348C4212,-285.5762 4212,-314 4212,-314 4212,-314 1868.781,-314 1868.781,-314"/>
<polygon fill="#000000" stroke="#000000" points="1868.7811,-310.5001 1858.781,-314 1868.781,-317.5001 1868.7811,-310.5001"/>
</g>
</g>
</svg>
