<?xml version="1.0" encoding="UTF-8" standalone="no"?>
<!DOCTYPE svg PUBLIC "-//W3C//DTD SVG 1.1//EN"
 "http://www.w3.org/Graphics/SVG/1.1/DTD/svg11.dtd">
<!-- Generated by graphviz version 2.40.1 (20161225.0304)
 -->
<!-- Title: dependencies Pages: 1 -->
<svg width="3941pt" height="425pt"
 viewBox="0.00 0.00 3941.00 425.00" xmlns="http://www.w3.org/2000/svg" xmlns:xlink="http://www.w3.org/1999/xlink">
<g id="graph0" class="graph" transform="scale(1 1) rotate(0) translate(4 421)">
<title>dependencies</title>
<polygon fill="#ffffff" stroke="transparent" points="-4,4 -4,-421 3937,-421 3937,4 -4,4"/>
<text text-anchor="start" x="1945.5091" y="-42.4" font-family="sans-serif" font-weight="bold" font-size="14.00" fill="#000000">Legend</text>
<polygon fill="#ffffb3" stroke="transparent" points="1732.5,-10 1732.5,-30 1752.5,-30 1752.5,-10 1732.5,-10"/>
<text text-anchor="start" x="1756.129" y="-15.4" font-family="sans-serif" font-size="14.00" fill="#000000"> &#160;Declarations</text>
<polygon fill="#8dd3c7" stroke="transparent" points="1845.5,-10 1845.5,-30 1865.5,-30 1865.5,-10 1845.5,-10"/>
<text text-anchor="start" x="1869.2251" y="-15.4" font-family="sans-serif" font-size="14.00" fill="#000000"> &#160;Module</text>
<polygon fill="#80b1d3" stroke="transparent" points="1931.5,-10 1931.5,-30 1951.5,-30 1951.5,-10 1931.5,-10"/>
<text text-anchor="start" x="1955.2812" y="-15.4" font-family="sans-serif" font-size="14.00" fill="#000000"> &#160;Bootstrap</text>
<polygon fill="#fdb462" stroke="transparent" points="2028.5,-10 2028.5,-30 2048.5,-30 2048.5,-10 2028.5,-10"/>
<text text-anchor="start" x="2052.1732" y="-15.4" font-family="sans-serif" font-size="14.00" fill="#000000"> &#160;Providers</text>
<polygon fill="#fb8072" stroke="transparent" points="2124.5,-10 2124.5,-30 2144.5,-30 2144.5,-10 2124.5,-10"/>
<text text-anchor="start" x="2148.2258" y="-15.4" font-family="sans-serif" font-size="14.00" fill="#000000"> &#160;Exports</text>
<g id="clust1" class="cluster">
<title>cluster_AppModule</title>
<polygon fill="none" stroke="#000000" stroke-dasharray="1,5" points="676,-70 676,-409 3312,-409 3312,-70 676,-70"/>
</g>
<g id="clust3" class="cluster">
<title>cluster_AppModule_imports</title>
<polygon fill="none" stroke="#000000" points="684,-78 684,-271 3304,-271 3304,-78 684,-78"/>
</g>
<g id="clust5" class="cluster">
<title>cluster_AppModule_bootstrap</title>
<polygon fill="none" stroke="#000000" points="2310,-349 2310,-401 2434,-401 2434,-349 2310,-349"/>
</g>
<g id="clust7" class="cluster">
<title>cluster_DatasetsModule</title>
<polygon fill="none" stroke="#000000" stroke-dasharray="1,5" points="3320,-135 3320,-203 3925,-203 3925,-135 3320,-135"/>
</g>
<g id="clust9" class="cluster">
<title>cluster_DatasetsModule_imports</title>
<polygon fill="none" stroke="#000000" points="3510,-143 3510,-195 3917,-195 3917,-143 3510,-143"/>
</g>
<g id="clust10" class="cluster">
<title>cluster_DatasetsModule_exports</title>
<polygon fill="none" stroke="#000000" points="3328,-143 3328,-195 3502,-195 3502,-143 3328,-143"/>
</g>
<g id="clust13" class="cluster">
<title>cluster_SDKBrowserModule</title>
<polygon fill="none" stroke="#000000" stroke-dasharray="1,5" points="3718,-219 3718,-271 3868,-271 3868,-219 3718,-219"/>
</g>
<g id="clust19" class="cluster">
<title>cluster_SharedCatanieModule</title>
<polygon fill="none" stroke="#000000" stroke-dasharray="1,5" points="8,-211 8,-279 668,-279 668,-211 8,-211"/>
</g>
<g id="clust21" class="cluster">
<title>cluster_SharedCatanieModule_imports</title>
<polygon fill="none" stroke="#000000" points="546,-219 546,-271 660,-271 660,-219 546,-219"/>
</g>
<g id="clust22" class="cluster">
<title>cluster_SharedCatanieModule_exports</title>
<polygon fill="none" stroke="#000000" points="16,-219 16,-271 538,-271 538,-219 16,-219"/>
</g>
<!-- AppRoutingModule -->
<g id="node1" class="node">
<title>AppRoutingModule</title>
<polygon fill="#8dd3c7" stroke="#000000" points="1226.2744,-122 1223.2744,-126 1202.2744,-126 1199.2744,-122 1097.7256,-122 1097.7256,-86 1226.2744,-86 1226.2744,-122"/>
<text text-anchor="middle" x="1162" y="-99.8" font-family="Times,serif" font-size="14.00" fill="#000000">AppRoutingModule</text>
</g>
<!-- AppModule -->
<g id="node23" class="node">
<title>AppModule</title>
<polygon fill="#8dd3c7" stroke="#000000" points="2413.6571,-328 2410.6571,-332 2389.6571,-332 2386.6571,-328 2330.3429,-328 2330.3429,-292 2413.6571,-292 2413.6571,-328"/>
<text text-anchor="middle" x="2372" y="-305.8" font-family="Times,serif" font-size="14.00" fill="#000000">AppModule</text>
</g>
<!-- AppRoutingModule&#45;&gt;AppModule -->
<g id="edge1" class="edge">
<title>AppRoutingModule&#45;&gt;AppModule</title>
<path fill="none" stroke="#000000" d="M1162,-122.3558C1162,-173.6908 1162,-315 1162,-315 1162,-315 2319.9977,-315 2319.9977,-315"/>
<polygon fill="#000000" stroke="#000000" points="2319.9977,-318.5001 2329.9977,-315 2319.9976,-311.5001 2319.9977,-318.5001"/>
</g>
<!-- BrowserModule -->
<g id="node2" class="node">
<title>BrowserModule</title>
<polygon fill="#8dd3c7" stroke="#000000" points="1351.4734,-122 1348.4734,-126 1327.4734,-126 1324.4734,-122 1244.5266,-122 1244.5266,-86 1351.4734,-86 1351.4734,-122"/>
<text text-anchor="middle" x="1298" y="-99.8" font-family="Times,serif" font-size="14.00" fill="#000000">BrowserModule</text>
</g>
<!-- BrowserModule&#45;&gt;AppModule -->
<g id="edge2" class="edge">
<title>BrowserModule&#45;&gt;AppModule</title>
<path fill="none" stroke="#000000" d="M1298,-122.0948C1298,-172.6999 1298,-312 1298,-312 1298,-312 2320.2276,-312 2320.2276,-312"/>
<polygon fill="#000000" stroke="#000000" points="2320.2276,-315.5001 2330.2276,-312 2320.2275,-308.5001 2320.2276,-315.5001"/>
</g>
<!-- FormsModule -->
<g id="node3" class="node">
<title>FormsModule</title>
<polygon fill="#8dd3c7" stroke="#000000" points="3193.8288,-122 3190.8288,-126 3169.8288,-126 3166.8288,-122 3098.1712,-122 3098.1712,-86 3193.8288,-86 3193.8288,-122"/>
<text text-anchor="middle" x="3146" y="-99.8" font-family="Times,serif" font-size="14.00" fill="#000000">FormsModule</text>
</g>
<!-- SharedCatanieModule -->
<g id="node15" class="node">
<title>SharedCatanieModule</title>
<polygon fill="#8dd3c7" stroke="#000000" points="2642.6839,-187 2639.6839,-191 2618.6839,-191 2615.6839,-187 2501.3161,-187 2501.3161,-151 2642.6839,-151 2642.6839,-187"/>
<text text-anchor="middle" x="2572" y="-164.8" font-family="Times,serif" font-size="14.00" fill="#000000">SharedCatanieModule</text>
</g>
<!-- FormsModule&#45;&gt;SharedCatanieModule -->
<g id="edge37" class="edge">
<title>FormsModule&#45;&gt;SharedCatanieModule</title>
<path fill="none" stroke="#000000" d="M3122.168,-122.0449C3122.168,-129.749 3122.168,-137 3122.168,-137 3122.168,-137 2637.2908,-137 2637.2908,-137 2637.2908,-137 2637.2908,-140.7566 2637.2908,-140.7566"/>
<polygon fill="#000000" stroke="#000000" points="2633.7909,-140.7566 2637.2908,-150.7566 2640.7909,-140.7566 2633.7909,-140.7566"/>
</g>
<!-- DatasetsModule -->
<g id="node17" class="node">
<title>DatasetsModule</title>
<polygon fill="#8dd3c7" stroke="#000000" points="3090.4706,-263 3087.4706,-267 3066.4706,-267 3063.4706,-263 2983.5294,-263 2983.5294,-227 3090.4706,-227 3090.4706,-263"/>
<text text-anchor="middle" x="3037" y="-240.8" font-family="Times,serif" font-size="14.00" fill="#000000">DatasetsModule</text>
</g>
<!-- FormsModule&#45;&gt;DatasetsModule -->
<g id="edge25" class="edge">
<title>FormsModule&#45;&gt;DatasetsModule</title>
<path fill="none" stroke="#000000" d="M3098.0501,-104C3089.2264,-104 3082.7355,-104 3082.7355,-104 3082.7355,-104 3082.7355,-216.8554 3082.7355,-216.8554"/>
<polygon fill="#000000" stroke="#000000" points="3079.2356,-216.8553 3082.7355,-226.8554 3086.2356,-216.8554 3079.2356,-216.8553"/>
</g>
<!-- UsersModule -->
<g id="node18" class="node">
<title>UsersModule</title>
<polygon fill="#8dd3c7" stroke="#000000" points="2756.9218,-263 2753.9218,-267 2732.9218,-267 2729.9218,-263 2665.0782,-263 2665.0782,-227 2756.9218,-227 2756.9218,-263"/>
<text text-anchor="middle" x="2711" y="-240.8" font-family="Times,serif" font-size="14.00" fill="#000000">UsersModule</text>
</g>
<!-- FormsModule&#45;&gt;UsersModule -->
<g id="edge50" class="edge">
<title>FormsModule&#45;&gt;UsersModule</title>
<path fill="none" stroke="#000000" d="M3146,-122.1505C3146,-134.2708 3146,-148 3146,-148 3146,-148 2716.1613,-148 2716.1613,-148 2716.1613,-148 2716.1613,-216.755 2716.1613,-216.755"/>
<polygon fill="#000000" stroke="#000000" points="2712.6614,-216.755 2716.1613,-226.755 2719.6614,-216.7551 2712.6614,-216.755"/>
</g>
<!-- FormsModule&#45;&gt;AppModule -->
<g id="edge3" class="edge">
<title>FormsModule&#45;&gt;AppModule</title>
<path fill="none" stroke="#000000" d="M3169.8321,-122.0445C3169.8321,-173.9579 3169.8321,-320 3169.8321,-320 3169.8321,-320 2423.7716,-320 2423.7716,-320"/>
<polygon fill="#000000" stroke="#000000" points="2423.7716,-316.5001 2413.7716,-320 2423.7716,-323.5001 2423.7716,-316.5001"/>
</g>
<!-- CheckboxModule -->
<g id="node4" class="node">
<title>CheckboxModule</title>
<polygon fill="#8dd3c7" stroke="#000000" points="1486.316,-122 1483.316,-126 1462.316,-126 1459.316,-122 1369.684,-122 1369.684,-86 1486.316,-86 1486.316,-122"/>
<text text-anchor="middle" x="1428" y="-99.8" font-family="Times,serif" font-size="14.00" fill="#000000">CheckboxModule</text>
</g>
<!-- CheckboxModule&#45;&gt;AppModule -->
<g id="edge4" class="edge">
<title>CheckboxModule&#45;&gt;AppModule</title>
<path fill="none" stroke="#000000" d="M1428,-122.1924C1428,-172.3636 1428,-309 1428,-309 1428,-309 2320.2195,-309 2320.2195,-309"/>
<polygon fill="#000000" stroke="#000000" points="2320.2195,-312.5001 2330.2195,-309 2320.2194,-305.5001 2320.2195,-312.5001"/>
</g>
<!-- ReactiveFormsModule -->
<g id="node5" class="node">
<title>ReactiveFormsModule</title>
<polygon fill="#8dd3c7" stroke="#000000" points="3080.3047,-122 3077.3047,-126 3056.3047,-126 3053.3047,-122 2935.6953,-122 2935.6953,-86 3080.3047,-86 3080.3047,-122"/>
<text text-anchor="middle" x="3008" y="-99.8" font-family="Times,serif" font-size="14.00" fill="#000000">ReactiveFormsModule</text>
</g>
<!-- ReactiveFormsModule&#45;&gt;SharedCatanieModule -->
<g id="edge38" class="edge">
<title>ReactiveFormsModule&#45;&gt;SharedCatanieModule</title>
<path fill="none" stroke="#000000" d="M2966.8328,-122.2015C2966.8328,-128.028 2966.8328,-133 2966.8328,-133 2966.8328,-133 2634.6403,-133 2634.6403,-133 2634.6403,-133 2634.6403,-140.5782 2634.6403,-140.5782"/>
<polygon fill="#000000" stroke="#000000" points="2631.1403,-140.5781 2634.6403,-150.5782 2638.1403,-140.5782 2631.1403,-140.5781"/>
</g>
<!-- ReactiveFormsModule&#45;&gt;DatasetsModule -->
<g id="edge27" class="edge">
<title>ReactiveFormsModule&#45;&gt;DatasetsModule</title>
<path fill="none" stroke="#000000" d="M3038.985,-122.1446C3038.985,-122.1446 3038.985,-216.925 3038.985,-216.925"/>
<polygon fill="#000000" stroke="#000000" points="3035.485,-216.925 3038.985,-226.925 3042.485,-216.925 3035.485,-216.925"/>
</g>
<!-- ReactiveFormsModule&#45;&gt;UsersModule -->
<g id="edge52" class="edge">
<title>ReactiveFormsModule&#45;&gt;UsersModule</title>
<path fill="none" stroke="#000000" d="M2982.3252,-122.1274C2982.3252,-132.7109 2982.3252,-144 2982.3252,-144 2982.3252,-144 2699.204,-144 2699.204,-144 2699.204,-144 2699.204,-216.9432 2699.204,-216.9432"/>
<polygon fill="#000000" stroke="#000000" points="2695.7041,-216.9432 2699.204,-226.9432 2702.7041,-216.9433 2695.7041,-216.9432"/>
</g>
<!-- ReactiveFormsModule&#45;&gt;AppModule -->
<g id="edge5" class="edge">
<title>ReactiveFormsModule&#45;&gt;AppModule</title>
<path fill="none" stroke="#000000" d="M2951.3403,-122.1679C2951.3403,-124.4478 2951.3403,-126 2951.3403,-126 2951.3403,-126 2378.1042,-126 2378.1042,-126 2378.1042,-126 2378.1042,-281.6847 2378.1042,-281.6847"/>
<polygon fill="#000000" stroke="#000000" points="2374.6043,-281.6846 2378.1042,-291.6847 2381.6043,-281.6847 2374.6043,-281.6846"/>
</g>
<!-- HttpModule -->
<g id="node6" class="node">
<title>HttpModule</title>
<polygon fill="#8dd3c7" stroke="#000000" points="3296.4387,-122 3293.4387,-126 3272.4387,-126 3269.4387,-122 3211.5613,-122 3211.5613,-86 3296.4387,-86 3296.4387,-122"/>
<text text-anchor="middle" x="3254" y="-99.8" font-family="Times,serif" font-size="14.00" fill="#000000">HttpModule</text>
</g>
<!-- HttpModule&#45;&gt;AppModule -->
<g id="edge6" class="edge">
<title>HttpModule&#45;&gt;AppModule</title>
<path fill="none" stroke="#000000" d="M3239.9271,-122.0035C3239.9271,-174.546 3239.9271,-324 3239.9271,-324 3239.9271,-324 2423.8619,-324 2423.8619,-324"/>
<polygon fill="#000000" stroke="#000000" points="2423.862,-320.5001 2413.8619,-324 2423.8619,-327.5001 2423.862,-320.5001"/>
</g>
<!-- SDKBrowserModule -->
<g id="node29" class="node">
<title>SDKBrowserModule</title>
<polygon fill="#8dd3c7" stroke="#000000" points="3860.4692,-263 3857.4692,-267 3836.4692,-267 3833.4692,-263 3725.5308,-263 3725.5308,-227 3860.4692,-227 3860.4692,-263"/>
<text text-anchor="middle" x="3793" y="-240.8" font-family="Times,serif" font-size="14.00" fill="#000000">SDKBrowserModule</text>
</g>
<!-- HttpModule&#45;&gt;SDKBrowserModule -->
<g id="edge35" class="edge">
<title>HttpModule&#45;&gt;SDKBrowserModule</title>
<path fill="none" stroke="#000000" d="M3268.0729,-122.1446C3268.0729,-160.2265 3268.0729,-245 3268.0729,-245 3268.0729,-245 3715.4496,-245 3715.4496,-245"/>
<polygon fill="#000000" stroke="#000000" points="3715.4496,-248.5001 3725.4496,-245 3715.4496,-241.5001 3715.4496,-248.5001"/>
</g>
<!-- DataTableModule -->
<g id="node7" class="node">
<title>DataTableModule</title>
<polygon fill="#8dd3c7" stroke="#000000" points="2867.8487,-187 2864.8487,-191 2843.8487,-191 2840.8487,-187 2750.1513,-187 2750.1513,-151 2867.8487,-151 2867.8487,-187"/>
<text text-anchor="middle" x="2809" y="-164.8" font-family="Times,serif" font-size="14.00" fill="#000000">DataTableModule</text>
</g>
<!-- DataTableModule&#45;&gt;DatasetsModule -->
<g id="edge29" class="edge">
<title>DataTableModule&#45;&gt;DatasetsModule</title>
<path fill="none" stroke="#000000" d="M2830.853,-187.1985C2830.853,-211.3563 2830.853,-251 2830.853,-251 2830.853,-251 2973.3754,-251 2973.3754,-251"/>
<polygon fill="#000000" stroke="#000000" points="2973.3755,-254.5001 2983.3754,-251 2973.3754,-247.5001 2973.3755,-254.5001"/>
</g>
<!-- DataTableModule&#45;&gt;AppModule -->
<g id="edge7" class="edge">
<title>DataTableModule&#45;&gt;AppModule</title>
<path fill="none" stroke="#000000" d="M2793.7817,-187.2067C2793.7817,-224.0559 2793.7817,-304 2793.7817,-304 2793.7817,-304 2423.984,-304 2423.984,-304"/>
<polygon fill="#000000" stroke="#000000" points="2423.9841,-300.5001 2413.984,-304 2423.984,-307.5001 2423.9841,-300.5001"/>
</g>
<!-- SharedModule -->
<g id="node8" class="node">
<title>SharedModule</title>
<polygon fill="#8dd3c7" stroke="#000000" points="2918.4231,-122 2915.4231,-126 2894.4231,-126 2891.4231,-122 2819.5769,-122 2819.5769,-86 2918.4231,-86 2918.4231,-122"/>
<text text-anchor="middle" x="2869" y="-99.8" font-family="Times,serif" font-size="14.00" fill="#000000">SharedModule</text>
</g>
<!-- SharedModule&#45;&gt;SharedCatanieModule -->
<g id="edge41" class="edge">
<title>SharedModule&#45;&gt;SharedCatanieModule</title>
<path fill="none" stroke="#000000" d="M2843.8566,-122.0579C2843.8566,-126.4945 2843.8566,-130 2843.8566,-130 2843.8566,-130 2631.9897,-130 2631.9897,-130 2631.9897,-130 2631.9897,-140.8701 2631.9897,-140.8701"/>
<polygon fill="#000000" stroke="#000000" points="2628.4898,-140.8701 2631.9897,-150.8701 2635.4898,-140.8701 2628.4898,-140.8701"/>
</g>
<!-- SharedModule&#45;&gt;DatasetsModule -->
<g id="edge30" class="edge">
<title>SharedModule&#45;&gt;DatasetsModule</title>
<path fill="none" stroke="#000000" d="M2880.0963,-122.2067C2880.0963,-159.0559 2880.0963,-239 2880.0963,-239 2880.0963,-239 2973.4415,-239 2973.4415,-239"/>
<polygon fill="#000000" stroke="#000000" points="2973.4415,-242.5001 2983.4415,-239 2973.4415,-235.5001 2973.4415,-242.5001"/>
</g>
<!-- SharedModule&#45;&gt;AppModule -->
<g id="edge8" class="edge">
<title>SharedModule&#45;&gt;AppModule</title>
<path fill="none" stroke="#000000" d="M2874.0103,-122.1036C2874.0103,-172.0301 2874.0103,-308 2874.0103,-308 2874.0103,-308 2423.9377,-308 2423.9377,-308"/>
<polygon fill="#000000" stroke="#000000" points="2423.9377,-304.5001 2413.9377,-308 2423.9376,-311.5001 2423.9377,-304.5001"/>
</g>
<!-- TreeModule -->
<g id="node9" class="node">
<title>TreeModule</title>
<polygon fill="#8dd3c7" stroke="#000000" points="2175.6924,-122 2172.6924,-126 2151.6924,-126 2148.6924,-122 2090.3076,-122 2090.3076,-86 2175.6924,-86 2175.6924,-122"/>
<text text-anchor="middle" x="2133" y="-99.8" font-family="Times,serif" font-size="14.00" fill="#000000">TreeModule</text>
</g>
<!-- TreeModule&#45;&gt;SharedCatanieModule -->
<g id="edge42" class="edge">
<title>TreeModule&#45;&gt;SharedCatanieModule</title>
<path fill="none" stroke="#000000" d="M2147.1987,-122.0225C2147.1987,-139.3734 2147.1987,-163 2147.1987,-163 2147.1987,-163 2491.3758,-163 2491.3758,-163"/>
<polygon fill="#000000" stroke="#000000" points="2491.3759,-166.5001 2501.3758,-163 2491.3758,-159.5001 2491.3759,-166.5001"/>
</g>
<!-- TreeModule&#45;&gt;AppModule -->
<g id="edge9" class="edge">
<title>TreeModule&#45;&gt;AppModule</title>
<path fill="none" stroke="#000000" d="M2118.8013,-122.0629C2118.8013,-169.8586 2118.8013,-296 2118.8013,-296 2118.8013,-296 2320.1894,-296 2320.1894,-296"/>
<polygon fill="#000000" stroke="#000000" points="2320.1894,-299.5001 2330.1894,-296 2320.1893,-292.5001 2320.1894,-299.5001"/>
</g>
<!-- TabViewModule -->
<g id="node10" class="node">
<title>TabViewModule</title>
<polygon fill="#8dd3c7" stroke="#000000" points="2997.636,-187 2994.636,-191 2973.636,-191 2970.636,-187 2886.364,-187 2886.364,-151 2997.636,-151 2997.636,-187"/>
<text text-anchor="middle" x="2942" y="-164.8" font-family="Times,serif" font-size="14.00" fill="#000000">TabViewModule</text>
</g>
<!-- TabViewModule&#45;&gt;DatasetsModule -->
<g id="edge31" class="edge">
<title>TabViewModule&#45;&gt;DatasetsModule</title>
<path fill="none" stroke="#000000" d="M2993.05,-187.0109C2993.05,-187.0109 2993.05,-216.855 2993.05,-216.855"/>
<polygon fill="#000000" stroke="#000000" points="2989.5501,-216.8549 2993.05,-226.855 2996.5501,-216.855 2989.5501,-216.8549"/>
</g>
<!-- TabViewModule&#45;&gt;AppModule -->
<g id="edge10" class="edge">
<title>TabViewModule&#45;&gt;AppModule</title>
<path fill="none" stroke="#000000" d="M2934.8485,-187.111C2934.8485,-225.5903 2934.8485,-312 2934.8485,-312 2934.8485,-312 2423.8453,-312 2423.8453,-312"/>
<polygon fill="#000000" stroke="#000000" points="2423.8453,-308.5001 2413.8453,-312 2423.8452,-315.5001 2423.8453,-308.5001"/>
</g>
<!-- AutoCompleteModule -->
<g id="node11" class="node">
<title>AutoCompleteModule</title>
<polygon fill="#8dd3c7" stroke="#000000" points="2335.9846,-122 2332.9846,-126 2311.9846,-126 2308.9846,-122 2194.0154,-122 2194.0154,-86 2335.9846,-86 2335.9846,-122"/>
<text text-anchor="middle" x="2265" y="-99.8" font-family="Times,serif" font-size="14.00" fill="#000000">AutoCompleteModule</text>
</g>
<!-- AutoCompleteModule&#45;&gt;SharedCatanieModule -->
<g id="edge43" class="edge">
<title>AutoCompleteModule&#45;&gt;SharedCatanieModule</title>
<path fill="none" stroke="#000000" d="M2325.958,-122.0091C2325.958,-138.0494 2325.958,-159 2325.958,-159 2325.958,-159 2491.1646,-159 2491.1646,-159"/>
<polygon fill="#000000" stroke="#000000" points="2491.1646,-162.5001 2501.1646,-159 2491.1645,-155.5001 2491.1646,-162.5001"/>
</g>
<!-- AutoCompleteModule&#45;&gt;AppModule -->
<g id="edge11" class="edge">
<title>AutoCompleteModule&#45;&gt;AppModule</title>
<path fill="none" stroke="#000000" d="M2321.7443,-122.0854C2321.7443,-174.8666 2321.7443,-325 2321.7443,-325 2321.7443,-325 2322.5741,-325 2322.5741,-325"/>
<polygon fill="#000000" stroke="#000000" points="2320.043,-328.5001 2330.043,-325 2320.0429,-321.5001 2320.043,-328.5001"/>
</g>
<!-- DropdownModule -->
<g id="node12" class="node">
<title>DropdownModule</title>
<polygon fill="#8dd3c7" stroke="#000000" points="2473.9244,-122 2470.9244,-126 2449.9244,-126 2446.9244,-122 2354.0756,-122 2354.0756,-86 2473.9244,-86 2473.9244,-122"/>
<text text-anchor="middle" x="2414" y="-99.8" font-family="Times,serif" font-size="14.00" fill="#000000">DropdownModule</text>
</g>
<!-- DropdownModule&#45;&gt;SharedCatanieModule -->
<g id="edge44" class="edge">
<title>DropdownModule&#45;&gt;SharedCatanieModule</title>
<path fill="none" stroke="#000000" d="M2450.0907,-122.1243C2450.0907,-136.7832 2450.0907,-155 2450.0907,-155 2450.0907,-155 2491.0848,-155 2491.0848,-155"/>
<polygon fill="#000000" stroke="#000000" points="2491.0849,-158.5001 2501.0848,-155 2491.0848,-151.5001 2491.0849,-158.5001"/>
</g>
<!-- DropdownModule&#45;&gt;AppModule -->
<g id="edge12" class="edge">
<title>DropdownModule&#45;&gt;AppModule</title>
<path fill="none" stroke="#000000" d="M2366.1962,-122.2811C2366.1962,-122.2811 2366.1962,-281.7598 2366.1962,-281.7598"/>
<polygon fill="#000000" stroke="#000000" points="2362.6963,-281.7598 2366.1962,-291.7598 2369.6963,-281.7599 2362.6963,-281.7598"/>
</g>
<!-- BrowserAnimationsModule -->
<g id="node13" class="node">
<title>BrowserAnimationsModule</title>
<polygon fill="#8dd3c7" stroke="#000000" points="1676.3019,-122 1673.3019,-126 1652.3019,-126 1649.3019,-122 1503.6981,-122 1503.6981,-86 1676.3019,-86 1676.3019,-122"/>
<text text-anchor="middle" x="1590" y="-99.8" font-family="Times,serif" font-size="14.00" fill="#000000">BrowserAnimationsModule</text>
</g>
<!-- BrowserAnimationsModule&#45;&gt;AppModule -->
<g id="edge13" class="edge">
<title>BrowserAnimationsModule&#45;&gt;AppModule</title>
<path fill="none" stroke="#000000" d="M1590,-122.2824C1590,-172.0066 1590,-306 1590,-306 1590,-306 2320.2327,-306 2320.2327,-306"/>
<polygon fill="#000000" stroke="#000000" points="2320.2328,-309.5001 2330.2327,-306 2320.2327,-302.5001 2320.2328,-309.5001"/>
</g>
<!-- TreeTableModule -->
<g id="node14" class="node">
<title>TreeTableModule</title>
<polygon fill="#8dd3c7" stroke="#000000" points="2608.5646,-122 2605.5646,-126 2584.5646,-126 2581.5646,-122 2491.4354,-122 2491.4354,-86 2608.5646,-86 2608.5646,-122"/>
<text text-anchor="middle" x="2550" y="-99.8" font-family="Times,serif" font-size="14.00" fill="#000000">TreeTableModule</text>
</g>
<!-- TreeTableModule&#45;&gt;SharedCatanieModule -->
<g id="edge40" class="edge">
<title>TreeTableModule&#45;&gt;SharedCatanieModule</title>
<path fill="none" stroke="#000000" d="M2554.9702,-122.1061C2554.9702,-122.1061 2554.9702,-140.991 2554.9702,-140.991"/>
<polygon fill="#000000" stroke="#000000" points="2551.4703,-140.9909 2554.9702,-150.991 2558.4703,-140.991 2551.4703,-140.9909"/>
</g>
<!-- TreeTableModule&#45;&gt;AppModule -->
<g id="edge14" class="edge">
<title>TreeTableModule&#45;&gt;AppModule</title>
<path fill="none" stroke="#000000" d="M2496.4379,-122.0629C2496.4379,-169.8586 2496.4379,-296 2496.4379,-296 2496.4379,-296 2423.7822,-296 2423.7822,-296"/>
<polygon fill="#000000" stroke="#000000" points="2423.7822,-292.5001 2413.7822,-296 2423.7822,-299.5001 2423.7822,-292.5001"/>
</g>
<!-- SharedCatanieModule&#45;&gt;DatasetsModule -->
<g id="edge28" class="edge">
<title>SharedCatanieModule&#45;&gt;DatasetsModule</title>
<path fill="none" stroke="#000000" d="M2572,-187.1467C2572,-200.7395 2572,-217 2572,-217 2572,-217 2988.2824,-217 2988.2824,-217 2988.2824,-217 2988.2824,-217.9793 2988.2824,-217.9793"/>
<polygon fill="#000000" stroke="#000000" points="2984.7825,-216.793 2988.2824,-226.793 2991.7825,-216.7931 2984.7825,-216.793"/>
</g>
<!-- SharedCatanieModule&#45;&gt;UsersModule -->
<g id="edge51" class="edge">
<title>SharedCatanieModule&#45;&gt;UsersModule</title>
<path fill="none" stroke="#000000" d="M2642.7566,-169C2664.2263,-169 2682.2468,-169 2682.2468,-169 2682.2468,-169 2682.2468,-216.9891 2682.2468,-216.9891"/>
<polygon fill="#000000" stroke="#000000" points="2678.7469,-216.989 2682.2468,-226.9891 2685.7469,-216.9891 2678.7469,-216.989"/>
</g>
<!-- SharedCatanieModule&#45;&gt;AppModule -->
<g id="edge15" class="edge">
<title>SharedCatanieModule&#45;&gt;AppModule</title>
<path fill="none" stroke="#000000" d="M2501.3783,-183C2450.2228,-183 2390.0122,-183 2390.0122,-183 2390.0122,-183 2390.0122,-281.804 2390.0122,-281.804"/>
<polygon fill="#000000" stroke="#000000" points="2386.5123,-281.804 2390.0122,-291.804 2393.5123,-281.804 2386.5123,-281.804"/>
</g>
<!-- ConfigFormComponent  -->
<g id="node31" class="node">
<title>ConfigFormComponent </title>
<polygon fill="#fb8072" stroke="#000000" points="530.054,-263 375.946,-263 375.946,-227 530.054,-227 530.054,-263"/>
<text text-anchor="middle" x="453" y="-240.8" font-family="Times,serif" font-size="14.00" fill="#000000">ConfigFormComponent </text>
</g>
<!-- SharedCatanieModule&#45;&gt;ConfigFormComponent  -->
<g id="edge46" class="edge">
<title>SharedCatanieModule&#45;&gt;ConfigFormComponent </title>
<path fill="none" stroke="#000000" stroke-dasharray="5,2" d="M2501.1944,-175C2132.8967,-175 453,-175 453,-175 453,-175 453,-216.9733 453,-216.9733"/>
<polygon fill="#000000" stroke="#000000" points="449.5001,-216.9732 453,-226.9733 456.5001,-216.9733 449.5001,-216.9732"/>
</g>
<!-- DatasetsFilterComponent  -->
<g id="node32" class="node">
<title>DatasetsFilterComponent </title>
<polygon fill="#fb8072" stroke="#000000" points="358.0833,-263 195.9167,-263 195.9167,-227 358.0833,-227 358.0833,-263"/>
<text text-anchor="middle" x="277" y="-240.8" font-family="Times,serif" font-size="14.00" fill="#000000">DatasetsFilterComponent </text>
</g>
<!-- SharedCatanieModule&#45;&gt;DatasetsFilterComponent  -->
<g id="edge47" class="edge">
<title>SharedCatanieModule&#45;&gt;DatasetsFilterComponent </title>
<path fill="none" stroke="#000000" stroke-dasharray="5,2" d="M2501.1154,-171C2114.4298,-171 277,-171 277,-171 277,-171 277,-216.7079 277,-216.7079"/>
<polygon fill="#000000" stroke="#000000" points="273.5001,-216.7078 277,-226.7079 280.5001,-216.7079 273.5001,-216.7078"/>
</g>
<!-- BreadcrumbComponent  -->
<g id="node33" class="node">
<title>BreadcrumbComponent </title>
<polygon fill="#fb8072" stroke="#000000" points="178.0246,-263 23.9754,-263 23.9754,-227 178.0246,-227 178.0246,-263"/>
<text text-anchor="middle" x="101" y="-240.8" font-family="Times,serif" font-size="14.00" fill="#000000">BreadcrumbComponent </text>
</g>
<!-- SharedCatanieModule&#45;&gt;BreadcrumbComponent  -->
<g id="edge48" class="edge">
<title>SharedCatanieModule&#45;&gt;BreadcrumbComponent </title>
<path fill="none" stroke="#000000" stroke-dasharray="5,2" d="M2501.3718,-167C2097.7349,-167 101,-167 101,-167 101,-167 101,-216.9092 101,-216.9092"/>
<polygon fill="#000000" stroke="#000000" points="97.5001,-216.9091 101,-226.9092 104.5001,-216.9092 97.5001,-216.9091"/>
</g>
<!-- NguiDatetimePickerModule -->
<g id="node16" class="node">
<title>NguiDatetimePickerModule</title>
<polygon fill="#8dd3c7" stroke="#000000" points="2801.1232,-122 2798.1232,-126 2777.1232,-126 2774.1232,-122 2626.8768,-122 2626.8768,-86 2801.1232,-86 2801.1232,-122"/>
<text text-anchor="middle" x="2714" y="-99.8" font-family="Times,serif" font-size="14.00" fill="#000000">NguiDatetimePickerModule</text>
</g>
<!-- NguiDatetimePickerModule&#45;&gt;SharedCatanieModule -->
<g id="edge39" class="edge">
<title>NguiDatetimePickerModule&#45;&gt;SharedCatanieModule</title>
<path fill="none" stroke="#000000" d="M2629.3391,-122.1061C2629.3391,-122.1061 2629.3391,-140.991 2629.3391,-140.991"/>
<polygon fill="#000000" stroke="#000000" points="2625.8392,-140.9909 2629.3391,-150.991 2632.8392,-140.991 2625.8392,-140.9909"/>
</g>
<!-- NguiDatetimePickerModule&#45;&gt;AppModule -->
<g id="edge16" class="edge">
<title>NguiDatetimePickerModule&#45;&gt;AppModule</title>
<path fill="none" stroke="#000000" d="M2653.9407,-122.0879C2653.9407,-170.6094 2653.9407,-300 2653.9407,-300 2653.9407,-300 2423.9049,-300 2423.9049,-300"/>
<polygon fill="#000000" stroke="#000000" points="2423.905,-296.5001 2413.9049,-300 2423.9049,-303.5001 2423.905,-296.5001"/>
</g>
<!-- DatasetsModule&#45;&gt;AppModule -->
<g id="edge17" class="edge">
<title>DatasetsModule&#45;&gt;AppModule</title>
<path fill="none" stroke="#000000" d="M3037,-263.2843C3037,-284.3211 3037,-316 3037,-316 3037,-316 2423.8506,-316 2423.8506,-316"/>
<polygon fill="#000000" stroke="#000000" points="2423.8507,-312.5001 2413.8506,-316 2423.8506,-319.5001 2423.8507,-312.5001"/>
</g>
<!-- DatasetTableComponent  -->
<g id="node28" class="node">
<title>DatasetTableComponent </title>
<polygon fill="#fb8072" stroke="#000000" points="3494.1813,-187 3335.8187,-187 3335.8187,-151 3494.1813,-151 3494.1813,-187"/>
<text text-anchor="middle" x="3415" y="-164.8" font-family="Times,serif" font-size="14.00" fill="#000000">DatasetTableComponent </text>
</g>
<!-- DatasetsModule&#45;&gt;DatasetTableComponent  -->
<g id="edge33" class="edge">
<title>DatasetsModule&#45;&gt;DatasetTableComponent </title>
<path fill="none" stroke="#000000" stroke-dasharray="5,2" d="M3085.3188,-226.9891C3085.3188,-204.5148 3085.3188,-169 3085.3188,-169 3085.3188,-169 3325.6136,-169 3325.6136,-169"/>
<polygon fill="#000000" stroke="#000000" points="3325.6136,-172.5001 3335.6136,-169 3325.6136,-165.5001 3325.6136,-172.5001"/>
</g>
<!-- UsersModule&#45;&gt;AppModule -->
<g id="edge18" class="edge">
<title>UsersModule&#45;&gt;AppModule</title>
<path fill="none" stroke="#000000" d="M2665.0614,-245C2578.9613,-245 2401.9202,-245 2401.9202,-245 2401.9202,-245 2401.9202,-281.8939 2401.9202,-281.8939"/>
<polygon fill="#000000" stroke="#000000" points="2398.4203,-281.8938 2401.9202,-291.8939 2405.4203,-281.8939 2398.4203,-281.8938"/>
</g>
<!-- SDKBrowserModule.forRoot() -->
<g id="node19" class="node">
<title>SDKBrowserModule.forRoot()</title>
<polygon fill="#8dd3c7" stroke="#000000" points="1885.8391,-122 1882.8391,-126 1861.8391,-126 1858.8391,-122 1694.1609,-122 1694.1609,-86 1885.8391,-86 1885.8391,-122"/>
<text text-anchor="middle" x="1790" y="-99.8" font-family="Times,serif" font-size="14.00" fill="#000000">SDKBrowserModule.forRoot()</text>
</g>
<!-- SDKBrowserModule.forRoot()&#45;&gt;AppModule -->
<g id="edge19" class="edge">
<title>SDKBrowserModule.forRoot()&#45;&gt;AppModule</title>
<path fill="none" stroke="#000000" d="M1790,-122.2725C1790,-171.2891 1790,-302 1790,-302 1790,-302 2320.144,-302 2320.144,-302"/>
<polygon fill="#000000" stroke="#000000" points="2320.144,-305.5001 2330.144,-302 2320.144,-298.5001 2320.144,-305.5001"/>
</g>
<!-- StoreModule.forRoot(args) -->
<g id="node20" class="node">
<title>StoreModule.forRoot(args)</title>
<polygon fill="#8dd3c7" stroke="#000000" points="2072.2877,-122 2069.2877,-126 2048.2877,-126 2045.2877,-122 1903.7123,-122 1903.7123,-86 2072.2877,-86 2072.2877,-122"/>
<text text-anchor="middle" x="1988" y="-99.8" font-family="Times,serif" font-size="14.00" fill="#000000">StoreModule.forRoot(args)</text>
</g>
<!-- StoreModule.forRoot(args)&#45;&gt;AppModule -->
<g id="edge20" class="edge">
<title>StoreModule.forRoot(args)&#45;&gt;AppModule</title>
<path fill="none" stroke="#000000" d="M1988,-122.3451C1988,-170.8877 1988,-299 1988,-299 1988,-299 2320.1743,-299 2320.1743,-299"/>
<polygon fill="#000000" stroke="#000000" points="2320.1743,-302.5001 2330.1743,-299 2320.1742,-295.5001 2320.1743,-302.5001"/>
</g>
<!-- EffectsModule.forRoot(args) -->
<g id="node21" class="node">
<title>EffectsModule.forRoot(args)</title>
<polygon fill="#8dd3c7" stroke="#000000" points="870.3774,-122 867.3774,-126 846.3774,-126 843.3774,-122 691.6226,-122 691.6226,-86 870.3774,-86 870.3774,-122"/>
<text text-anchor="middle" x="781" y="-99.8" font-family="Times,serif" font-size="14.00" fill="#000000">EffectsModule.forRoot(args)</text>
</g>
<!-- EffectsModule.forRoot(args)&#45;&gt;AppModule -->
<g id="edge21" class="edge">
<title>EffectsModule.forRoot(args)&#45;&gt;AppModule</title>
<path fill="none" stroke="#000000" d="M781,-122.2116C781,-174.6057 781,-322 781,-322 781,-322 2320.2624,-322 2320.2624,-322"/>
<polygon fill="#000000" stroke="#000000" points="2320.2624,-325.5001 2330.2624,-322 2320.2624,-318.5001 2320.2624,-325.5001"/>
</g>
<!-- StoreRouterConnectingModule -->
<g id="node22" class="node">
<title>StoreRouterConnectingModule</title>
<polygon fill="#8dd3c7" stroke="#000000" points="1079.7478,-122 1076.7478,-126 1055.7478,-126 1052.7478,-122 888.2522,-122 888.2522,-86 1079.7478,-86 1079.7478,-122"/>
<text text-anchor="middle" x="984" y="-99.8" font-family="Times,serif" font-size="14.00" fill="#000000">StoreRouterConnectingModule</text>
</g>
<!-- StoreRouterConnectingModule&#45;&gt;AppModule -->
<g id="edge22" class="edge">
<title>StoreRouterConnectingModule&#45;&gt;AppModule</title>
<path fill="none" stroke="#000000" d="M984,-122.3308C984,-174.3238 984,-319 984,-319 984,-319 2320.0818,-319 2320.0818,-319"/>
<polygon fill="#000000" stroke="#000000" points="2320.0818,-322.5001 2330.0818,-319 2320.0817,-315.5001 2320.0818,-322.5001"/>
</g>
<!-- AppComponent  -->
<g id="node24" class="node">
<title>AppComponent </title>
<polygon fill="#80b1d3" stroke="#000000" points="2426.439,-393 2317.561,-393 2317.561,-357 2426.439,-357 2426.439,-393"/>
<text text-anchor="middle" x="2372" y="-370.8" font-family="Times,serif" font-size="14.00" fill="#000000">AppComponent </text>
</g>
<!-- AppModule&#45;&gt;AppComponent  -->
<g id="edge23" class="edge">
<title>AppModule&#45;&gt;AppComponent </title>
<path fill="none" stroke="#000000" stroke-dasharray="1,5" d="M2372,-328.1061C2372,-328.1061 2372,-346.991 2372,-346.991"/>
<polygon fill="#000000" stroke="#000000" points="2368.5001,-346.9909 2372,-356.991 2375.5001,-346.991 2368.5001,-346.9909"/>
</g>
<!-- CommonModule -->
<g id="node25" class="node">
<title>CommonModule</title>
<polygon fill="#8dd3c7" stroke="#000000" points="3792.6681,-187 3789.6681,-191 3768.6681,-191 3765.6681,-187 3681.3319,-187 3681.3319,-151 3792.6681,-151 3792.6681,-187"/>
<text text-anchor="middle" x="3737" y="-164.8" font-family="Times,serif" font-size="14.00" fill="#000000">CommonModule</text>
</g>
<!-- CommonModule&#45;&gt;SharedCatanieModule -->
<g id="edge36" class="edge">
<title>CommonModule&#45;&gt;SharedCatanieModule</title>
<path fill="none" stroke="#000000" d="M3737,-150.793C3737,-145.4451 3737,-141 3737,-141 3737,-141 2639.9414,-141 2639.9414,-141 2639.9414,-141 2639.9414,-141.9793 2639.9414,-141.9793"/>
<polygon fill="#000000" stroke="#000000" points="2636.4415,-140.793 2639.9414,-150.793 2643.4415,-140.7931 2636.4415,-140.793"/>
</g>
<!-- CommonModule&#45;&gt;DatasetsModule -->
<g id="edge24" class="edge">
<title>CommonModule&#45;&gt;DatasetsModule</title>
<path fill="none" stroke="#000000" d="M3710.7323,-187.0263C3710.7323,-211.9773 3710.7323,-254 3710.7323,-254 3710.7323,-254 3100.7123,-254 3100.7123,-254"/>
<polygon fill="#000000" stroke="#000000" points="3100.7124,-250.5001 3090.7123,-254 3100.7123,-257.5001 3100.7124,-250.5001"/>
</g>
<!-- CommonModule&#45;&gt;UsersModule -->
<g id="edge49" class="edge">
<title>CommonModule&#45;&gt;UsersModule</title>
<path fill="none" stroke="#000000" d="M3695.9493,-187.207C3695.9493,-192.5549 3695.9493,-197 3695.9493,-197 3695.9493,-197 2733.1185,-197 2733.1185,-197 2733.1185,-197 2733.1185,-216.8533 2733.1185,-216.8533"/>
<polygon fill="#000000" stroke="#000000" points="2729.6186,-216.8532 2733.1185,-226.8533 2736.6186,-216.8533 2729.6186,-216.8532"/>
</g>
<!-- CommonModule&#45;&gt;SDKBrowserModule -->
<g id="edge34" class="edge">
<title>CommonModule&#45;&gt;SDKBrowserModule</title>
<path fill="none" stroke="#000000" d="M3759.1746,-187.0109C3759.1746,-187.0109 3759.1746,-216.855 3759.1746,-216.855"/>
<polygon fill="#000000" stroke="#000000" points="3755.6747,-216.8549 3759.1746,-226.855 3762.6747,-216.855 3755.6747,-216.8549"/>
</g>
<!-- DialogModule -->
<g id="node26" class="node">
<title>DialogModule</title>
<polygon fill="#8dd3c7" stroke="#000000" points="3908.6528,-187 3905.6528,-191 3884.6528,-191 3881.6528,-187 3811.3472,-187 3811.3472,-151 3908.6528,-151 3908.6528,-187"/>
<text text-anchor="middle" x="3860" y="-164.8" font-family="Times,serif" font-size="14.00" fill="#000000">DialogModule</text>
</g>
<!-- DialogModule&#45;&gt;DatasetsModule -->
<g id="edge26" class="edge">
<title>DialogModule&#45;&gt;DatasetsModule</title>
<path fill="none" stroke="#000000" d="M3835.8293,-187.1097C3835.8293,-196.897 3835.8293,-207 3835.8293,-207 3835.8293,-207 3087.902,-207 3087.902,-207 3087.902,-207 3087.902,-216.8903 3087.902,-216.8903"/>
<polygon fill="#000000" stroke="#000000" points="3084.4021,-216.8903 3087.902,-226.8903 3091.4021,-216.8904 3084.4021,-216.8903"/>
</g>
<!-- ConfirmDialogModule -->
<g id="node27" class="node">
<title>ConfirmDialogModule</title>
<polygon fill="#8dd3c7" stroke="#000000" points="3663.5912,-187 3660.5912,-191 3639.5912,-191 3636.5912,-187 3518.4088,-187 3518.4088,-151 3663.5912,-151 3663.5912,-187"/>
<text text-anchor="middle" x="3591" y="-164.8" font-family="Times,serif" font-size="14.00" fill="#000000">ConfirmDialogModule</text>
</g>
<!-- ConfirmDialogModule&#45;&gt;DatasetsModule -->
<g id="edge32" class="edge">
<title>ConfirmDialogModule&#45;&gt;DatasetsModule</title>
<path fill="none" stroke="#000000" d="M3591,-187.308C3591,-207.1455 3591,-236 3591,-236 3591,-236 3100.6232,-236 3100.6232,-236"/>
<polygon fill="#000000" stroke="#000000" points="3100.6233,-232.5001 3090.6232,-236 3100.6232,-239.5001 3100.6233,-232.5001"/>
</g>
<!-- RouterModule -->
<g id="node30" class="node">
<title>RouterModule</title>
<polygon fill="#8dd3c7" stroke="#000000" points="651.6528,-263 648.6528,-267 627.6528,-267 624.6528,-263 554.3472,-263 554.3472,-227 651.6528,-227 651.6528,-263"/>
<text text-anchor="middle" x="603" y="-240.8" font-family="Times,serif" font-size="14.00" fill="#000000">RouterModule</text>
</g>
<!-- RouterModule&#45;&gt;SharedCatanieModule -->
<g id="edge45" class="edge">
<title>RouterModule&#45;&gt;SharedCatanieModule</title>
<path fill="none" stroke="#000000" d="M603,-226.9652C603,-207.4238 603,-179 603,-179 603,-179 2491.3417,-179 2491.3417,-179"/>
<polygon fill="#000000" stroke="#000000" points="2491.3418,-182.5001 2501.3417,-179 2491.3417,-175.5001 2491.3418,-182.5001"/>
</g>
</g>
</svg>
